<?xml version="1.0" encoding="utf-8" standalone="no"?>
<!DOCTYPE svg PUBLIC "-//W3C//DTD SVG 1.1//EN"
  "http://www.w3.org/Graphics/SVG/1.1/DTD/svg11.dtd">
<!-- Created with matplotlib (https://matplotlib.org/) -->
<svg height="720pt" version="1.1" viewBox="0 0 1080 720" width="1080pt" xmlns="http://www.w3.org/2000/svg" xmlns:xlink="http://www.w3.org/1999/xlink">
 <defs>
  <style type="text/css">
*{stroke-linecap:butt;stroke-linejoin:round;}
  </style>
 </defs>
 <g id="figure_1">
  <g id="patch_1">
   <path d="M 0 720 
L 1080 720 
L 1080 0 
L 0 0 
z
" style="fill:#ffffff;"/>
  </g>
  <g id="axes_1">
   <g id="patch_2">
    <path d="M 51.835 577.04 
L 1067.04 577.04 
L 1067.04 12.96 
L 51.835 12.96 
z
" style="fill:#ffffff;"/>
   </g>
   <g id="matplotlib.axis_1">
    <g id="xtick_1">
     <g id="line2d_1">
      <path clip-path="url(#p7dba873eb6)" d="M 1020.894318 577.04 
L 1020.894318 12.96 
" style="fill:none;stroke:#cccccc;stroke-dasharray:3.7,1.6;stroke-dashoffset:0;stroke-opacity:0.5;"/>
     </g>
     <g id="text_1">
      <!-- Position 0200 to 0001 -->
      <defs>
       <path d="M 7.71875 0 
L 7.71875 71.578125 
L 34.71875 71.578125 
Q 41.84375 71.578125 45.609375 70.90625 
Q 50.875 70.015625 54.4375 67.546875 
Q 58.015625 65.09375 60.1875 60.640625 
Q 62.359375 56.203125 62.359375 50.875 
Q 62.359375 41.75 56.546875 35.421875 
Q 50.734375 29.109375 35.546875 29.109375 
L 17.1875 29.109375 
L 17.1875 0 
z
M 17.1875 37.546875 
L 35.6875 37.546875 
Q 44.875 37.546875 48.734375 40.96875 
Q 52.59375 44.390625 52.59375 50.59375 
Q 52.59375 55.078125 50.3125 58.265625 
Q 48.046875 61.46875 44.34375 62.5 
Q 41.9375 63.140625 35.5 63.140625 
L 17.1875 63.140625 
z
" id="ArialMT-80"/>
       <path d="M 3.328125 25.921875 
Q 3.328125 40.328125 11.328125 47.265625 
Q 18.015625 53.03125 27.640625 53.03125 
Q 38.328125 53.03125 45.109375 46.015625 
Q 51.90625 39.015625 51.90625 26.65625 
Q 51.90625 16.65625 48.90625 10.90625 
Q 45.90625 5.171875 40.15625 2 
Q 34.421875 -1.171875 27.640625 -1.171875 
Q 16.75 -1.171875 10.03125 5.8125 
Q 3.328125 12.796875 3.328125 25.921875 
z
M 12.359375 25.921875 
Q 12.359375 15.96875 16.703125 11.015625 
Q 21.046875 6.0625 27.640625 6.0625 
Q 34.1875 6.0625 38.53125 11.03125 
Q 42.875 16.015625 42.875 26.21875 
Q 42.875 35.84375 38.5 40.796875 
Q 34.125 45.75 27.640625 45.75 
Q 21.046875 45.75 16.703125 40.8125 
Q 12.359375 35.890625 12.359375 25.921875 
z
" id="ArialMT-111"/>
       <path d="M 3.078125 15.484375 
L 11.765625 16.84375 
Q 12.5 11.625 15.84375 8.84375 
Q 19.1875 6.0625 25.203125 6.0625 
Q 31.25 6.0625 34.171875 8.515625 
Q 37.109375 10.984375 37.109375 14.3125 
Q 37.109375 17.28125 34.515625 19 
Q 32.71875 20.171875 25.53125 21.96875 
Q 15.875 24.421875 12.140625 26.203125 
Q 8.40625 27.984375 6.46875 31.125 
Q 4.546875 34.28125 4.546875 38.09375 
Q 4.546875 41.546875 6.125 44.5 
Q 7.71875 47.46875 10.453125 49.421875 
Q 12.5 50.921875 16.03125 51.96875 
Q 19.578125 53.03125 23.640625 53.03125 
Q 29.734375 53.03125 34.34375 51.265625 
Q 38.96875 49.515625 41.15625 46.5 
Q 43.359375 43.5 44.1875 38.484375 
L 35.59375 37.3125 
Q 35.015625 41.3125 32.203125 43.546875 
Q 29.390625 45.796875 24.265625 45.796875 
Q 18.21875 45.796875 15.625 43.796875 
Q 13.03125 41.796875 13.03125 39.109375 
Q 13.03125 37.40625 14.109375 36.03125 
Q 15.1875 34.625 17.484375 33.6875 
Q 18.796875 33.203125 25.25 31.453125 
Q 34.578125 28.953125 38.25 27.359375 
Q 41.9375 25.78125 44.03125 22.75 
Q 46.140625 19.734375 46.140625 15.234375 
Q 46.140625 10.84375 43.578125 6.953125 
Q 41.015625 3.078125 36.171875 0.953125 
Q 31.34375 -1.171875 25.25 -1.171875 
Q 15.140625 -1.171875 9.84375 3.03125 
Q 4.546875 7.234375 3.078125 15.484375 
z
" id="ArialMT-115"/>
       <path d="M 6.640625 61.46875 
L 6.640625 71.578125 
L 15.4375 71.578125 
L 15.4375 61.46875 
z
M 6.640625 0 
L 6.640625 51.859375 
L 15.4375 51.859375 
L 15.4375 0 
z
" id="ArialMT-105"/>
       <path d="M 25.78125 7.859375 
L 27.046875 0.09375 
Q 23.34375 -0.6875 20.40625 -0.6875 
Q 15.625 -0.6875 12.984375 0.828125 
Q 10.359375 2.34375 9.28125 4.8125 
Q 8.203125 7.28125 8.203125 15.1875 
L 8.203125 45.015625 
L 1.765625 45.015625 
L 1.765625 51.859375 
L 8.203125 51.859375 
L 8.203125 64.703125 
L 16.9375 69.96875 
L 16.9375 51.859375 
L 25.78125 51.859375 
L 25.78125 45.015625 
L 16.9375 45.015625 
L 16.9375 14.703125 
Q 16.9375 10.9375 17.40625 9.859375 
Q 17.875 8.796875 18.921875 8.15625 
Q 19.96875 7.515625 21.921875 7.515625 
Q 23.390625 7.515625 25.78125 7.859375 
z
" id="ArialMT-116"/>
       <path d="M 6.59375 0 
L 6.59375 51.859375 
L 14.5 51.859375 
L 14.5 44.484375 
Q 20.21875 53.03125 31 53.03125 
Q 35.6875 53.03125 39.625 51.34375 
Q 43.5625 49.65625 45.515625 46.921875 
Q 47.46875 44.1875 48.25 40.4375 
Q 48.734375 37.984375 48.734375 31.890625 
L 48.734375 0 
L 39.9375 0 
L 39.9375 31.546875 
Q 39.9375 36.921875 38.90625 39.578125 
Q 37.890625 42.234375 35.28125 43.8125 
Q 32.671875 45.40625 29.15625 45.40625 
Q 23.53125 45.40625 19.453125 41.84375 
Q 15.375 38.28125 15.375 28.328125 
L 15.375 0 
z
" id="ArialMT-110"/>
       <path id="ArialMT-32"/>
       <path d="M 4.15625 35.296875 
Q 4.15625 48 6.765625 55.734375 
Q 9.375 63.484375 14.515625 67.671875 
Q 19.671875 71.875 27.484375 71.875 
Q 33.25 71.875 37.59375 69.546875 
Q 41.9375 67.234375 44.765625 62.859375 
Q 47.609375 58.5 49.21875 52.21875 
Q 50.828125 45.953125 50.828125 35.296875 
Q 50.828125 22.703125 48.234375 14.96875 
Q 45.65625 7.234375 40.5 3 
Q 35.359375 -1.21875 27.484375 -1.21875 
Q 17.140625 -1.21875 11.234375 6.203125 
Q 4.15625 15.140625 4.15625 35.296875 
z
M 13.1875 35.296875 
Q 13.1875 17.671875 17.3125 11.828125 
Q 21.4375 6 27.484375 6 
Q 33.546875 6 37.671875 11.859375 
Q 41.796875 17.71875 41.796875 35.296875 
Q 41.796875 52.984375 37.671875 58.78125 
Q 33.546875 64.59375 27.390625 64.59375 
Q 21.34375 64.59375 17.71875 59.46875 
Q 13.1875 52.9375 13.1875 35.296875 
z
" id="ArialMT-48"/>
       <path d="M 50.34375 8.453125 
L 50.34375 0 
L 3.03125 0 
Q 2.9375 3.171875 4.046875 6.109375 
Q 5.859375 10.9375 9.828125 15.625 
Q 13.8125 20.3125 21.34375 26.46875 
Q 33.015625 36.03125 37.109375 41.625 
Q 41.21875 47.21875 41.21875 52.203125 
Q 41.21875 57.421875 37.46875 61 
Q 33.734375 64.59375 27.734375 64.59375 
Q 21.390625 64.59375 17.578125 60.78125 
Q 13.765625 56.984375 13.71875 50.25 
L 4.6875 51.171875 
Q 5.609375 61.28125 11.65625 66.578125 
Q 17.71875 71.875 27.9375 71.875 
Q 38.234375 71.875 44.234375 66.15625 
Q 50.25 60.453125 50.25 52 
Q 50.25 47.703125 48.484375 43.546875 
Q 46.734375 39.40625 42.65625 34.8125 
Q 38.578125 30.21875 29.109375 22.21875 
Q 21.1875 15.578125 18.9375 13.203125 
Q 16.703125 10.84375 15.234375 8.453125 
z
" id="ArialMT-50"/>
       <path d="M 37.25 0 
L 28.46875 0 
L 28.46875 56 
Q 25.296875 52.984375 20.140625 49.953125 
Q 14.984375 46.921875 10.890625 45.40625 
L 10.890625 53.90625 
Q 18.265625 57.375 23.78125 62.296875 
Q 29.296875 67.234375 31.59375 71.875 
L 37.25 71.875 
z
" id="ArialMT-49"/>
      </defs>
      <g style="fill:#262626;" transform="translate(1023.73799 692.949531)rotate(-90)scale(0.11 -0.11)">
       <use xlink:href="#ArialMT-80"/>
       <use x="66.699219" xlink:href="#ArialMT-111"/>
       <use x="122.314453" xlink:href="#ArialMT-115"/>
       <use x="172.314453" xlink:href="#ArialMT-105"/>
       <use x="194.53125" xlink:href="#ArialMT-116"/>
       <use x="222.314453" xlink:href="#ArialMT-105"/>
       <use x="244.53125" xlink:href="#ArialMT-111"/>
       <use x="300.146484" xlink:href="#ArialMT-110"/>
       <use x="355.761719" xlink:href="#ArialMT-32"/>
       <use x="383.544922" xlink:href="#ArialMT-48"/>
       <use x="439.160156" xlink:href="#ArialMT-50"/>
       <use x="494.775391" xlink:href="#ArialMT-48"/>
       <use x="550.390625" xlink:href="#ArialMT-48"/>
       <use x="606.005859" xlink:href="#ArialMT-32"/>
       <use x="633.789062" xlink:href="#ArialMT-116"/>
       <use x="661.572266" xlink:href="#ArialMT-111"/>
       <use x="717.1875" xlink:href="#ArialMT-32"/>
       <use x="744.970703" xlink:href="#ArialMT-48"/>
       <use x="800.585938" xlink:href="#ArialMT-48"/>
       <use x="856.201172" xlink:href="#ArialMT-48"/>
       <use x="911.816406" xlink:href="#ArialMT-49"/>
      </g>
     </g>
    </g>
    <g id="xtick_2">
     <g id="line2d_2">
      <path clip-path="url(#p7dba873eb6)" d="M 949.900962 577.04 
L 949.900962 12.96 
" style="fill:none;stroke:#cccccc;stroke-dasharray:3.7,1.6;stroke-dashoffset:0;stroke-opacity:0.5;"/>
     </g>
     <g id="text_2">
      <!-- Position 0400 to 0201 -->
      <defs>
       <path d="M 32.328125 0 
L 32.328125 17.140625 
L 1.265625 17.140625 
L 1.265625 25.203125 
L 33.9375 71.578125 
L 41.109375 71.578125 
L 41.109375 25.203125 
L 50.78125 25.203125 
L 50.78125 17.140625 
L 41.109375 17.140625 
L 41.109375 0 
z
M 32.328125 25.203125 
L 32.328125 57.46875 
L 9.90625 25.203125 
z
" id="ArialMT-52"/>
      </defs>
      <g style="fill:#262626;" transform="translate(952.744633 692.949531)rotate(-90)scale(0.11 -0.11)">
       <use xlink:href="#ArialMT-80"/>
       <use x="66.699219" xlink:href="#ArialMT-111"/>
       <use x="122.314453" xlink:href="#ArialMT-115"/>
       <use x="172.314453" xlink:href="#ArialMT-105"/>
       <use x="194.53125" xlink:href="#ArialMT-116"/>
       <use x="222.314453" xlink:href="#ArialMT-105"/>
       <use x="244.53125" xlink:href="#ArialMT-111"/>
       <use x="300.146484" xlink:href="#ArialMT-110"/>
       <use x="355.761719" xlink:href="#ArialMT-32"/>
       <use x="383.544922" xlink:href="#ArialMT-48"/>
       <use x="439.160156" xlink:href="#ArialMT-52"/>
       <use x="494.775391" xlink:href="#ArialMT-48"/>
       <use x="550.390625" xlink:href="#ArialMT-48"/>
       <use x="606.005859" xlink:href="#ArialMT-32"/>
       <use x="633.789062" xlink:href="#ArialMT-116"/>
       <use x="661.572266" xlink:href="#ArialMT-111"/>
       <use x="717.1875" xlink:href="#ArialMT-32"/>
       <use x="744.970703" xlink:href="#ArialMT-48"/>
       <use x="800.585938" xlink:href="#ArialMT-50"/>
       <use x="856.201172" xlink:href="#ArialMT-48"/>
       <use x="911.816406" xlink:href="#ArialMT-49"/>
      </g>
     </g>
    </g>
    <g id="xtick_3">
     <g id="line2d_3">
      <path clip-path="url(#p7dba873eb6)" d="M 878.907605 577.04 
L 878.907605 12.96 
" style="fill:none;stroke:#cccccc;stroke-dasharray:3.7,1.6;stroke-dashoffset:0;stroke-opacity:0.5;"/>
     </g>
     <g id="text_3">
      <!-- Position 0600 to 0401 -->
      <defs>
       <path d="M 49.75 54.046875 
L 41.015625 53.375 
Q 39.84375 58.546875 37.703125 60.890625 
Q 34.125 64.65625 28.90625 64.65625 
Q 24.703125 64.65625 21.53125 62.3125 
Q 17.390625 59.28125 14.984375 53.46875 
Q 12.59375 47.65625 12.5 36.921875 
Q 15.671875 41.75 20.265625 44.09375 
Q 24.859375 46.4375 29.890625 46.4375 
Q 38.671875 46.4375 44.84375 39.96875 
Q 51.03125 33.5 51.03125 23.25 
Q 51.03125 16.5 48.125 10.71875 
Q 45.21875 4.9375 40.140625 1.859375 
Q 35.0625 -1.21875 28.609375 -1.21875 
Q 17.625 -1.21875 10.6875 6.859375 
Q 3.765625 14.9375 3.765625 33.5 
Q 3.765625 54.25 11.421875 63.671875 
Q 18.109375 71.875 29.4375 71.875 
Q 37.890625 71.875 43.28125 67.140625 
Q 48.6875 62.40625 49.75 54.046875 
z
M 13.875 23.1875 
Q 13.875 18.65625 15.796875 14.5 
Q 17.71875 10.359375 21.1875 8.171875 
Q 24.65625 6 28.46875 6 
Q 34.03125 6 38.03125 10.484375 
Q 42.046875 14.984375 42.046875 22.703125 
Q 42.046875 30.125 38.078125 34.390625 
Q 34.125 38.671875 28.125 38.671875 
Q 22.171875 38.671875 18.015625 34.390625 
Q 13.875 30.125 13.875 23.1875 
z
" id="ArialMT-54"/>
      </defs>
      <g style="fill:#262626;" transform="translate(881.751277 692.949531)rotate(-90)scale(0.11 -0.11)">
       <use xlink:href="#ArialMT-80"/>
       <use x="66.699219" xlink:href="#ArialMT-111"/>
       <use x="122.314453" xlink:href="#ArialMT-115"/>
       <use x="172.314453" xlink:href="#ArialMT-105"/>
       <use x="194.53125" xlink:href="#ArialMT-116"/>
       <use x="222.314453" xlink:href="#ArialMT-105"/>
       <use x="244.53125" xlink:href="#ArialMT-111"/>
       <use x="300.146484" xlink:href="#ArialMT-110"/>
       <use x="355.761719" xlink:href="#ArialMT-32"/>
       <use x="383.544922" xlink:href="#ArialMT-48"/>
       <use x="439.160156" xlink:href="#ArialMT-54"/>
       <use x="494.775391" xlink:href="#ArialMT-48"/>
       <use x="550.390625" xlink:href="#ArialMT-48"/>
       <use x="606.005859" xlink:href="#ArialMT-32"/>
       <use x="633.789062" xlink:href="#ArialMT-116"/>
       <use x="661.572266" xlink:href="#ArialMT-111"/>
       <use x="717.1875" xlink:href="#ArialMT-32"/>
       <use x="744.970703" xlink:href="#ArialMT-48"/>
       <use x="800.585938" xlink:href="#ArialMT-52"/>
       <use x="856.201172" xlink:href="#ArialMT-48"/>
       <use x="911.816406" xlink:href="#ArialMT-49"/>
      </g>
     </g>
    </g>
    <g id="xtick_4">
     <g id="line2d_4">
      <path clip-path="url(#p7dba873eb6)" d="M 807.914248 577.04 
L 807.914248 12.96 
" style="fill:none;stroke:#cccccc;stroke-dasharray:3.7,1.6;stroke-dashoffset:0;stroke-opacity:0.5;"/>
     </g>
     <g id="text_4">
      <!-- Position 0800 to 0601 -->
      <defs>
       <path d="M 17.671875 38.8125 
Q 12.203125 40.828125 9.5625 44.53125 
Q 6.9375 48.25 6.9375 53.421875 
Q 6.9375 61.234375 12.546875 66.546875 
Q 18.171875 71.875 27.484375 71.875 
Q 36.859375 71.875 42.578125 66.421875 
Q 48.296875 60.984375 48.296875 53.171875 
Q 48.296875 48.1875 45.671875 44.5 
Q 43.0625 40.828125 37.75 38.8125 
Q 44.34375 36.671875 47.78125 31.875 
Q 51.21875 27.09375 51.21875 20.453125 
Q 51.21875 11.28125 44.71875 5.03125 
Q 38.234375 -1.21875 27.640625 -1.21875 
Q 17.046875 -1.21875 10.546875 5.046875 
Q 4.046875 11.328125 4.046875 20.703125 
Q 4.046875 27.6875 7.59375 32.390625 
Q 11.140625 37.109375 17.671875 38.8125 
z
M 15.921875 53.71875 
Q 15.921875 48.640625 19.1875 45.40625 
Q 22.46875 42.1875 27.6875 42.1875 
Q 32.765625 42.1875 36.015625 45.375 
Q 39.265625 48.578125 39.265625 53.21875 
Q 39.265625 58.0625 35.90625 61.359375 
Q 32.5625 64.65625 27.59375 64.65625 
Q 22.5625 64.65625 19.234375 61.421875 
Q 15.921875 58.203125 15.921875 53.71875 
z
M 13.09375 20.65625 
Q 13.09375 16.890625 14.875 13.375 
Q 16.65625 9.859375 20.171875 7.921875 
Q 23.6875 6 27.734375 6 
Q 34.03125 6 38.125 10.046875 
Q 42.234375 14.109375 42.234375 20.359375 
Q 42.234375 26.703125 38.015625 30.859375 
Q 33.796875 35.015625 27.4375 35.015625 
Q 21.234375 35.015625 17.15625 30.90625 
Q 13.09375 26.8125 13.09375 20.65625 
z
" id="ArialMT-56"/>
      </defs>
      <g style="fill:#262626;" transform="translate(810.75792 692.949531)rotate(-90)scale(0.11 -0.11)">
       <use xlink:href="#ArialMT-80"/>
       <use x="66.699219" xlink:href="#ArialMT-111"/>
       <use x="122.314453" xlink:href="#ArialMT-115"/>
       <use x="172.314453" xlink:href="#ArialMT-105"/>
       <use x="194.53125" xlink:href="#ArialMT-116"/>
       <use x="222.314453" xlink:href="#ArialMT-105"/>
       <use x="244.53125" xlink:href="#ArialMT-111"/>
       <use x="300.146484" xlink:href="#ArialMT-110"/>
       <use x="355.761719" xlink:href="#ArialMT-32"/>
       <use x="383.544922" xlink:href="#ArialMT-48"/>
       <use x="439.160156" xlink:href="#ArialMT-56"/>
       <use x="494.775391" xlink:href="#ArialMT-48"/>
       <use x="550.390625" xlink:href="#ArialMT-48"/>
       <use x="606.005859" xlink:href="#ArialMT-32"/>
       <use x="633.789062" xlink:href="#ArialMT-116"/>
       <use x="661.572266" xlink:href="#ArialMT-111"/>
       <use x="717.1875" xlink:href="#ArialMT-32"/>
       <use x="744.970703" xlink:href="#ArialMT-48"/>
       <use x="800.585938" xlink:href="#ArialMT-54"/>
       <use x="856.201172" xlink:href="#ArialMT-48"/>
       <use x="911.816406" xlink:href="#ArialMT-49"/>
      </g>
     </g>
    </g>
    <g id="xtick_5">
     <g id="line2d_5">
      <path clip-path="url(#p7dba873eb6)" d="M 736.920892 577.04 
L 736.920892 12.96 
" style="fill:none;stroke:#cccccc;stroke-dasharray:3.7,1.6;stroke-dashoffset:0;stroke-opacity:0.5;"/>
     </g>
     <g id="text_5">
      <!-- Position 1000 to 0801 -->
      <g style="fill:#262626;" transform="translate(739.764563 692.949531)rotate(-90)scale(0.11 -0.11)">
       <use xlink:href="#ArialMT-80"/>
       <use x="66.699219" xlink:href="#ArialMT-111"/>
       <use x="122.314453" xlink:href="#ArialMT-115"/>
       <use x="172.314453" xlink:href="#ArialMT-105"/>
       <use x="194.53125" xlink:href="#ArialMT-116"/>
       <use x="222.314453" xlink:href="#ArialMT-105"/>
       <use x="244.53125" xlink:href="#ArialMT-111"/>
       <use x="300.146484" xlink:href="#ArialMT-110"/>
       <use x="355.761719" xlink:href="#ArialMT-32"/>
       <use x="383.544922" xlink:href="#ArialMT-49"/>
       <use x="439.160156" xlink:href="#ArialMT-48"/>
       <use x="494.775391" xlink:href="#ArialMT-48"/>
       <use x="550.390625" xlink:href="#ArialMT-48"/>
       <use x="606.005859" xlink:href="#ArialMT-32"/>
       <use x="633.789062" xlink:href="#ArialMT-116"/>
       <use x="661.572266" xlink:href="#ArialMT-111"/>
       <use x="717.1875" xlink:href="#ArialMT-32"/>
       <use x="744.970703" xlink:href="#ArialMT-48"/>
       <use x="800.585938" xlink:href="#ArialMT-56"/>
       <use x="856.201172" xlink:href="#ArialMT-48"/>
       <use x="911.816406" xlink:href="#ArialMT-49"/>
      </g>
     </g>
    </g>
    <g id="xtick_6">
     <g id="line2d_6">
      <path clip-path="url(#p7dba873eb6)" d="M 665.927535 577.04 
L 665.927535 12.96 
" style="fill:none;stroke:#cccccc;stroke-dasharray:3.7,1.6;stroke-dashoffset:0;stroke-opacity:0.5;"/>
     </g>
     <g id="text_6">
      <!-- Position 1200 to 1001 -->
      <g style="fill:#262626;" transform="translate(668.771207 692.949531)rotate(-90)scale(0.11 -0.11)">
       <use xlink:href="#ArialMT-80"/>
       <use x="66.699219" xlink:href="#ArialMT-111"/>
       <use x="122.314453" xlink:href="#ArialMT-115"/>
       <use x="172.314453" xlink:href="#ArialMT-105"/>
       <use x="194.53125" xlink:href="#ArialMT-116"/>
       <use x="222.314453" xlink:href="#ArialMT-105"/>
       <use x="244.53125" xlink:href="#ArialMT-111"/>
       <use x="300.146484" xlink:href="#ArialMT-110"/>
       <use x="355.761719" xlink:href="#ArialMT-32"/>
       <use x="383.544922" xlink:href="#ArialMT-49"/>
       <use x="439.160156" xlink:href="#ArialMT-50"/>
       <use x="494.775391" xlink:href="#ArialMT-48"/>
       <use x="550.390625" xlink:href="#ArialMT-48"/>
       <use x="606.005859" xlink:href="#ArialMT-32"/>
       <use x="633.789062" xlink:href="#ArialMT-116"/>
       <use x="661.572266" xlink:href="#ArialMT-111"/>
       <use x="717.1875" xlink:href="#ArialMT-32"/>
       <use x="744.970703" xlink:href="#ArialMT-49"/>
       <use x="800.585938" xlink:href="#ArialMT-48"/>
       <use x="856.201172" xlink:href="#ArialMT-48"/>
       <use x="911.816406" xlink:href="#ArialMT-49"/>
      </g>
     </g>
    </g>
    <g id="xtick_7">
     <g id="line2d_7">
      <path clip-path="url(#p7dba873eb6)" d="M 594.934178 577.04 
L 594.934178 12.96 
" style="fill:none;stroke:#cccccc;stroke-dasharray:3.7,1.6;stroke-dashoffset:0;stroke-opacity:0.5;"/>
     </g>
     <g id="text_7">
      <!-- Position 1400 to 1201 -->
      <g style="fill:#262626;" transform="translate(597.77785 692.949531)rotate(-90)scale(0.11 -0.11)">
       <use xlink:href="#ArialMT-80"/>
       <use x="66.699219" xlink:href="#ArialMT-111"/>
       <use x="122.314453" xlink:href="#ArialMT-115"/>
       <use x="172.314453" xlink:href="#ArialMT-105"/>
       <use x="194.53125" xlink:href="#ArialMT-116"/>
       <use x="222.314453" xlink:href="#ArialMT-105"/>
       <use x="244.53125" xlink:href="#ArialMT-111"/>
       <use x="300.146484" xlink:href="#ArialMT-110"/>
       <use x="355.761719" xlink:href="#ArialMT-32"/>
       <use x="383.544922" xlink:href="#ArialMT-49"/>
       <use x="439.160156" xlink:href="#ArialMT-52"/>
       <use x="494.775391" xlink:href="#ArialMT-48"/>
       <use x="550.390625" xlink:href="#ArialMT-48"/>
       <use x="606.005859" xlink:href="#ArialMT-32"/>
       <use x="633.789062" xlink:href="#ArialMT-116"/>
       <use x="661.572266" xlink:href="#ArialMT-111"/>
       <use x="717.1875" xlink:href="#ArialMT-32"/>
       <use x="744.970703" xlink:href="#ArialMT-49"/>
       <use x="800.585938" xlink:href="#ArialMT-50"/>
       <use x="856.201172" xlink:href="#ArialMT-48"/>
       <use x="911.816406" xlink:href="#ArialMT-49"/>
      </g>
     </g>
    </g>
    <g id="xtick_8">
     <g id="line2d_8">
      <path clip-path="url(#p7dba873eb6)" d="M 523.940822 577.04 
L 523.940822 12.96 
" style="fill:none;stroke:#cccccc;stroke-dasharray:3.7,1.6;stroke-dashoffset:0;stroke-opacity:0.5;"/>
     </g>
     <g id="text_8">
      <!-- Position 1600 to 1401 -->
      <g style="fill:#262626;" transform="translate(526.784494 692.949531)rotate(-90)scale(0.11 -0.11)">
       <use xlink:href="#ArialMT-80"/>
       <use x="66.699219" xlink:href="#ArialMT-111"/>
       <use x="122.314453" xlink:href="#ArialMT-115"/>
       <use x="172.314453" xlink:href="#ArialMT-105"/>
       <use x="194.53125" xlink:href="#ArialMT-116"/>
       <use x="222.314453" xlink:href="#ArialMT-105"/>
       <use x="244.53125" xlink:href="#ArialMT-111"/>
       <use x="300.146484" xlink:href="#ArialMT-110"/>
       <use x="355.761719" xlink:href="#ArialMT-32"/>
       <use x="383.544922" xlink:href="#ArialMT-49"/>
       <use x="439.160156" xlink:href="#ArialMT-54"/>
       <use x="494.775391" xlink:href="#ArialMT-48"/>
       <use x="550.390625" xlink:href="#ArialMT-48"/>
       <use x="606.005859" xlink:href="#ArialMT-32"/>
       <use x="633.789062" xlink:href="#ArialMT-116"/>
       <use x="661.572266" xlink:href="#ArialMT-111"/>
       <use x="717.1875" xlink:href="#ArialMT-32"/>
       <use x="744.970703" xlink:href="#ArialMT-49"/>
       <use x="800.585938" xlink:href="#ArialMT-52"/>
       <use x="856.201172" xlink:href="#ArialMT-48"/>
       <use x="911.816406" xlink:href="#ArialMT-49"/>
      </g>
     </g>
    </g>
    <g id="xtick_9">
     <g id="line2d_9">
      <path clip-path="url(#p7dba873eb6)" d="M 452.947465 577.04 
L 452.947465 12.96 
" style="fill:none;stroke:#cccccc;stroke-dasharray:3.7,1.6;stroke-dashoffset:0;stroke-opacity:0.5;"/>
     </g>
     <g id="text_9">
      <!-- Position 1800 to 1601 -->
      <g style="fill:#262626;" transform="translate(455.791137 692.949531)rotate(-90)scale(0.11 -0.11)">
       <use xlink:href="#ArialMT-80"/>
       <use x="66.699219" xlink:href="#ArialMT-111"/>
       <use x="122.314453" xlink:href="#ArialMT-115"/>
       <use x="172.314453" xlink:href="#ArialMT-105"/>
       <use x="194.53125" xlink:href="#ArialMT-116"/>
       <use x="222.314453" xlink:href="#ArialMT-105"/>
       <use x="244.53125" xlink:href="#ArialMT-111"/>
       <use x="300.146484" xlink:href="#ArialMT-110"/>
       <use x="355.761719" xlink:href="#ArialMT-32"/>
       <use x="383.544922" xlink:href="#ArialMT-49"/>
       <use x="439.160156" xlink:href="#ArialMT-56"/>
       <use x="494.775391" xlink:href="#ArialMT-48"/>
       <use x="550.390625" xlink:href="#ArialMT-48"/>
       <use x="606.005859" xlink:href="#ArialMT-32"/>
       <use x="633.789062" xlink:href="#ArialMT-116"/>
       <use x="661.572266" xlink:href="#ArialMT-111"/>
       <use x="717.1875" xlink:href="#ArialMT-32"/>
       <use x="744.970703" xlink:href="#ArialMT-49"/>
       <use x="800.585938" xlink:href="#ArialMT-54"/>
       <use x="856.201172" xlink:href="#ArialMT-48"/>
       <use x="911.816406" xlink:href="#ArialMT-49"/>
      </g>
     </g>
    </g>
    <g id="xtick_10">
     <g id="line2d_10">
      <path clip-path="url(#p7dba873eb6)" d="M 381.954108 577.04 
L 381.954108 12.96 
" style="fill:none;stroke:#cccccc;stroke-dasharray:3.7,1.6;stroke-dashoffset:0;stroke-opacity:0.5;"/>
     </g>
     <g id="text_10">
      <!-- Position 2000 to 1801 -->
      <g style="fill:#262626;" transform="translate(384.79778 692.949531)rotate(-90)scale(0.11 -0.11)">
       <use xlink:href="#ArialMT-80"/>
       <use x="66.699219" xlink:href="#ArialMT-111"/>
       <use x="122.314453" xlink:href="#ArialMT-115"/>
       <use x="172.314453" xlink:href="#ArialMT-105"/>
       <use x="194.53125" xlink:href="#ArialMT-116"/>
       <use x="222.314453" xlink:href="#ArialMT-105"/>
       <use x="244.53125" xlink:href="#ArialMT-111"/>
       <use x="300.146484" xlink:href="#ArialMT-110"/>
       <use x="355.761719" xlink:href="#ArialMT-32"/>
       <use x="383.544922" xlink:href="#ArialMT-50"/>
       <use x="439.160156" xlink:href="#ArialMT-48"/>
       <use x="494.775391" xlink:href="#ArialMT-48"/>
       <use x="550.390625" xlink:href="#ArialMT-48"/>
       <use x="606.005859" xlink:href="#ArialMT-32"/>
       <use x="633.789062" xlink:href="#ArialMT-116"/>
       <use x="661.572266" xlink:href="#ArialMT-111"/>
       <use x="717.1875" xlink:href="#ArialMT-32"/>
       <use x="744.970703" xlink:href="#ArialMT-49"/>
       <use x="800.585938" xlink:href="#ArialMT-56"/>
       <use x="856.201172" xlink:href="#ArialMT-48"/>
       <use x="911.816406" xlink:href="#ArialMT-49"/>
      </g>
     </g>
    </g>
    <g id="xtick_11">
     <g id="line2d_11">
      <path clip-path="url(#p7dba873eb6)" d="M 310.960752 577.04 
L 310.960752 12.96 
" style="fill:none;stroke:#cccccc;stroke-dasharray:3.7,1.6;stroke-dashoffset:0;stroke-opacity:0.5;"/>
     </g>
     <g id="text_11">
      <!-- Position 2200 to 2001 -->
      <g style="fill:#262626;" transform="translate(313.804424 692.949531)rotate(-90)scale(0.11 -0.11)">
       <use xlink:href="#ArialMT-80"/>
       <use x="66.699219" xlink:href="#ArialMT-111"/>
       <use x="122.314453" xlink:href="#ArialMT-115"/>
       <use x="172.314453" xlink:href="#ArialMT-105"/>
       <use x="194.53125" xlink:href="#ArialMT-116"/>
       <use x="222.314453" xlink:href="#ArialMT-105"/>
       <use x="244.53125" xlink:href="#ArialMT-111"/>
       <use x="300.146484" xlink:href="#ArialMT-110"/>
       <use x="355.761719" xlink:href="#ArialMT-32"/>
       <use x="383.544922" xlink:href="#ArialMT-50"/>
       <use x="439.160156" xlink:href="#ArialMT-50"/>
       <use x="494.775391" xlink:href="#ArialMT-48"/>
       <use x="550.390625" xlink:href="#ArialMT-48"/>
       <use x="606.005859" xlink:href="#ArialMT-32"/>
       <use x="633.789062" xlink:href="#ArialMT-116"/>
       <use x="661.572266" xlink:href="#ArialMT-111"/>
       <use x="717.1875" xlink:href="#ArialMT-32"/>
       <use x="744.970703" xlink:href="#ArialMT-50"/>
       <use x="800.585938" xlink:href="#ArialMT-48"/>
       <use x="856.201172" xlink:href="#ArialMT-48"/>
       <use x="911.816406" xlink:href="#ArialMT-49"/>
      </g>
     </g>
    </g>
    <g id="xtick_12">
     <g id="line2d_12">
      <path clip-path="url(#p7dba873eb6)" d="M 239.967395 577.04 
L 239.967395 12.96 
" style="fill:none;stroke:#cccccc;stroke-dasharray:3.7,1.6;stroke-dashoffset:0;stroke-opacity:0.5;"/>
     </g>
     <g id="text_12">
      <!-- Position 2400 to 2201 -->
      <g style="fill:#262626;" transform="translate(242.811067 692.949531)rotate(-90)scale(0.11 -0.11)">
       <use xlink:href="#ArialMT-80"/>
       <use x="66.699219" xlink:href="#ArialMT-111"/>
       <use x="122.314453" xlink:href="#ArialMT-115"/>
       <use x="172.314453" xlink:href="#ArialMT-105"/>
       <use x="194.53125" xlink:href="#ArialMT-116"/>
       <use x="222.314453" xlink:href="#ArialMT-105"/>
       <use x="244.53125" xlink:href="#ArialMT-111"/>
       <use x="300.146484" xlink:href="#ArialMT-110"/>
       <use x="355.761719" xlink:href="#ArialMT-32"/>
       <use x="383.544922" xlink:href="#ArialMT-50"/>
       <use x="439.160156" xlink:href="#ArialMT-52"/>
       <use x="494.775391" xlink:href="#ArialMT-48"/>
       <use x="550.390625" xlink:href="#ArialMT-48"/>
       <use x="606.005859" xlink:href="#ArialMT-32"/>
       <use x="633.789062" xlink:href="#ArialMT-116"/>
       <use x="661.572266" xlink:href="#ArialMT-111"/>
       <use x="717.1875" xlink:href="#ArialMT-32"/>
       <use x="744.970703" xlink:href="#ArialMT-50"/>
       <use x="800.585938" xlink:href="#ArialMT-50"/>
       <use x="856.201172" xlink:href="#ArialMT-48"/>
       <use x="911.816406" xlink:href="#ArialMT-49"/>
      </g>
     </g>
    </g>
    <g id="xtick_13">
     <g id="line2d_13">
      <path clip-path="url(#p7dba873eb6)" d="M 168.974038 577.04 
L 168.974038 12.96 
" style="fill:none;stroke:#cccccc;stroke-dasharray:3.7,1.6;stroke-dashoffset:0;stroke-opacity:0.5;"/>
     </g>
     <g id="text_13">
      <!-- Position 2600 to 2401 -->
      <g style="fill:#262626;" transform="translate(171.81771 692.949531)rotate(-90)scale(0.11 -0.11)">
       <use xlink:href="#ArialMT-80"/>
       <use x="66.699219" xlink:href="#ArialMT-111"/>
       <use x="122.314453" xlink:href="#ArialMT-115"/>
       <use x="172.314453" xlink:href="#ArialMT-105"/>
       <use x="194.53125" xlink:href="#ArialMT-116"/>
       <use x="222.314453" xlink:href="#ArialMT-105"/>
       <use x="244.53125" xlink:href="#ArialMT-111"/>
       <use x="300.146484" xlink:href="#ArialMT-110"/>
       <use x="355.761719" xlink:href="#ArialMT-32"/>
       <use x="383.544922" xlink:href="#ArialMT-50"/>
       <use x="439.160156" xlink:href="#ArialMT-54"/>
       <use x="494.775391" xlink:href="#ArialMT-48"/>
       <use x="550.390625" xlink:href="#ArialMT-48"/>
       <use x="606.005859" xlink:href="#ArialMT-32"/>
       <use x="633.789062" xlink:href="#ArialMT-116"/>
       <use x="661.572266" xlink:href="#ArialMT-111"/>
       <use x="717.1875" xlink:href="#ArialMT-32"/>
       <use x="744.970703" xlink:href="#ArialMT-50"/>
       <use x="800.585938" xlink:href="#ArialMT-52"/>
       <use x="856.201172" xlink:href="#ArialMT-48"/>
       <use x="911.816406" xlink:href="#ArialMT-49"/>
      </g>
     </g>
    </g>
    <g id="xtick_14">
     <g id="line2d_14">
      <path clip-path="url(#p7dba873eb6)" d="M 97.980682 577.04 
L 97.980682 12.96 
" style="fill:none;stroke:#cccccc;stroke-dasharray:3.7,1.6;stroke-dashoffset:0;stroke-opacity:0.5;"/>
     </g>
     <g id="text_14">
      <!-- Position 2800 to 2601 -->
      <g style="fill:#262626;" transform="translate(100.824354 692.949531)rotate(-90)scale(0.11 -0.11)">
       <use xlink:href="#ArialMT-80"/>
       <use x="66.699219" xlink:href="#ArialMT-111"/>
       <use x="122.314453" xlink:href="#ArialMT-115"/>
       <use x="172.314453" xlink:href="#ArialMT-105"/>
       <use x="194.53125" xlink:href="#ArialMT-116"/>
       <use x="222.314453" xlink:href="#ArialMT-105"/>
       <use x="244.53125" xlink:href="#ArialMT-111"/>
       <use x="300.146484" xlink:href="#ArialMT-110"/>
       <use x="355.761719" xlink:href="#ArialMT-32"/>
       <use x="383.544922" xlink:href="#ArialMT-50"/>
       <use x="439.160156" xlink:href="#ArialMT-56"/>
       <use x="494.775391" xlink:href="#ArialMT-48"/>
       <use x="550.390625" xlink:href="#ArialMT-48"/>
       <use x="606.005859" xlink:href="#ArialMT-32"/>
       <use x="633.789062" xlink:href="#ArialMT-116"/>
       <use x="661.572266" xlink:href="#ArialMT-111"/>
       <use x="717.1875" xlink:href="#ArialMT-32"/>
       <use x="744.970703" xlink:href="#ArialMT-50"/>
       <use x="800.585938" xlink:href="#ArialMT-54"/>
       <use x="856.201172" xlink:href="#ArialMT-48"/>
       <use x="911.816406" xlink:href="#ArialMT-49"/>
      </g>
     </g>
    </g>
    <g id="text_15">
     <!-- group -->
     <defs>
      <path d="M 4.984375 -4.296875 
L 13.53125 -5.5625 
Q 14.0625 -9.515625 16.5 -11.328125 
Q 19.78125 -13.765625 25.4375 -13.765625 
Q 31.546875 -13.765625 34.859375 -11.328125 
Q 38.1875 -8.890625 39.359375 -4.5 
Q 40.046875 -1.8125 39.984375 6.78125 
Q 34.234375 0 25.640625 0 
Q 14.9375 0 9.078125 7.71875 
Q 3.21875 15.4375 3.21875 26.21875 
Q 3.21875 33.640625 5.90625 39.90625 
Q 8.59375 46.1875 13.6875 49.609375 
Q 18.796875 53.03125 25.6875 53.03125 
Q 34.859375 53.03125 40.828125 45.609375 
L 40.828125 51.859375 
L 48.921875 51.859375 
L 48.921875 7.03125 
Q 48.921875 -5.078125 46.453125 -10.125 
Q 44 -15.1875 38.640625 -18.109375 
Q 33.296875 -21.046875 25.484375 -21.046875 
Q 16.21875 -21.046875 10.5 -16.875 
Q 4.78125 -12.703125 4.984375 -4.296875 
z
M 12.25 26.859375 
Q 12.25 16.65625 16.296875 11.96875 
Q 20.359375 7.28125 26.46875 7.28125 
Q 32.515625 7.28125 36.609375 11.9375 
Q 40.71875 16.609375 40.71875 26.5625 
Q 40.71875 36.078125 36.5 40.90625 
Q 32.28125 45.75 26.3125 45.75 
Q 20.453125 45.75 16.34375 40.984375 
Q 12.25 36.234375 12.25 26.859375 
z
" id="ArialMT-103"/>
      <path d="M 6.5 0 
L 6.5 51.859375 
L 14.40625 51.859375 
L 14.40625 44 
Q 17.4375 49.515625 20 51.265625 
Q 22.5625 53.03125 25.640625 53.03125 
Q 30.078125 53.03125 34.671875 50.203125 
L 31.640625 42.046875 
Q 28.421875 43.953125 25.203125 43.953125 
Q 22.3125 43.953125 20.015625 42.21875 
Q 17.71875 40.484375 16.75 37.40625 
Q 15.28125 32.71875 15.28125 27.15625 
L 15.28125 0 
z
" id="ArialMT-114"/>
      <path d="M 40.578125 0 
L 40.578125 7.625 
Q 34.515625 -1.171875 24.125 -1.171875 
Q 19.53125 -1.171875 15.546875 0.578125 
Q 11.578125 2.34375 9.640625 5 
Q 7.71875 7.671875 6.9375 11.53125 
Q 6.390625 14.109375 6.390625 19.734375 
L 6.390625 51.859375 
L 15.1875 51.859375 
L 15.1875 23.09375 
Q 15.1875 16.21875 15.71875 13.8125 
Q 16.546875 10.359375 19.234375 8.375 
Q 21.921875 6.390625 25.875 6.390625 
Q 29.828125 6.390625 33.296875 8.421875 
Q 36.765625 10.453125 38.203125 13.9375 
Q 39.65625 17.4375 39.65625 24.078125 
L 39.65625 51.859375 
L 48.4375 51.859375 
L 48.4375 0 
z
" id="ArialMT-117"/>
      <path d="M 6.59375 -19.875 
L 6.59375 51.859375 
L 14.59375 51.859375 
L 14.59375 45.125 
Q 17.4375 49.078125 21 51.046875 
Q 24.5625 53.03125 29.640625 53.03125 
Q 36.28125 53.03125 41.359375 49.609375 
Q 46.4375 46.1875 49.015625 39.953125 
Q 51.609375 33.734375 51.609375 26.3125 
Q 51.609375 18.359375 48.75 11.984375 
Q 45.90625 5.609375 40.453125 2.21875 
Q 35.015625 -1.171875 29 -1.171875 
Q 24.609375 -1.171875 21.109375 0.6875 
Q 17.625 2.546875 15.375 5.375 
L 15.375 -19.875 
z
M 14.546875 25.640625 
Q 14.546875 15.625 18.59375 10.84375 
Q 22.65625 6.0625 28.421875 6.0625 
Q 34.28125 6.0625 38.453125 11.015625 
Q 42.625 15.96875 42.625 26.375 
Q 42.625 36.28125 38.546875 41.203125 
Q 34.46875 46.140625 28.8125 46.140625 
Q 23.1875 46.140625 18.859375 40.890625 
Q 14.546875 35.640625 14.546875 25.640625 
z
" id="ArialMT-112"/>
     </defs>
     <g style="fill:#262626;" transform="translate(544.093438 705.398281)scale(0.12 -0.12)">
      <use xlink:href="#ArialMT-103"/>
      <use x="55.615234" xlink:href="#ArialMT-114"/>
      <use x="88.916016" xlink:href="#ArialMT-111"/>
      <use x="144.53125" xlink:href="#ArialMT-117"/>
      <use x="200.146484" xlink:href="#ArialMT-112"/>
     </g>
    </g>
   </g>
   <g id="matplotlib.axis_2">
    <g id="ytick_1">
     <g id="line2d_15">
      <path clip-path="url(#p7dba873eb6)" d="M 51.835 551.4 
L 1067.04 551.4 
" style="fill:none;stroke:#cccccc;stroke-dasharray:3.7,1.6;stroke-dashoffset:0;stroke-opacity:0.5;"/>
     </g>
     <g id="text_16">
      <!-- 0.0 -->
      <defs>
       <path d="M 9.078125 0 
L 9.078125 10.015625 
L 19.09375 10.015625 
L 19.09375 0 
z
" id="ArialMT-46"/>
      </defs>
      <g style="fill:#262626;" transform="translate(27.045 555.336797)scale(0.11 -0.11)">
       <use xlink:href="#ArialMT-48"/>
       <use x="55.615234" xlink:href="#ArialMT-46"/>
       <use x="83.398438" xlink:href="#ArialMT-48"/>
      </g>
     </g>
    </g>
    <g id="ytick_2">
     <g id="line2d_16">
      <path clip-path="url(#p7dba873eb6)" d="M 51.835 477.524517 
L 1067.04 477.524517 
" style="fill:none;stroke:#cccccc;stroke-dasharray:3.7,1.6;stroke-dashoffset:0;stroke-opacity:0.5;"/>
     </g>
     <g id="text_17">
      <!-- 0.2 -->
      <g style="fill:#262626;" transform="translate(27.045 481.461314)scale(0.11 -0.11)">
       <use xlink:href="#ArialMT-48"/>
       <use x="55.615234" xlink:href="#ArialMT-46"/>
       <use x="83.398438" xlink:href="#ArialMT-50"/>
      </g>
     </g>
    </g>
    <g id="ytick_3">
     <g id="line2d_17">
      <path clip-path="url(#p7dba873eb6)" d="M 51.835 403.649033 
L 1067.04 403.649033 
" style="fill:none;stroke:#cccccc;stroke-dasharray:3.7,1.6;stroke-dashoffset:0;stroke-opacity:0.5;"/>
     </g>
     <g id="text_18">
      <!-- 0.4 -->
      <g style="fill:#262626;" transform="translate(27.045 407.58583)scale(0.11 -0.11)">
       <use xlink:href="#ArialMT-48"/>
       <use x="55.615234" xlink:href="#ArialMT-46"/>
       <use x="83.398438" xlink:href="#ArialMT-52"/>
      </g>
     </g>
    </g>
    <g id="ytick_4">
     <g id="line2d_18">
      <path clip-path="url(#p7dba873eb6)" d="M 51.835 329.77355 
L 1067.04 329.77355 
" style="fill:none;stroke:#cccccc;stroke-dasharray:3.7,1.6;stroke-dashoffset:0;stroke-opacity:0.5;"/>
     </g>
     <g id="text_19">
      <!-- 0.6 -->
      <g style="fill:#262626;" transform="translate(27.045 333.710347)scale(0.11 -0.11)">
       <use xlink:href="#ArialMT-48"/>
       <use x="55.615234" xlink:href="#ArialMT-46"/>
       <use x="83.398438" xlink:href="#ArialMT-54"/>
      </g>
     </g>
    </g>
    <g id="ytick_5">
     <g id="line2d_19">
      <path clip-path="url(#p7dba873eb6)" d="M 51.835 255.898067 
L 1067.04 255.898067 
" style="fill:none;stroke:#cccccc;stroke-dasharray:3.7,1.6;stroke-dashoffset:0;stroke-opacity:0.5;"/>
     </g>
     <g id="text_20">
      <!-- 0.8 -->
      <g style="fill:#262626;" transform="translate(27.045 259.834864)scale(0.11 -0.11)">
       <use xlink:href="#ArialMT-48"/>
       <use x="55.615234" xlink:href="#ArialMT-46"/>
       <use x="83.398438" xlink:href="#ArialMT-56"/>
      </g>
     </g>
    </g>
    <g id="ytick_6">
     <g id="line2d_20">
      <path clip-path="url(#p7dba873eb6)" d="M 51.835 182.022583 
L 1067.04 182.022583 
" style="fill:none;stroke:#cccccc;stroke-dasharray:3.7,1.6;stroke-dashoffset:0;stroke-opacity:0.5;"/>
     </g>
     <g id="text_21">
      <!-- 1.0 -->
      <g style="fill:#262626;" transform="translate(27.045 185.95938)scale(0.11 -0.11)">
       <use xlink:href="#ArialMT-49"/>
       <use x="55.615234" xlink:href="#ArialMT-46"/>
       <use x="83.398438" xlink:href="#ArialMT-48"/>
      </g>
     </g>
    </g>
    <g id="ytick_7">
     <g id="line2d_21">
      <path clip-path="url(#p7dba873eb6)" d="M 51.835 108.1471 
L 1067.04 108.1471 
" style="fill:none;stroke:#cccccc;stroke-dasharray:3.7,1.6;stroke-dashoffset:0;stroke-opacity:0.5;"/>
     </g>
     <g id="text_22">
      <!-- 1.2 -->
      <g style="fill:#262626;" transform="translate(27.045 112.083897)scale(0.11 -0.11)">
       <use xlink:href="#ArialMT-49"/>
       <use x="55.615234" xlink:href="#ArialMT-46"/>
       <use x="83.398438" xlink:href="#ArialMT-50"/>
      </g>
     </g>
    </g>
    <g id="ytick_8">
     <g id="line2d_22">
      <path clip-path="url(#p7dba873eb6)" d="M 51.835 34.271617 
L 1067.04 34.271617 
" style="fill:none;stroke:#cccccc;stroke-dasharray:3.7,1.6;stroke-dashoffset:0;stroke-opacity:0.5;"/>
     </g>
     <g id="text_23">
      <!-- 1.4 -->
      <g style="fill:#262626;" transform="translate(27.045 38.208414)scale(0.11 -0.11)">
       <use xlink:href="#ArialMT-49"/>
       <use x="55.615234" xlink:href="#ArialMT-46"/>
       <use x="83.398438" xlink:href="#ArialMT-52"/>
      </g>
     </g>
    </g>
    <g id="ytick_9">
     <g id="line2d_23">
      <path clip-path="url(#p7dba873eb6)" d="M 51.835 514.462258 
L 1067.04 514.462258 
" style="fill:none;stroke:#cccccc;stroke-dasharray:3.7,1.6;stroke-dashoffset:0;stroke-opacity:0.5;"/>
     </g>
    </g>
    <g id="ytick_10">
     <g id="line2d_24">
      <path clip-path="url(#p7dba873eb6)" d="M 51.835 440.586775 
L 1067.04 440.586775 
" style="fill:none;stroke:#cccccc;stroke-dasharray:3.7,1.6;stroke-dashoffset:0;stroke-opacity:0.5;"/>
     </g>
    </g>
    <g id="ytick_11">
     <g id="line2d_25">
      <path clip-path="url(#p7dba873eb6)" d="M 51.835 366.711292 
L 1067.04 366.711292 
" style="fill:none;stroke:#cccccc;stroke-dasharray:3.7,1.6;stroke-dashoffset:0;stroke-opacity:0.5;"/>
     </g>
    </g>
    <g id="ytick_12">
     <g id="line2d_26">
      <path clip-path="url(#p7dba873eb6)" d="M 51.835 292.835808 
L 1067.04 292.835808 
" style="fill:none;stroke:#cccccc;stroke-dasharray:3.7,1.6;stroke-dashoffset:0;stroke-opacity:0.5;"/>
     </g>
    </g>
    <g id="ytick_13">
     <g id="line2d_27">
      <path clip-path="url(#p7dba873eb6)" d="M 51.835 218.960325 
L 1067.04 218.960325 
" style="fill:none;stroke:#cccccc;stroke-dasharray:3.7,1.6;stroke-dashoffset:0;stroke-opacity:0.5;"/>
     </g>
    </g>
    <g id="ytick_14">
     <g id="line2d_28">
      <path clip-path="url(#p7dba873eb6)" d="M 51.835 145.084842 
L 1067.04 145.084842 
" style="fill:none;stroke:#cccccc;stroke-dasharray:3.7,1.6;stroke-dashoffset:0;stroke-opacity:0.5;"/>
     </g>
    </g>
    <g id="ytick_15">
     <g id="line2d_29">
      <path clip-path="url(#p7dba873eb6)" d="M 51.835 71.209358 
L 1067.04 71.209358 
" style="fill:none;stroke:#cccccc;stroke-dasharray:3.7,1.6;stroke-dashoffset:0;stroke-opacity:0.5;"/>
     </g>
    </g>
    <g id="text_24">
     <!-- mean_efficiency -->
     <defs>
      <path d="M 6.59375 0 
L 6.59375 51.859375 
L 14.453125 51.859375 
L 14.453125 44.578125 
Q 16.890625 48.390625 20.9375 50.703125 
Q 25 53.03125 30.171875 53.03125 
Q 35.9375 53.03125 39.625 50.640625 
Q 43.3125 48.25 44.828125 43.953125 
Q 50.984375 53.03125 60.84375 53.03125 
Q 68.5625 53.03125 72.703125 48.75 
Q 76.859375 44.484375 76.859375 35.59375 
L 76.859375 0 
L 68.109375 0 
L 68.109375 32.671875 
Q 68.109375 37.9375 67.25 40.25 
Q 66.40625 42.578125 64.15625 43.984375 
Q 61.921875 45.40625 58.890625 45.40625 
Q 53.421875 45.40625 49.796875 41.765625 
Q 46.1875 38.140625 46.1875 30.125 
L 46.1875 0 
L 37.40625 0 
L 37.40625 33.6875 
Q 37.40625 39.546875 35.25 42.46875 
Q 33.109375 45.40625 28.21875 45.40625 
Q 24.515625 45.40625 21.359375 43.453125 
Q 18.21875 41.5 16.796875 37.734375 
Q 15.375 33.984375 15.375 26.90625 
L 15.375 0 
z
" id="ArialMT-109"/>
      <path d="M 42.09375 16.703125 
L 51.171875 15.578125 
Q 49.03125 7.625 43.21875 3.21875 
Q 37.40625 -1.171875 28.375 -1.171875 
Q 17 -1.171875 10.328125 5.828125 
Q 3.65625 12.84375 3.65625 25.484375 
Q 3.65625 38.578125 10.390625 45.796875 
Q 17.140625 53.03125 27.875 53.03125 
Q 38.28125 53.03125 44.875 45.953125 
Q 51.46875 38.875 51.46875 26.03125 
Q 51.46875 25.25 51.421875 23.6875 
L 12.75 23.6875 
Q 13.234375 15.140625 17.578125 10.59375 
Q 21.921875 6.0625 28.421875 6.0625 
Q 33.25 6.0625 36.671875 8.59375 
Q 40.09375 11.140625 42.09375 16.703125 
z
M 13.234375 30.90625 
L 42.1875 30.90625 
Q 41.609375 37.453125 38.875 40.71875 
Q 34.671875 45.796875 27.984375 45.796875 
Q 21.921875 45.796875 17.796875 41.75 
Q 13.671875 37.703125 13.234375 30.90625 
z
" id="ArialMT-101"/>
      <path d="M 40.4375 6.390625 
Q 35.546875 2.25 31.03125 0.53125 
Q 26.515625 -1.171875 21.34375 -1.171875 
Q 12.796875 -1.171875 8.203125 3 
Q 3.609375 7.171875 3.609375 13.671875 
Q 3.609375 17.484375 5.34375 20.625 
Q 7.078125 23.78125 9.890625 25.6875 
Q 12.703125 27.59375 16.21875 28.5625 
Q 18.796875 29.25 24.03125 29.890625 
Q 34.671875 31.15625 39.703125 32.90625 
Q 39.75 34.71875 39.75 35.203125 
Q 39.75 40.578125 37.25 42.78125 
Q 33.890625 45.75 27.25 45.75 
Q 21.046875 45.75 18.09375 43.578125 
Q 15.140625 41.40625 13.71875 35.890625 
L 5.125 37.0625 
Q 6.296875 42.578125 8.984375 45.96875 
Q 11.671875 49.359375 16.75 51.1875 
Q 21.828125 53.03125 28.515625 53.03125 
Q 35.15625 53.03125 39.296875 51.46875 
Q 43.453125 49.90625 45.40625 47.53125 
Q 47.359375 45.171875 48.140625 41.546875 
Q 48.578125 39.3125 48.578125 33.453125 
L 48.578125 21.734375 
Q 48.578125 9.46875 49.140625 6.21875 
Q 49.703125 2.984375 51.375 0 
L 42.1875 0 
Q 40.828125 2.734375 40.4375 6.390625 
z
M 39.703125 26.03125 
Q 34.90625 24.078125 25.34375 22.703125 
Q 19.921875 21.921875 17.671875 20.9375 
Q 15.4375 19.96875 14.203125 18.09375 
Q 12.984375 16.21875 12.984375 13.921875 
Q 12.984375 10.40625 15.640625 8.0625 
Q 18.3125 5.71875 23.4375 5.71875 
Q 28.515625 5.71875 32.46875 7.9375 
Q 36.421875 10.15625 38.28125 14.015625 
Q 39.703125 17 39.703125 22.796875 
z
" id="ArialMT-97"/>
      <path d="M -1.515625 -19.875 
L -1.515625 -13.53125 
L 56.734375 -13.53125 
L 56.734375 -19.875 
z
" id="ArialMT-95"/>
      <path d="M 8.6875 0 
L 8.6875 45.015625 
L 0.921875 45.015625 
L 0.921875 51.859375 
L 8.6875 51.859375 
L 8.6875 57.375 
Q 8.6875 62.59375 9.625 65.140625 
Q 10.890625 68.5625 14.078125 70.671875 
Q 17.28125 72.796875 23.046875 72.796875 
Q 26.765625 72.796875 31.25 71.921875 
L 29.9375 64.265625 
Q 27.203125 64.75 24.75 64.75 
Q 20.75 64.75 19.09375 63.03125 
Q 17.4375 61.328125 17.4375 56.640625 
L 17.4375 51.859375 
L 27.546875 51.859375 
L 27.546875 45.015625 
L 17.4375 45.015625 
L 17.4375 0 
z
" id="ArialMT-102"/>
      <path d="M 40.4375 19 
L 49.078125 17.875 
Q 47.65625 8.9375 41.8125 3.875 
Q 35.984375 -1.171875 27.484375 -1.171875 
Q 16.84375 -1.171875 10.375 5.78125 
Q 3.90625 12.75 3.90625 25.734375 
Q 3.90625 34.125 6.6875 40.421875 
Q 9.46875 46.734375 15.15625 49.875 
Q 20.84375 53.03125 27.546875 53.03125 
Q 35.984375 53.03125 41.359375 48.75 
Q 46.734375 44.484375 48.25 36.625 
L 39.703125 35.296875 
Q 38.484375 40.53125 35.375 43.15625 
Q 32.28125 45.796875 27.875 45.796875 
Q 21.234375 45.796875 17.078125 41.03125 
Q 12.9375 36.28125 12.9375 25.984375 
Q 12.9375 15.53125 16.9375 10.796875 
Q 20.953125 6.0625 27.390625 6.0625 
Q 32.5625 6.0625 36.03125 9.234375 
Q 39.5 12.40625 40.4375 19 
z
" id="ArialMT-99"/>
      <path d="M 6.203125 -19.96875 
L 5.21875 -11.71875 
Q 8.109375 -12.5 10.25 -12.5 
Q 13.1875 -12.5 14.9375 -11.515625 
Q 16.703125 -10.546875 17.828125 -8.796875 
Q 18.65625 -7.46875 20.515625 -2.25 
Q 20.75 -1.515625 21.296875 -0.09375 
L 1.609375 51.859375 
L 11.078125 51.859375 
L 21.875 21.828125 
Q 23.96875 16.109375 25.640625 9.8125 
Q 27.15625 15.875 29.25 21.625 
L 40.328125 51.859375 
L 49.125 51.859375 
L 29.390625 -0.875 
Q 26.21875 -9.421875 24.46875 -12.640625 
Q 22.125 -17 19.09375 -19.015625 
Q 16.0625 -21.046875 11.859375 -21.046875 
Q 9.328125 -21.046875 6.203125 -19.96875 
z
" id="ArialMT-121"/>
     </defs>
     <g style="fill:#262626;" transform="translate(20.519375 338.24875)rotate(-90)scale(0.12 -0.12)">
      <use xlink:href="#ArialMT-109"/>
      <use x="83.300781" xlink:href="#ArialMT-101"/>
      <use x="138.916016" xlink:href="#ArialMT-97"/>
      <use x="194.53125" xlink:href="#ArialMT-110"/>
      <use x="250.146484" xlink:href="#ArialMT-95"/>
      <use x="305.761719" xlink:href="#ArialMT-101"/>
      <use x="361.376953" xlink:href="#ArialMT-102"/>
      <use x="387.410156" xlink:href="#ArialMT-102"/>
      <use x="415.193359" xlink:href="#ArialMT-105"/>
      <use x="437.410156" xlink:href="#ArialMT-99"/>
      <use x="487.410156" xlink:href="#ArialMT-105"/>
      <use x="509.626953" xlink:href="#ArialMT-101"/>
      <use x="565.242188" xlink:href="#ArialMT-110"/>
      <use x="620.857422" xlink:href="#ArialMT-99"/>
      <use x="670.857422" xlink:href="#ArialMT-121"/>
     </g>
    </g>
   </g>
   <g id="line2d_30">
    <path clip-path="url(#p7dba873eb6)" d="M 1020.894318 148.375697 
L 949.900962 250.600333 
L 878.907605 323.363995 
L 807.914248 418.567974 
L 736.920892 472.566715 
L 665.927535 515.780393 
L 594.934178 544.928607 
L 523.940822 551.4 
L 452.947465 551.4 
L 381.954108 551.4 
L 310.960752 551.4 
L 239.967395 551.4 
L 168.974038 551.4 
L 97.980682 551.4 
" style="fill:none;stroke:#f77189;stroke-linecap:round;stroke-width:1.5;"/>
   </g>
   <g id="line2d_31">
    <path clip-path="url(#p7dba873eb6)" d="M 1020.894318 102.699221 
L 949.900962 146.738408 
L 878.907605 198.750171 
L 807.914248 291.644276 
L 736.920892 356.006953 
L 665.927535 386.224799 
L 594.934178 427.773437 
L 523.940822 456.608319 
L 452.947465 490.163895 
L 381.954108 517.280024 
L 310.960752 542.361641 
L 239.967395 551.4 
L 168.974038 551.4 
L 97.980682 551.4 
" style="fill:none;stroke:#f7764a;stroke-linecap:round;stroke-width:1.5;"/>
   </g>
   <g id="line2d_32">
    <path clip-path="url(#p7dba873eb6)" d="M 1020.894318 95.165161 
L 949.900962 152.510552 
L 878.907605 187.57041 
L 807.914248 268.058489 
L 736.920892 320.653139 
L 665.927535 354.553973 
L 594.934178 388.053921 
L 523.940822 410.034054 
L 452.947465 441.830486 
L 381.954108 462.646172 
L 310.960752 481.630618 
L 239.967395 503.404737 
L 168.974038 523.640877 
L 97.980682 543.26427 
" style="fill:none;stroke:#d98a32;stroke-linecap:round;stroke-width:1.5;"/>
   </g>
   <g id="line2d_33">
    <path clip-path="url(#p7dba873eb6)" d="M 1020.894318 124.900157 
L 949.900962 147.08037 
L 878.907605 175.154003 
L 807.914248 231.824061 
L 736.920892 256.041082 
L 665.927535 294.156324 
L 594.934178 309.720077 
L 523.940822 340.688087 
L 452.947465 365.09148 
L 381.954108 377.14247 
L 310.960752 391.882641 
L 239.967395 411.481746 
L 168.974038 431.148449 
L 97.980682 439.503799 
" style="fill:none;stroke:#bf9632;stroke-linecap:round;stroke-width:1.5;"/>
   </g>
   <g id="line2d_34">
    <path clip-path="url(#p7dba873eb6)" d="M 1020.894318 52.66993 
L 949.900962 116.021618 
L 878.907605 148.588019 
L 807.914248 225.288216 
L 736.920892 259.396243 
L 665.927535 289.677605 
L 594.934178 322.6588 
L 523.940822 354.779602 
L 452.947465 378.350616 
L 381.954108 399.576574 
L 310.960752 425.590006 
L 239.967395 449.112552 
L 168.974038 460.660192 
L 97.980682 479.966799 
" style="fill:none;stroke:#a99e31;stroke-linecap:round;stroke-width:1.5;"/>
   </g>
   <g id="line2d_35">
    <path clip-path="url(#p7dba873eb6)" d="M 1020.894318 53.833769 
L 949.900962 79.73272 
L 878.907605 145.681218 
L 807.914248 219.884522 
L 736.920892 264.159816 
L 665.927535 301.136137 
L 594.934178 339.930299 
L 523.940822 364.39511 
L 452.947465 400.383895 
L 381.954108 415.059781 
L 310.960752 436.37668 
L 239.967395 460.382825 
L 168.974038 480.236277 
L 97.980682 493.364519 
" style="fill:none;stroke:#90a531;stroke-linecap:round;stroke-width:1.5;"/>
   </g>
   <g id="line2d_36">
    <path clip-path="url(#p7dba873eb6)" d="M 1020.894318 121.219369 
L 949.900962 140.249698 
L 878.907605 186.511347 
L 807.914248 217.142606 
L 736.920892 227.280728 
L 665.927535 250.063471 
L 594.934178 271.126119 
L 523.940822 288.015273 
L 452.947465 306.089003 
L 381.954108 330.521156 
L 310.960752 338.370688 
L 239.967395 346.176513 
L 168.974038 367.710004 
L 97.980682 389.777242 
" style="fill:none;stroke:#68ad31;stroke-linecap:round;stroke-width:1.5;"/>
   </g>
   <g id="line2d_37">
    <path clip-path="url(#p7dba873eb6)" d="M 1020.894318 55.944355 
L 949.900962 93.858524 
L 878.907605 127.617121 
L 807.914248 173.796675 
L 736.920892 228.038168 
L 665.927535 244.836571 
L 594.934178 258.116422 
L 523.940822 306.356046 
L 452.947465 325.55188 
L 381.954108 347.778768 
L 310.960752 365.916266 
L 239.967395 390.732457 
L 168.974038 404.879012 
L 97.980682 419.323473 
" style="fill:none;stroke:#32b25e;stroke-linecap:round;stroke-width:1.5;"/>
   </g>
   <g id="line2d_38">
    <path clip-path="url(#p7dba873eb6)" d="M 1020.894318 64.988384 
L 949.900962 81.815452 
L 878.907605 116.010632 
L 807.914248 170.595722 
L 736.920892 217.923187 
L 665.927535 247.233646 
L 594.934178 262.959261 
L 523.940822 286.526199 
L 452.947465 309.831202 
L 381.954108 344.584317 
L 310.960752 350.714626 
L 239.967395 371.394057 
L 168.974038 385.327971 
L 97.980682 393.781325 
" style="fill:none;stroke:#34af86;stroke-linecap:round;stroke-width:1.5;"/>
   </g>
   <g id="line2d_39">
    <path clip-path="url(#p7dba873eb6)" d="M 1020.894318 65.16118 
L 949.900962 69.843643 
L 878.907605 128.237803 
L 807.914248 188.33965 
L 736.920892 196.791808 
L 665.927535 215.042736 
L 594.934178 243.425847 
L 523.940822 248.55456 
L 452.947465 280.695932 
L 381.954108 311.949477 
L 310.960752 325.727704 
L 239.967395 350.268131 
L 168.974038 344.671615 
L 97.980682 378.198053 
" style="fill:none;stroke:#35ae9c;stroke-linecap:round;stroke-width:1.5;"/>
   </g>
   <g id="line2d_40">
    <path clip-path="url(#p7dba873eb6)" d="M 1020.894318 84.23194 
L 949.900962 70.681486 
L 878.907605 109.876017 
L 807.914248 167.958948 
L 736.920892 195.639059 
L 665.927535 231.541481 
L 594.934178 243.013686 
L 523.940822 281.10755 
L 452.947465 289.869389 
L 381.954108 311.370305 
L 310.960752 324.182308 
L 239.967395 327.697431 
L 168.974038 358.503116 
L 97.980682 372.753684 
" style="fill:none;stroke:#36acac;stroke-linecap:round;stroke-width:1.5;"/>
   </g>
   <g id="line2d_41">
    <path clip-path="url(#p7dba873eb6)" d="M 1020.894318 114.421499 
L 949.900962 128.118993 
L 878.907605 145.259053 
L 807.914248 175.625251 
L 736.920892 214.735127 
L 665.927535 216.812011 
L 594.934178 247.15994 
L 523.940822 251.676403 
L 452.947465 252.095938 
L 381.954108 285.238755 
L 310.960752 291.971371 
L 239.967395 294.328816 
L 168.974038 324.279961 
L 97.980682 334.436815 
" style="fill:none;stroke:#37aabd;stroke-linecap:round;stroke-width:1.5;"/>
   </g>
   <g id="line2d_42">
    <path clip-path="url(#p7dba873eb6)" d="M 1020.894318 103.092977 
L 949.900962 125.395653 
L 878.907605 154.858331 
L 807.914248 207.263045 
L 736.920892 238.364701 
L 665.927535 263.489768 
L 594.934178 305.9535 
L 523.940822 334.571932 
L 452.947465 364.127619 
L 381.954108 388.86922 
L 310.960752 408.450928 
L 239.967395 424.719899 
L 168.974038 450.219473 
L 97.980682 468.792734 
" style="fill:none;stroke:#39a7d4;stroke-linecap:round;stroke-width:1.5;"/>
   </g>
   <g id="line2d_43">
    <path clip-path="url(#p7dba873eb6)" d="M 1020.894318 97.013756 
L 949.900962 113.477997 
L 878.907605 145.210867 
L 807.914248 165.859657 
L 736.920892 215.273252 
L 665.927535 247.739268 
L 594.934178 245.168904 
L 523.940822 295.418679 
L 452.947465 310.520042 
L 381.954108 334.522708 
L 310.960752 343.760154 
L 239.967395 352.928975 
L 168.974038 377.093142 
L 97.980682 380.744739 
" style="fill:none;stroke:#539ff4;stroke-linecap:round;stroke-width:1.5;"/>
   </g>
   <g id="line2d_44">
    <path clip-path="url(#p7dba873eb6)" d="M 1020.894318 51.170295 
L 949.900962 71.251544 
L 878.907605 113.052099 
L 807.914248 175.577612 
L 736.920892 238.346725 
L 665.927535 262.804472 
L 594.934178 298.603518 
L 523.940822 325.549739 
L 452.947465 372.419987 
L 381.954108 390.967141 
L 310.960752 414.931095 
L 239.967395 435.084973 
L 168.974038 448.767081 
L 97.980682 469.679916 
" style="fill:none;stroke:#9890f4;stroke-linecap:round;stroke-width:1.5;"/>
   </g>
   <g id="line2d_45">
    <path clip-path="url(#p7dba873eb6)" d="M 1020.894318 70.031596 
L 949.900962 107.125313 
L 878.907605 111.317242 
L 807.914248 190.113932 
L 736.920892 206.641552 
L 665.927535 233.996068 
L 594.934178 262.931398 
L 523.940822 281.808681 
L 452.947465 317.478393 
L 381.954108 332.477794 
L 310.960752 343.021584 
L 239.967395 373.619706 
L 168.974038 383.339632 
L 97.980682 392.055857 
" style="fill:none;stroke:#c47ef4;stroke-linecap:round;stroke-width:1.5;"/>
   </g>
   <g id="line2d_46">
    <path clip-path="url(#p7dba873eb6)" d="M 1020.894318 81.643227 
L 949.900962 89.356712 
L 878.907605 125.786369 
L 807.914248 186.018947 
L 736.920892 192.511749 
L 665.927535 217.825 
L 594.934178 243.065327 
L 523.940822 259.174491 
L 452.947465 290.808906 
L 381.954108 305.720748 
L 310.960752 329.483235 
L 239.967395 344.599696 
L 168.974038 354.406451 
L 97.980682 366.332489 
" style="fill:none;stroke:#ef5ff4;stroke-linecap:round;stroke-width:1.5;"/>
   </g>
   <g id="line2d_47">
    <path clip-path="url(#p7dba873eb6)" d="M 1020.894318 38.6 
L 949.900962 76.755297 
L 878.907605 104.605204 
L 807.914248 164.180725 
L 736.920892 215.5887 
L 665.927535 243.876579 
L 594.934178 258.227384 
L 523.940822 274.570885 
L 452.947465 303.000591 
L 381.954108 320.637589 
L 310.960752 352.170104 
L 239.967395 359.355873 
L 168.974038 385.730423 
L 97.980682 396.695147 
" style="fill:none;stroke:#f565d0;stroke-linecap:round;stroke-width:1.5;"/>
   </g>
   <g id="line2d_48">
    <path clip-path="url(#p7dba873eb6)" d="M 1020.894318 46.507041 
L 949.900962 77.940659 
L 878.907605 110.222107 
L 807.914248 166.808092 
L 736.920892 193.926839 
L 665.927535 234.06332 
L 594.934178 275.549063 
L 523.940822 305.699126 
L 452.947465 325.014706 
L 381.954108 332.115972 
L 310.960752 363.601993 
L 239.967395 390.71193 
L 168.974038 402.280826 
L 97.980682 420.684245 
" style="fill:none;stroke:#f66baf;stroke-linecap:round;stroke-width:1.5;"/>
   </g>
   <g id="line2d_49"/>
   <g id="line2d_50"/>
   <g id="line2d_51"/>
   <g id="line2d_52"/>
   <g id="line2d_53"/>
   <g id="line2d_54"/>
   <g id="line2d_55"/>
   <g id="line2d_56"/>
   <g id="line2d_57"/>
   <g id="line2d_58"/>
   <g id="line2d_59"/>
   <g id="line2d_60"/>
   <g id="line2d_61"/>
   <g id="line2d_62"/>
   <g id="line2d_63"/>
   <g id="line2d_64"/>
   <g id="line2d_65"/>
   <g id="line2d_66"/>
   <g id="line2d_67"/>
   <g id="patch_3">
    <path d="M 51.835 577.04 
L 51.835 12.96 
" style="fill:none;stroke:#262626;stroke-linecap:square;stroke-linejoin:miter;stroke-width:1.25;"/>
   </g>
   <g id="patch_4">
    <path d="M 1067.04 577.04 
L 1067.04 12.96 
" style="fill:none;stroke:#262626;stroke-linecap:square;stroke-linejoin:miter;stroke-width:1.25;"/>
   </g>
   <g id="patch_5">
    <path d="M 51.835 577.04 
L 1067.04 577.04 
" style="fill:none;stroke:#262626;stroke-linecap:square;stroke-linejoin:miter;stroke-width:1.25;"/>
   </g>
   <g id="patch_6">
    <path d="M 51.835 12.96 
L 1067.04 12.96 
" style="fill:none;stroke:#262626;stroke-linecap:square;stroke-linejoin:miter;stroke-width:1.25;"/>
   </g>
   <g id="legend_1">
    <g id="patch_7">
     <path d="M 912.251094 571.54 
L 1059.34 571.54 
Q 1061.54 571.54 1061.54 569.34 
L 1061.54 256.611563 
Q 1061.54 254.411563 1059.34 254.411563 
L 912.251094 254.411563 
Q 910.051094 254.411563 910.051094 256.611563 
L 910.051094 569.34 
Q 910.051094 571.54 912.251094 571.54 
z
" style="fill:#ffffff;opacity:0.8;stroke:#cccccc;stroke-linejoin:miter;"/>
    </g>
    <g id="text_25">
     <!-- season -->
     <g style="fill:#262626;" transform="translate(966.449297 267.400938)scale(0.12 -0.12)">
      <use xlink:href="#ArialMT-115"/>
      <use x="50" xlink:href="#ArialMT-101"/>
      <use x="105.615234" xlink:href="#ArialMT-97"/>
      <use x="161.230469" xlink:href="#ArialMT-115"/>
      <use x="211.230469" xlink:href="#ArialMT-111"/>
      <use x="266.845703" xlink:href="#ArialMT-110"/>
     </g>
    </g>
    <g id="line2d_68">
     <path d="M 914.451094 279.443594 
L 936.451094 279.443594 
" style="fill:none;stroke:#f77189;stroke-linecap:round;stroke-width:1.5;"/>
    </g>
    <g id="line2d_69"/>
    <g id="text_26">
     <!-- M2_01 Wolf 2020 -->
     <defs>
      <path d="M 7.421875 0 
L 7.421875 71.578125 
L 21.6875 71.578125 
L 38.625 20.90625 
Q 40.96875 13.8125 42.046875 10.296875 
Q 43.265625 14.203125 45.84375 21.78125 
L 62.984375 71.578125 
L 75.734375 71.578125 
L 75.734375 0 
L 66.609375 0 
L 66.609375 59.90625 
L 45.796875 0 
L 37.25 0 
L 16.546875 60.9375 
L 16.546875 0 
z
" id="ArialMT-77"/>
      <path d="M 20.21875 0 
L 1.21875 71.578125 
L 10.9375 71.578125 
L 21.828125 24.65625 
Q 23.578125 17.28125 24.859375 10.015625 
Q 27.59375 21.484375 28.078125 23.25 
L 41.703125 71.578125 
L 53.125 71.578125 
L 63.375 35.359375 
Q 67.234375 21.875 68.953125 10.015625 
Q 70.3125 16.796875 72.515625 25.59375 
L 83.734375 71.578125 
L 93.265625 71.578125 
L 73.640625 0 
L 64.5 0 
L 49.421875 54.546875 
Q 47.515625 61.375 47.171875 62.9375 
Q 46.046875 58.015625 45.0625 54.546875 
L 29.890625 0 
z
" id="ArialMT-87"/>
      <path d="M 6.390625 0 
L 6.390625 71.578125 
L 15.1875 71.578125 
L 15.1875 0 
z
" id="ArialMT-108"/>
     </defs>
     <g style="fill:#262626;" transform="translate(945.251094 283.293594)scale(0.11 -0.11)">
      <use xlink:href="#ArialMT-77"/>
      <use x="83.300781" xlink:href="#ArialMT-50"/>
      <use x="138.916016" xlink:href="#ArialMT-95"/>
      <use x="194.53125" xlink:href="#ArialMT-48"/>
      <use x="250.146484" xlink:href="#ArialMT-49"/>
      <use x="305.761719" xlink:href="#ArialMT-32"/>
      <use x="333.544922" xlink:href="#ArialMT-87"/>
      <use x="426.179688" xlink:href="#ArialMT-111"/>
      <use x="481.794922" xlink:href="#ArialMT-108"/>
      <use x="504.011719" xlink:href="#ArialMT-102"/>
      <use x="531.794922" xlink:href="#ArialMT-32"/>
      <use x="559.578125" xlink:href="#ArialMT-50"/>
      <use x="615.193359" xlink:href="#ArialMT-48"/>
      <use x="670.808594" xlink:href="#ArialMT-50"/>
      <use x="726.423828" xlink:href="#ArialMT-48"/>
     </g>
    </g>
    <g id="line2d_70">
     <path d="M 914.451094 295.036094 
L 936.451094 295.036094 
" style="fill:none;stroke:#f7764a;stroke-linecap:round;stroke-width:1.5;"/>
    </g>
    <g id="line2d_71"/>
    <g id="text_27">
     <!-- M2_02 Love 2020 -->
     <defs>
      <path d="M 7.328125 0 
L 7.328125 71.578125 
L 16.796875 71.578125 
L 16.796875 8.453125 
L 52.046875 8.453125 
L 52.046875 0 
z
" id="ArialMT-76"/>
      <path d="M 21 0 
L 1.265625 51.859375 
L 10.546875 51.859375 
L 21.6875 20.796875 
Q 23.484375 15.765625 25 10.359375 
Q 26.171875 14.453125 28.265625 20.21875 
L 39.796875 51.859375 
L 48.828125 51.859375 
L 29.203125 0 
z
" id="ArialMT-118"/>
     </defs>
     <g style="fill:#262626;" transform="translate(945.251094 298.886094)scale(0.11 -0.11)">
      <use xlink:href="#ArialMT-77"/>
      <use x="83.300781" xlink:href="#ArialMT-50"/>
      <use x="138.916016" xlink:href="#ArialMT-95"/>
      <use x="194.53125" xlink:href="#ArialMT-48"/>
      <use x="250.146484" xlink:href="#ArialMT-50"/>
      <use x="305.761719" xlink:href="#ArialMT-32"/>
      <use x="333.544922" xlink:href="#ArialMT-76"/>
      <use x="389.160156" xlink:href="#ArialMT-111"/>
      <use x="444.775391" xlink:href="#ArialMT-118"/>
      <use x="494.775391" xlink:href="#ArialMT-101"/>
      <use x="550.390625" xlink:href="#ArialMT-32"/>
      <use x="578.173828" xlink:href="#ArialMT-50"/>
      <use x="633.789062" xlink:href="#ArialMT-48"/>
      <use x="689.404297" xlink:href="#ArialMT-50"/>
      <use x="745.019531" xlink:href="#ArialMT-48"/>
     </g>
    </g>
    <g id="line2d_72">
     <path d="M 914.451094 310.628594 
L 936.451094 310.628594 
" style="fill:none;stroke:#d98a32;stroke-linecap:round;stroke-width:1.5;"/>
    </g>
    <g id="line2d_73"/>
    <g id="text_28">
     <!-- M2_03 Bear 2020 -->
     <defs>
      <path d="M 4.203125 18.890625 
L 12.984375 20.0625 
Q 14.5 12.59375 18.140625 9.296875 
Q 21.78125 6 27 6 
Q 33.203125 6 37.46875 10.296875 
Q 41.75 14.59375 41.75 20.953125 
Q 41.75 27 37.796875 30.921875 
Q 33.84375 34.859375 27.734375 34.859375 
Q 25.25 34.859375 21.53125 33.890625 
L 22.515625 41.609375 
Q 23.390625 41.5 23.921875 41.5 
Q 29.546875 41.5 34.03125 44.421875 
Q 38.53125 47.359375 38.53125 53.46875 
Q 38.53125 58.296875 35.25 61.46875 
Q 31.984375 64.65625 26.8125 64.65625 
Q 21.6875 64.65625 18.265625 61.421875 
Q 14.84375 58.203125 13.875 51.765625 
L 5.078125 53.328125 
Q 6.6875 62.15625 12.390625 67.015625 
Q 18.109375 71.875 26.609375 71.875 
Q 32.46875 71.875 37.390625 69.359375 
Q 42.328125 66.84375 44.9375 62.5 
Q 47.5625 58.15625 47.5625 53.265625 
Q 47.5625 48.640625 45.0625 44.828125 
Q 42.578125 41.015625 37.703125 38.765625 
Q 44.046875 37.3125 47.5625 32.6875 
Q 51.078125 28.078125 51.078125 21.140625 
Q 51.078125 11.765625 44.234375 5.25 
Q 37.40625 -1.265625 26.953125 -1.265625 
Q 17.53125 -1.265625 11.296875 4.34375 
Q 5.078125 9.96875 4.203125 18.890625 
z
" id="ArialMT-51"/>
      <path d="M 7.328125 0 
L 7.328125 71.578125 
L 34.1875 71.578125 
Q 42.390625 71.578125 47.34375 69.40625 
Q 52.296875 67.234375 55.09375 62.71875 
Q 57.90625 58.203125 57.90625 53.265625 
Q 57.90625 48.6875 55.421875 44.625 
Q 52.9375 40.578125 47.90625 38.09375 
Q 54.390625 36.1875 57.875 31.59375 
Q 61.375 27 61.375 20.75 
Q 61.375 15.71875 59.25 11.390625 
Q 57.125 7.078125 54 4.734375 
Q 50.875 2.390625 46.15625 1.1875 
Q 41.453125 0 34.625 0 
z
M 16.796875 41.5 
L 32.28125 41.5 
Q 38.578125 41.5 41.3125 42.328125 
Q 44.921875 43.40625 46.75 45.890625 
Q 48.578125 48.390625 48.578125 52.15625 
Q 48.578125 55.71875 46.875 58.421875 
Q 45.171875 61.140625 41.984375 62.140625 
Q 38.8125 63.140625 31.109375 63.140625 
L 16.796875 63.140625 
z
M 16.796875 8.453125 
L 34.625 8.453125 
Q 39.203125 8.453125 41.0625 8.796875 
Q 44.34375 9.375 46.53125 10.734375 
Q 48.734375 12.109375 50.140625 14.71875 
Q 51.5625 17.328125 51.5625 20.75 
Q 51.5625 24.75 49.515625 27.703125 
Q 47.46875 30.671875 43.828125 31.859375 
Q 40.1875 33.0625 33.34375 33.0625 
L 16.796875 33.0625 
z
" id="ArialMT-66"/>
     </defs>
     <g style="fill:#262626;" transform="translate(945.251094 314.478594)scale(0.11 -0.11)">
      <use xlink:href="#ArialMT-77"/>
      <use x="83.300781" xlink:href="#ArialMT-50"/>
      <use x="138.916016" xlink:href="#ArialMT-95"/>
      <use x="194.53125" xlink:href="#ArialMT-48"/>
      <use x="250.146484" xlink:href="#ArialMT-51"/>
      <use x="305.761719" xlink:href="#ArialMT-32"/>
      <use x="333.544922" xlink:href="#ArialMT-66"/>
      <use x="400.244141" xlink:href="#ArialMT-101"/>
      <use x="455.859375" xlink:href="#ArialMT-97"/>
      <use x="511.474609" xlink:href="#ArialMT-114"/>
      <use x="544.775391" xlink:href="#ArialMT-32"/>
      <use x="572.558594" xlink:href="#ArialMT-50"/>
      <use x="628.173828" xlink:href="#ArialMT-48"/>
      <use x="683.789062" xlink:href="#ArialMT-50"/>
      <use x="739.404297" xlink:href="#ArialMT-48"/>
     </g>
    </g>
    <g id="line2d_74">
     <path d="M 914.451094 326.3225 
L 936.451094 326.3225 
" style="fill:none;stroke:#bf9632;stroke-linecap:round;stroke-width:1.5;"/>
    </g>
    <g id="line2d_75"/>
    <g id="text_29">
     <!-- M2_04 Elf 2020 -->
     <defs>
      <path d="M 7.90625 0 
L 7.90625 71.578125 
L 59.671875 71.578125 
L 59.671875 63.140625 
L 17.390625 63.140625 
L 17.390625 41.21875 
L 56.984375 41.21875 
L 56.984375 32.8125 
L 17.390625 32.8125 
L 17.390625 8.453125 
L 61.328125 8.453125 
L 61.328125 0 
z
" id="ArialMT-69"/>
     </defs>
     <g style="fill:#262626;" transform="translate(945.251094 330.1725)scale(0.11 -0.11)">
      <use xlink:href="#ArialMT-77"/>
      <use x="83.300781" xlink:href="#ArialMT-50"/>
      <use x="138.916016" xlink:href="#ArialMT-95"/>
      <use x="194.53125" xlink:href="#ArialMT-48"/>
      <use x="250.146484" xlink:href="#ArialMT-52"/>
      <use x="305.761719" xlink:href="#ArialMT-32"/>
      <use x="333.544922" xlink:href="#ArialMT-69"/>
      <use x="400.244141" xlink:href="#ArialMT-108"/>
      <use x="422.460938" xlink:href="#ArialMT-102"/>
      <use x="450.244141" xlink:href="#ArialMT-32"/>
      <use x="478.027344" xlink:href="#ArialMT-50"/>
      <use x="533.642578" xlink:href="#ArialMT-48"/>
      <use x="589.257812" xlink:href="#ArialMT-50"/>
      <use x="644.873047" xlink:href="#ArialMT-48"/>
     </g>
    </g>
    <g id="line2d_76">
     <path d="M 914.451094 341.915 
L 936.451094 341.915 
" style="fill:none;stroke:#a99e31;stroke-linecap:round;stroke-width:1.5;"/>
    </g>
    <g id="line2d_77"/>
    <g id="text_30">
     <!-- M2_05 Viper 2020 -->
     <defs>
      <path d="M 4.15625 18.75 
L 13.375 19.53125 
Q 14.40625 12.796875 18.140625 9.390625 
Q 21.875 6 27.15625 6 
Q 33.5 6 37.890625 10.78125 
Q 42.28125 15.578125 42.28125 23.484375 
Q 42.28125 31 38.0625 35.34375 
Q 33.84375 39.703125 27 39.703125 
Q 22.75 39.703125 19.328125 37.765625 
Q 15.921875 35.84375 13.96875 32.765625 
L 5.71875 33.84375 
L 12.640625 70.609375 
L 48.25 70.609375 
L 48.25 62.203125 
L 19.671875 62.203125 
L 15.828125 42.96875 
Q 22.265625 47.46875 29.34375 47.46875 
Q 38.71875 47.46875 45.15625 40.96875 
Q 51.609375 34.46875 51.609375 24.265625 
Q 51.609375 14.546875 45.953125 7.46875 
Q 39.0625 -1.21875 27.15625 -1.21875 
Q 17.390625 -1.21875 11.203125 4.25 
Q 5.03125 9.71875 4.15625 18.75 
z
" id="ArialMT-53"/>
      <path d="M 28.171875 0 
L 0.4375 71.578125 
L 10.6875 71.578125 
L 29.296875 19.578125 
Q 31.546875 13.328125 33.0625 7.859375 
Q 34.71875 13.71875 36.921875 19.578125 
L 56.25 71.578125 
L 65.921875 71.578125 
L 37.890625 0 
z
" id="ArialMT-86"/>
     </defs>
     <g style="fill:#262626;" transform="translate(945.251094 345.765)scale(0.11 -0.11)">
      <use xlink:href="#ArialMT-77"/>
      <use x="83.300781" xlink:href="#ArialMT-50"/>
      <use x="138.916016" xlink:href="#ArialMT-95"/>
      <use x="194.53125" xlink:href="#ArialMT-48"/>
      <use x="250.146484" xlink:href="#ArialMT-53"/>
      <use x="305.761719" xlink:href="#ArialMT-32"/>
      <use x="333.544922" xlink:href="#ArialMT-86"/>
      <use x="398.494141" xlink:href="#ArialMT-105"/>
      <use x="420.710938" xlink:href="#ArialMT-112"/>
      <use x="476.326172" xlink:href="#ArialMT-101"/>
      <use x="531.941406" xlink:href="#ArialMT-114"/>
      <use x="565.242188" xlink:href="#ArialMT-32"/>
      <use x="593.025391" xlink:href="#ArialMT-50"/>
      <use x="648.640625" xlink:href="#ArialMT-48"/>
      <use x="704.255859" xlink:href="#ArialMT-50"/>
      <use x="759.871094" xlink:href="#ArialMT-48"/>
     </g>
    </g>
    <g id="line2d_78">
     <path d="M 914.451094 357.5075 
L 936.451094 357.5075 
" style="fill:none;stroke:#90a531;stroke-linecap:round;stroke-width:1.5;"/>
    </g>
    <g id="line2d_79"/>
    <g id="text_31">
     <!-- M2_06 Magic 2020 -->
     <g style="fill:#262626;" transform="translate(945.251094 361.3575)scale(0.11 -0.11)">
      <use xlink:href="#ArialMT-77"/>
      <use x="83.300781" xlink:href="#ArialMT-50"/>
      <use x="138.916016" xlink:href="#ArialMT-95"/>
      <use x="194.53125" xlink:href="#ArialMT-48"/>
      <use x="250.146484" xlink:href="#ArialMT-54"/>
      <use x="305.761719" xlink:href="#ArialMT-32"/>
      <use x="333.544922" xlink:href="#ArialMT-77"/>
      <use x="416.845703" xlink:href="#ArialMT-97"/>
      <use x="472.460938" xlink:href="#ArialMT-103"/>
      <use x="528.076172" xlink:href="#ArialMT-105"/>
      <use x="550.292969" xlink:href="#ArialMT-99"/>
      <use x="600.292969" xlink:href="#ArialMT-32"/>
      <use x="628.076172" xlink:href="#ArialMT-50"/>
      <use x="683.691406" xlink:href="#ArialMT-48"/>
      <use x="739.306641" xlink:href="#ArialMT-50"/>
      <use x="794.921875" xlink:href="#ArialMT-48"/>
     </g>
    </g>
    <g id="line2d_80">
     <path d="M 914.451094 373.330313 
L 936.451094 373.330313 
" style="fill:none;stroke:#68ad31;stroke-linecap:round;stroke-width:1.5;"/>
    </g>
    <g id="line2d_81"/>
    <g id="text_32">
     <!-- M2_07 Griffin 2020 -->
     <defs>
      <path d="M 4.734375 62.203125 
L 4.734375 70.65625 
L 51.078125 70.65625 
L 51.078125 63.8125 
Q 44.234375 56.546875 37.515625 44.484375 
Q 30.8125 32.421875 27.15625 19.671875 
Q 24.515625 10.6875 23.78125 0 
L 14.75 0 
Q 14.890625 8.453125 18.0625 20.40625 
Q 21.234375 32.375 27.171875 43.484375 
Q 33.109375 54.59375 39.796875 62.203125 
z
" id="ArialMT-55"/>
      <path d="M 41.21875 28.078125 
L 41.21875 36.46875 
L 71.53125 36.53125 
L 71.53125 9.96875 
Q 64.546875 4.390625 57.125 1.578125 
Q 49.703125 -1.21875 41.890625 -1.21875 
Q 31.34375 -1.21875 22.71875 3.296875 
Q 14.109375 7.8125 9.71875 16.359375 
Q 5.328125 24.90625 5.328125 35.453125 
Q 5.328125 45.90625 9.6875 54.953125 
Q 14.0625 64.015625 22.265625 68.40625 
Q 30.46875 72.796875 41.15625 72.796875 
Q 48.921875 72.796875 55.1875 70.28125 
Q 61.46875 67.78125 65.03125 63.28125 
Q 68.609375 58.796875 70.453125 51.5625 
L 61.921875 49.21875 
Q 60.296875 54.6875 57.90625 57.8125 
Q 55.515625 60.9375 51.0625 62.8125 
Q 46.625 64.703125 41.21875 64.703125 
Q 34.71875 64.703125 29.984375 62.71875 
Q 25.25 60.75 22.34375 57.515625 
Q 19.4375 54.296875 17.828125 50.4375 
Q 15.09375 43.796875 15.09375 36.03125 
Q 15.09375 26.46875 18.390625 20.015625 
Q 21.6875 13.578125 27.984375 10.453125 
Q 34.28125 7.328125 41.359375 7.328125 
Q 47.515625 7.328125 53.375 9.6875 
Q 59.234375 12.0625 62.25 14.75 
L 62.25 28.078125 
z
" id="ArialMT-71"/>
     </defs>
     <g style="fill:#262626;" transform="translate(945.251094 377.180313)scale(0.11 -0.11)">
      <use xlink:href="#ArialMT-77"/>
      <use x="83.300781" xlink:href="#ArialMT-50"/>
      <use x="138.916016" xlink:href="#ArialMT-95"/>
      <use x="194.53125" xlink:href="#ArialMT-48"/>
      <use x="250.146484" xlink:href="#ArialMT-55"/>
      <use x="305.761719" xlink:href="#ArialMT-32"/>
      <use x="333.544922" xlink:href="#ArialMT-71"/>
      <use x="411.328125" xlink:href="#ArialMT-114"/>
      <use x="444.628906" xlink:href="#ArialMT-105"/>
      <use x="466.845703" xlink:href="#ArialMT-102"/>
      <use x="492.878906" xlink:href="#ArialMT-102"/>
      <use x="520.662109" xlink:href="#ArialMT-105"/>
      <use x="542.878906" xlink:href="#ArialMT-110"/>
      <use x="598.494141" xlink:href="#ArialMT-32"/>
      <use x="626.277344" xlink:href="#ArialMT-50"/>
      <use x="681.892578" xlink:href="#ArialMT-48"/>
      <use x="737.507812" xlink:href="#ArialMT-50"/>
      <use x="793.123047" xlink:href="#ArialMT-48"/>
     </g>
    </g>
    <g id="line2d_82">
     <path d="M 914.451094 388.922813 
L 936.451094 388.922813 
" style="fill:none;stroke:#32b25e;stroke-linecap:round;stroke-width:1.5;"/>
    </g>
    <g id="line2d_83"/>
    <g id="text_33">
     <!-- M2_08 Draconid 2020 -->
     <defs>
      <path d="M 7.71875 0 
L 7.71875 71.578125 
L 32.375 71.578125 
Q 40.71875 71.578125 45.125 70.5625 
Q 51.265625 69.140625 55.609375 65.4375 
Q 61.28125 60.640625 64.078125 53.1875 
Q 66.890625 45.75 66.890625 36.1875 
Q 66.890625 28.03125 64.984375 21.734375 
Q 63.09375 15.4375 60.109375 11.296875 
Q 57.125 7.171875 53.578125 4.796875 
Q 50.046875 2.4375 45.046875 1.21875 
Q 40.046875 0 33.546875 0 
z
M 17.1875 8.453125 
L 32.46875 8.453125 
Q 39.546875 8.453125 43.578125 9.765625 
Q 47.609375 11.078125 50 13.484375 
Q 53.375 16.84375 55.25 22.53125 
Q 57.125 28.21875 57.125 36.328125 
Q 57.125 47.5625 53.4375 53.59375 
Q 49.75 59.625 44.484375 61.671875 
Q 40.671875 63.140625 32.234375 63.140625 
L 17.1875 63.140625 
z
" id="ArialMT-68"/>
      <path d="M 40.234375 0 
L 40.234375 6.546875 
Q 35.296875 -1.171875 25.734375 -1.171875 
Q 19.53125 -1.171875 14.328125 2.25 
Q 9.125 5.671875 6.265625 11.796875 
Q 3.421875 17.921875 3.421875 25.875 
Q 3.421875 33.640625 6 39.96875 
Q 8.59375 46.296875 13.765625 49.65625 
Q 18.953125 53.03125 25.34375 53.03125 
Q 30.03125 53.03125 33.6875 51.046875 
Q 37.359375 49.078125 39.65625 45.90625 
L 39.65625 71.578125 
L 48.390625 71.578125 
L 48.390625 0 
z
M 12.453125 25.875 
Q 12.453125 15.921875 16.640625 10.984375 
Q 20.84375 6.0625 26.5625 6.0625 
Q 32.328125 6.0625 36.34375 10.765625 
Q 40.375 15.484375 40.375 25.140625 
Q 40.375 35.796875 36.265625 40.765625 
Q 32.171875 45.75 26.171875 45.75 
Q 20.3125 45.75 16.375 40.96875 
Q 12.453125 36.1875 12.453125 25.875 
z
" id="ArialMT-100"/>
     </defs>
     <g style="fill:#262626;" transform="translate(945.251094 392.772813)scale(0.11 -0.11)">
      <use xlink:href="#ArialMT-77"/>
      <use x="83.300781" xlink:href="#ArialMT-50"/>
      <use x="138.916016" xlink:href="#ArialMT-95"/>
      <use x="194.53125" xlink:href="#ArialMT-48"/>
      <use x="250.146484" xlink:href="#ArialMT-56"/>
      <use x="305.761719" xlink:href="#ArialMT-32"/>
      <use x="333.544922" xlink:href="#ArialMT-68"/>
      <use x="405.761719" xlink:href="#ArialMT-114"/>
      <use x="439.0625" xlink:href="#ArialMT-97"/>
      <use x="494.677734" xlink:href="#ArialMT-99"/>
      <use x="544.677734" xlink:href="#ArialMT-111"/>
      <use x="600.292969" xlink:href="#ArialMT-110"/>
      <use x="655.908203" xlink:href="#ArialMT-105"/>
      <use x="678.125" xlink:href="#ArialMT-100"/>
      <use x="733.740234" xlink:href="#ArialMT-32"/>
      <use x="761.523438" xlink:href="#ArialMT-50"/>
      <use x="817.138672" xlink:href="#ArialMT-48"/>
      <use x="872.753906" xlink:href="#ArialMT-50"/>
      <use x="928.369141" xlink:href="#ArialMT-48"/>
     </g>
    </g>
    <g id="line2d_84">
     <path d="M 914.451094 404.515313 
L 936.451094 404.515313 
" style="fill:none;stroke:#34af86;stroke-linecap:round;stroke-width:1.5;"/>
    </g>
    <g id="line2d_85"/>
    <g id="text_34">
     <!-- M2_09 Dryad 2020 -->
     <defs>
      <path d="M 5.46875 16.546875 
L 13.921875 17.328125 
Q 14.984375 11.375 18.015625 8.6875 
Q 21.046875 6 25.78125 6 
Q 29.828125 6 32.875 7.859375 
Q 35.9375 9.71875 37.890625 12.8125 
Q 39.84375 15.921875 41.15625 21.1875 
Q 42.484375 26.46875 42.484375 31.9375 
Q 42.484375 32.515625 42.4375 33.6875 
Q 39.796875 29.5 35.234375 26.875 
Q 30.671875 24.265625 25.34375 24.265625 
Q 16.453125 24.265625 10.296875 30.703125 
Q 4.15625 37.15625 4.15625 47.703125 
Q 4.15625 58.59375 10.578125 65.234375 
Q 17 71.875 26.65625 71.875 
Q 33.640625 71.875 39.421875 68.109375 
Q 45.21875 64.359375 48.21875 57.390625 
Q 51.21875 50.4375 51.21875 37.25 
Q 51.21875 23.53125 48.234375 15.40625 
Q 45.265625 7.28125 39.375 3.03125 
Q 33.5 -1.21875 25.59375 -1.21875 
Q 17.1875 -1.21875 11.859375 3.4375 
Q 6.546875 8.109375 5.46875 16.546875 
z
M 41.453125 48.140625 
Q 41.453125 55.71875 37.421875 60.15625 
Q 33.40625 64.59375 27.734375 64.59375 
Q 21.875 64.59375 17.53125 59.8125 
Q 13.1875 55.03125 13.1875 47.40625 
Q 13.1875 40.578125 17.3125 36.296875 
Q 21.4375 32.03125 27.484375 32.03125 
Q 33.59375 32.03125 37.515625 36.296875 
Q 41.453125 40.578125 41.453125 48.140625 
z
" id="ArialMT-57"/>
     </defs>
     <g style="fill:#262626;" transform="translate(945.251094 408.365313)scale(0.11 -0.11)">
      <use xlink:href="#ArialMT-77"/>
      <use x="83.300781" xlink:href="#ArialMT-50"/>
      <use x="138.916016" xlink:href="#ArialMT-95"/>
      <use x="194.53125" xlink:href="#ArialMT-48"/>
      <use x="250.146484" xlink:href="#ArialMT-57"/>
      <use x="305.761719" xlink:href="#ArialMT-32"/>
      <use x="333.544922" xlink:href="#ArialMT-68"/>
      <use x="405.761719" xlink:href="#ArialMT-114"/>
      <use x="439.0625" xlink:href="#ArialMT-121"/>
      <use x="489.0625" xlink:href="#ArialMT-97"/>
      <use x="544.677734" xlink:href="#ArialMT-100"/>
      <use x="600.292969" xlink:href="#ArialMT-32"/>
      <use x="628.076172" xlink:href="#ArialMT-50"/>
      <use x="683.691406" xlink:href="#ArialMT-48"/>
      <use x="739.306641" xlink:href="#ArialMT-50"/>
      <use x="794.921875" xlink:href="#ArialMT-48"/>
     </g>
    </g>
    <g id="line2d_86">
     <path d="M 914.451094 420.338125 
L 936.451094 420.338125 
" style="fill:none;stroke:#35ae9c;stroke-linecap:round;stroke-width:1.5;"/>
    </g>
    <g id="line2d_87"/>
    <g id="text_35">
     <!-- M2_10 Cat 2020 -->
     <defs>
      <path d="M 58.796875 25.09375 
L 68.265625 22.703125 
Q 65.28125 11.03125 57.546875 4.90625 
Q 49.8125 -1.21875 38.625 -1.21875 
Q 27.046875 -1.21875 19.796875 3.484375 
Q 12.546875 8.203125 8.765625 17.140625 
Q 4.984375 26.078125 4.984375 36.328125 
Q 4.984375 47.515625 9.25 55.828125 
Q 13.53125 64.15625 21.40625 68.46875 
Q 29.296875 72.796875 38.765625 72.796875 
Q 49.515625 72.796875 56.828125 67.328125 
Q 64.15625 61.859375 67.046875 51.953125 
L 57.71875 49.75 
Q 55.21875 57.5625 50.484375 61.125 
Q 45.75 64.703125 38.578125 64.703125 
Q 30.328125 64.703125 24.78125 60.734375 
Q 19.234375 56.78125 16.984375 50.109375 
Q 14.75 43.453125 14.75 36.375 
Q 14.75 27.25 17.40625 20.4375 
Q 20.0625 13.625 25.671875 10.25 
Q 31.296875 6.890625 37.84375 6.890625 
Q 45.796875 6.890625 51.3125 11.46875 
Q 56.84375 16.0625 58.796875 25.09375 
z
" id="ArialMT-67"/>
     </defs>
     <g style="fill:#262626;" transform="translate(945.251094 424.188125)scale(0.11 -0.11)">
      <use xlink:href="#ArialMT-77"/>
      <use x="83.300781" xlink:href="#ArialMT-50"/>
      <use x="138.916016" xlink:href="#ArialMT-95"/>
      <use x="194.53125" xlink:href="#ArialMT-49"/>
      <use x="250.146484" xlink:href="#ArialMT-48"/>
      <use x="305.761719" xlink:href="#ArialMT-32"/>
      <use x="333.544922" xlink:href="#ArialMT-67"/>
      <use x="405.761719" xlink:href="#ArialMT-97"/>
      <use x="461.376953" xlink:href="#ArialMT-116"/>
      <use x="489.160156" xlink:href="#ArialMT-32"/>
      <use x="516.943359" xlink:href="#ArialMT-50"/>
      <use x="572.558594" xlink:href="#ArialMT-48"/>
      <use x="628.173828" xlink:href="#ArialMT-50"/>
      <use x="683.789062" xlink:href="#ArialMT-48"/>
     </g>
    </g>
    <g id="line2d_88">
     <path d="M 914.451094 435.930625 
L 936.451094 435.930625 
" style="fill:none;stroke:#36acac;stroke-linecap:round;stroke-width:1.5;"/>
    </g>
    <g id="line2d_89"/>
    <g id="text_36">
     <!-- M2_11 Mahakam 2020 -->
     <defs>
      <path d="M 6.59375 0 
L 6.59375 71.578125 
L 15.375 71.578125 
L 15.375 45.90625 
Q 21.53125 53.03125 30.90625 53.03125 
Q 36.671875 53.03125 40.921875 50.75 
Q 45.171875 48.484375 47 44.484375 
Q 48.828125 40.484375 48.828125 32.859375 
L 48.828125 0 
L 40.046875 0 
L 40.046875 32.859375 
Q 40.046875 39.453125 37.1875 42.453125 
Q 34.328125 45.453125 29.109375 45.453125 
Q 25.203125 45.453125 21.75 43.421875 
Q 18.3125 41.40625 16.84375 37.9375 
Q 15.375 34.46875 15.375 28.375 
L 15.375 0 
z
" id="ArialMT-104"/>
      <path d="M 6.640625 0 
L 6.640625 71.578125 
L 15.4375 71.578125 
L 15.4375 30.765625 
L 36.234375 51.859375 
L 47.609375 51.859375 
L 27.78125 32.625 
L 49.609375 0 
L 38.765625 0 
L 21.625 26.515625 
L 15.4375 20.5625 
L 15.4375 0 
z
" id="ArialMT-107"/>
     </defs>
     <g style="fill:#262626;" transform="translate(945.251094 439.780625)scale(0.11 -0.11)">
      <use xlink:href="#ArialMT-77"/>
      <use x="83.300781" xlink:href="#ArialMT-50"/>
      <use x="138.916016" xlink:href="#ArialMT-95"/>
      <use x="194.53125" xlink:href="#ArialMT-49"/>
      <use x="242.771484" xlink:href="#ArialMT-49"/>
      <use x="298.386719" xlink:href="#ArialMT-32"/>
      <use x="326.169922" xlink:href="#ArialMT-77"/>
      <use x="409.470703" xlink:href="#ArialMT-97"/>
      <use x="465.085938" xlink:href="#ArialMT-104"/>
      <use x="520.701172" xlink:href="#ArialMT-97"/>
      <use x="576.316406" xlink:href="#ArialMT-107"/>
      <use x="626.316406" xlink:href="#ArialMT-97"/>
      <use x="681.931641" xlink:href="#ArialMT-109"/>
      <use x="765.232422" xlink:href="#ArialMT-32"/>
      <use x="793.015625" xlink:href="#ArialMT-50"/>
      <use x="848.630859" xlink:href="#ArialMT-48"/>
      <use x="904.246094" xlink:href="#ArialMT-50"/>
      <use x="959.861328" xlink:href="#ArialMT-48"/>
     </g>
    </g>
    <g id="line2d_90">
     <path d="M 914.451094 451.523125 
L 936.451094 451.523125 
" style="fill:none;stroke:#37aabd;stroke-linecap:round;stroke-width:1.5;"/>
    </g>
    <g id="line2d_91"/>
    <g id="text_37">
     <!-- M2_12 Wild Hunt 2020 -->
     <defs>
      <path d="M 8.015625 0 
L 8.015625 71.578125 
L 17.484375 71.578125 
L 17.484375 42.1875 
L 54.6875 42.1875 
L 54.6875 71.578125 
L 64.15625 71.578125 
L 64.15625 0 
L 54.6875 0 
L 54.6875 33.734375 
L 17.484375 33.734375 
L 17.484375 0 
z
" id="ArialMT-72"/>
     </defs>
     <g style="fill:#262626;" transform="translate(945.251094 455.373125)scale(0.11 -0.11)">
      <use xlink:href="#ArialMT-77"/>
      <use x="83.300781" xlink:href="#ArialMT-50"/>
      <use x="138.916016" xlink:href="#ArialMT-95"/>
      <use x="194.53125" xlink:href="#ArialMT-49"/>
      <use x="250.146484" xlink:href="#ArialMT-50"/>
      <use x="305.761719" xlink:href="#ArialMT-32"/>
      <use x="333.544922" xlink:href="#ArialMT-87"/>
      <use x="427.929688" xlink:href="#ArialMT-105"/>
      <use x="450.146484" xlink:href="#ArialMT-108"/>
      <use x="472.363281" xlink:href="#ArialMT-100"/>
      <use x="527.978516" xlink:href="#ArialMT-32"/>
      <use x="555.761719" xlink:href="#ArialMT-72"/>
      <use x="627.978516" xlink:href="#ArialMT-117"/>
      <use x="683.59375" xlink:href="#ArialMT-110"/>
      <use x="739.208984" xlink:href="#ArialMT-116"/>
      <use x="766.992188" xlink:href="#ArialMT-32"/>
      <use x="794.775391" xlink:href="#ArialMT-50"/>
      <use x="850.390625" xlink:href="#ArialMT-48"/>
      <use x="906.005859" xlink:href="#ArialMT-50"/>
      <use x="961.621094" xlink:href="#ArialMT-48"/>
     </g>
    </g>
    <g id="line2d_92">
     <path d="M 914.451094 467.217031 
L 936.451094 467.217031 
" style="fill:none;stroke:#39a7d4;stroke-linecap:round;stroke-width:1.5;"/>
    </g>
    <g id="line2d_93"/>
    <g id="text_38">
     <!-- M3_01 Wolf 2021 -->
     <g style="fill:#262626;" transform="translate(945.251094 471.067031)scale(0.11 -0.11)">
      <use xlink:href="#ArialMT-77"/>
      <use x="83.300781" xlink:href="#ArialMT-51"/>
      <use x="138.916016" xlink:href="#ArialMT-95"/>
      <use x="194.53125" xlink:href="#ArialMT-48"/>
      <use x="250.146484" xlink:href="#ArialMT-49"/>
      <use x="305.761719" xlink:href="#ArialMT-32"/>
      <use x="333.544922" xlink:href="#ArialMT-87"/>
      <use x="426.179688" xlink:href="#ArialMT-111"/>
      <use x="481.794922" xlink:href="#ArialMT-108"/>
      <use x="504.011719" xlink:href="#ArialMT-102"/>
      <use x="531.794922" xlink:href="#ArialMT-32"/>
      <use x="559.578125" xlink:href="#ArialMT-50"/>
      <use x="615.193359" xlink:href="#ArialMT-48"/>
      <use x="670.808594" xlink:href="#ArialMT-50"/>
      <use x="726.423828" xlink:href="#ArialMT-49"/>
     </g>
    </g>
    <g id="line2d_94">
     <path d="M 914.451094 482.809531 
L 936.451094 482.809531 
" style="fill:none;stroke:#539ff4;stroke-linecap:round;stroke-width:1.5;"/>
    </g>
    <g id="line2d_95"/>
    <g id="text_39">
     <!-- M3_02 Love 2021 -->
     <g style="fill:#262626;" transform="translate(945.251094 486.659531)scale(0.11 -0.11)">
      <use xlink:href="#ArialMT-77"/>
      <use x="83.300781" xlink:href="#ArialMT-51"/>
      <use x="138.916016" xlink:href="#ArialMT-95"/>
      <use x="194.53125" xlink:href="#ArialMT-48"/>
      <use x="250.146484" xlink:href="#ArialMT-50"/>
      <use x="305.761719" xlink:href="#ArialMT-32"/>
      <use x="333.544922" xlink:href="#ArialMT-76"/>
      <use x="389.160156" xlink:href="#ArialMT-111"/>
      <use x="444.775391" xlink:href="#ArialMT-118"/>
      <use x="494.775391" xlink:href="#ArialMT-101"/>
      <use x="550.390625" xlink:href="#ArialMT-32"/>
      <use x="578.173828" xlink:href="#ArialMT-50"/>
      <use x="633.789062" xlink:href="#ArialMT-48"/>
      <use x="689.404297" xlink:href="#ArialMT-50"/>
      <use x="745.019531" xlink:href="#ArialMT-49"/>
     </g>
    </g>
    <g id="line2d_96">
     <path d="M 914.451094 498.402031 
L 936.451094 498.402031 
" style="fill:none;stroke:#9890f4;stroke-linecap:round;stroke-width:1.5;"/>
    </g>
    <g id="line2d_97"/>
    <g id="text_40">
     <!-- M3_03 Bear 2021 -->
     <g style="fill:#262626;" transform="translate(945.251094 502.252031)scale(0.11 -0.11)">
      <use xlink:href="#ArialMT-77"/>
      <use x="83.300781" xlink:href="#ArialMT-51"/>
      <use x="138.916016" xlink:href="#ArialMT-95"/>
      <use x="194.53125" xlink:href="#ArialMT-48"/>
      <use x="250.146484" xlink:href="#ArialMT-51"/>
      <use x="305.761719" xlink:href="#ArialMT-32"/>
      <use x="333.544922" xlink:href="#ArialMT-66"/>
      <use x="400.244141" xlink:href="#ArialMT-101"/>
      <use x="455.859375" xlink:href="#ArialMT-97"/>
      <use x="511.474609" xlink:href="#ArialMT-114"/>
      <use x="544.775391" xlink:href="#ArialMT-32"/>
      <use x="572.558594" xlink:href="#ArialMT-50"/>
      <use x="628.173828" xlink:href="#ArialMT-48"/>
      <use x="683.789062" xlink:href="#ArialMT-50"/>
      <use x="739.404297" xlink:href="#ArialMT-49"/>
     </g>
    </g>
    <g id="line2d_98">
     <path d="M 914.451094 514.095938 
L 936.451094 514.095938 
" style="fill:none;stroke:#c47ef4;stroke-linecap:round;stroke-width:1.5;"/>
    </g>
    <g id="line2d_99"/>
    <g id="text_41">
     <!-- M3_04 Elf 2021 -->
     <g style="fill:#262626;" transform="translate(945.251094 517.945938)scale(0.11 -0.11)">
      <use xlink:href="#ArialMT-77"/>
      <use x="83.300781" xlink:href="#ArialMT-51"/>
      <use x="138.916016" xlink:href="#ArialMT-95"/>
      <use x="194.53125" xlink:href="#ArialMT-48"/>
      <use x="250.146484" xlink:href="#ArialMT-52"/>
      <use x="305.761719" xlink:href="#ArialMT-32"/>
      <use x="333.544922" xlink:href="#ArialMT-69"/>
      <use x="400.244141" xlink:href="#ArialMT-108"/>
      <use x="422.460938" xlink:href="#ArialMT-102"/>
      <use x="450.244141" xlink:href="#ArialMT-32"/>
      <use x="478.027344" xlink:href="#ArialMT-50"/>
      <use x="533.642578" xlink:href="#ArialMT-48"/>
      <use x="589.257812" xlink:href="#ArialMT-50"/>
      <use x="644.873047" xlink:href="#ArialMT-49"/>
     </g>
    </g>
    <g id="line2d_100">
     <path d="M 914.451094 529.688438 
L 936.451094 529.688438 
" style="fill:none;stroke:#ef5ff4;stroke-linecap:round;stroke-width:1.5;"/>
    </g>
    <g id="line2d_101"/>
    <g id="text_42">
     <!-- M3_05 Viper 2021 -->
     <g style="fill:#262626;" transform="translate(945.251094 533.538438)scale(0.11 -0.11)">
      <use xlink:href="#ArialMT-77"/>
      <use x="83.300781" xlink:href="#ArialMT-51"/>
      <use x="138.916016" xlink:href="#ArialMT-95"/>
      <use x="194.53125" xlink:href="#ArialMT-48"/>
      <use x="250.146484" xlink:href="#ArialMT-53"/>
      <use x="305.761719" xlink:href="#ArialMT-32"/>
      <use x="333.544922" xlink:href="#ArialMT-86"/>
      <use x="398.494141" xlink:href="#ArialMT-105"/>
      <use x="420.710938" xlink:href="#ArialMT-112"/>
      <use x="476.326172" xlink:href="#ArialMT-101"/>
      <use x="531.941406" xlink:href="#ArialMT-114"/>
      <use x="565.242188" xlink:href="#ArialMT-32"/>
      <use x="593.025391" xlink:href="#ArialMT-50"/>
      <use x="648.640625" xlink:href="#ArialMT-48"/>
      <use x="704.255859" xlink:href="#ArialMT-50"/>
      <use x="759.871094" xlink:href="#ArialMT-49"/>
     </g>
    </g>
    <g id="line2d_102">
     <path d="M 914.451094 545.280938 
L 936.451094 545.280938 
" style="fill:none;stroke:#f565d0;stroke-linecap:round;stroke-width:1.5;"/>
    </g>
    <g id="line2d_103"/>
    <g id="text_43">
     <!-- M3_06 Magic 2021 -->
     <g style="fill:#262626;" transform="translate(945.251094 549.130938)scale(0.11 -0.11)">
      <use xlink:href="#ArialMT-77"/>
      <use x="83.300781" xlink:href="#ArialMT-51"/>
      <use x="138.916016" xlink:href="#ArialMT-95"/>
      <use x="194.53125" xlink:href="#ArialMT-48"/>
      <use x="250.146484" xlink:href="#ArialMT-54"/>
      <use x="305.761719" xlink:href="#ArialMT-32"/>
      <use x="333.544922" xlink:href="#ArialMT-77"/>
      <use x="416.845703" xlink:href="#ArialMT-97"/>
      <use x="472.460938" xlink:href="#ArialMT-103"/>
      <use x="528.076172" xlink:href="#ArialMT-105"/>
      <use x="550.292969" xlink:href="#ArialMT-99"/>
      <use x="600.292969" xlink:href="#ArialMT-32"/>
      <use x="628.076172" xlink:href="#ArialMT-50"/>
      <use x="683.691406" xlink:href="#ArialMT-48"/>
      <use x="739.306641" xlink:href="#ArialMT-50"/>
      <use x="794.921875" xlink:href="#ArialMT-49"/>
     </g>
    </g>
    <g id="line2d_104">
     <path d="M 914.451094 561.10375 
L 936.451094 561.10375 
" style="fill:none;stroke:#f66baf;stroke-linecap:round;stroke-width:1.5;"/>
    </g>
    <g id="line2d_105"/>
    <g id="text_44">
     <!-- M3_07 Griffin 2021 -->
     <g style="fill:#262626;" transform="translate(945.251094 564.95375)scale(0.11 -0.11)">
      <use xlink:href="#ArialMT-77"/>
      <use x="83.300781" xlink:href="#ArialMT-51"/>
      <use x="138.916016" xlink:href="#ArialMT-95"/>
      <use x="194.53125" xlink:href="#ArialMT-48"/>
      <use x="250.146484" xlink:href="#ArialMT-55"/>
      <use x="305.761719" xlink:href="#ArialMT-32"/>
      <use x="333.544922" xlink:href="#ArialMT-71"/>
      <use x="411.328125" xlink:href="#ArialMT-114"/>
      <use x="444.628906" xlink:href="#ArialMT-105"/>
      <use x="466.845703" xlink:href="#ArialMT-102"/>
      <use x="492.878906" xlink:href="#ArialMT-102"/>
      <use x="520.662109" xlink:href="#ArialMT-105"/>
      <use x="542.878906" xlink:href="#ArialMT-110"/>
      <use x="598.494141" xlink:href="#ArialMT-32"/>
      <use x="626.277344" xlink:href="#ArialMT-50"/>
      <use x="681.892578" xlink:href="#ArialMT-48"/>
      <use x="737.507812" xlink:href="#ArialMT-50"/>
      <use x="793.123047" xlink:href="#ArialMT-49"/>
     </g>
    </g>
   </g>
  </g>
 </g>
 <defs>
  <clipPath id="p7dba873eb6">
   <rect height="564.08" width="1015.205" x="51.835" y="12.96"/>
  </clipPath>
 </defs>
</svg>
