<?xml version="1.0" encoding="utf-8" standalone="no"?>
<!DOCTYPE svg PUBLIC "-//W3C//DTD SVG 1.1//EN"
  "http://www.w3.org/Graphics/SVG/1.1/DTD/svg11.dtd">
<!-- Created with matplotlib (https://matplotlib.org/) -->
<svg height="720pt" version="1.1" viewBox="0 0 1080 720" width="1080pt" xmlns="http://www.w3.org/2000/svg" xmlns:xlink="http://www.w3.org/1999/xlink">
 <defs>
  <style type="text/css">
*{stroke-linecap:butt;stroke-linejoin:round;}
  </style>
 </defs>
 <g id="figure_1">
  <g id="patch_1">
   <path d="M 0 720 
L 1080 720 
L 1080 0 
L 0 0 
z
" style="fill:#ffffff;"/>
  </g>
  <g id="axes_1">
   <g id="patch_2">
    <path d="M 50.925 593.075 
L 1069.2 593.075 
L 1069.2 26.8 
L 50.925 26.8 
z
" style="fill:#ffffff;"/>
   </g>
   <g id="matplotlib.axis_1">
    <g id="xtick_1">
     <g id="line2d_1">
      <path clip-path="url(#p5e90c1a5e8)" d="M 1022.914773 593.075 
L 1022.914773 26.8 
" style="fill:none;stroke:#b0b0b0;stroke-dasharray:2.96,1.28;stroke-dashoffset:0;stroke-opacity:0.5;stroke-width:0.8;"/>
     </g>
     <g id="line2d_2">
      <defs>
       <path d="M 0 0 
L 0 3.5 
" id="m103a211750" style="stroke:#000000;stroke-width:0.8;"/>
      </defs>
      <g>
       <use style="stroke:#000000;stroke-width:0.8;" x="1022.914773" xlink:href="#m103a211750" y="593.075"/>
      </g>
     </g>
     <g id="text_1">
      <!-- Position 0200 to 0001 -->
      <defs>
       <path d="M 19.671875 64.796875 
L 19.671875 37.40625 
L 32.078125 37.40625 
Q 38.96875 37.40625 42.71875 40.96875 
Q 46.484375 44.53125 46.484375 51.125 
Q 46.484375 57.671875 42.71875 61.234375 
Q 38.96875 64.796875 32.078125 64.796875 
z
M 9.8125 72.90625 
L 32.078125 72.90625 
Q 44.34375 72.90625 50.609375 67.359375 
Q 56.890625 61.8125 56.890625 51.125 
Q 56.890625 40.328125 50.609375 34.8125 
Q 44.34375 29.296875 32.078125 29.296875 
L 19.671875 29.296875 
L 19.671875 0 
L 9.8125 0 
z
" id="DejaVuSans-80"/>
       <path d="M 30.609375 48.390625 
Q 23.390625 48.390625 19.1875 42.75 
Q 14.984375 37.109375 14.984375 27.296875 
Q 14.984375 17.484375 19.15625 11.84375 
Q 23.34375 6.203125 30.609375 6.203125 
Q 37.796875 6.203125 41.984375 11.859375 
Q 46.1875 17.53125 46.1875 27.296875 
Q 46.1875 37.015625 41.984375 42.703125 
Q 37.796875 48.390625 30.609375 48.390625 
z
M 30.609375 56 
Q 42.328125 56 49.015625 48.375 
Q 55.71875 40.765625 55.71875 27.296875 
Q 55.71875 13.875 49.015625 6.21875 
Q 42.328125 -1.421875 30.609375 -1.421875 
Q 18.84375 -1.421875 12.171875 6.21875 
Q 5.515625 13.875 5.515625 27.296875 
Q 5.515625 40.765625 12.171875 48.375 
Q 18.84375 56 30.609375 56 
z
" id="DejaVuSans-111"/>
       <path d="M 44.28125 53.078125 
L 44.28125 44.578125 
Q 40.484375 46.53125 36.375 47.5 
Q 32.28125 48.484375 27.875 48.484375 
Q 21.1875 48.484375 17.84375 46.4375 
Q 14.5 44.390625 14.5 40.28125 
Q 14.5 37.15625 16.890625 35.375 
Q 19.28125 33.59375 26.515625 31.984375 
L 29.59375 31.296875 
Q 39.15625 29.25 43.1875 25.515625 
Q 47.21875 21.78125 47.21875 15.09375 
Q 47.21875 7.46875 41.1875 3.015625 
Q 35.15625 -1.421875 24.609375 -1.421875 
Q 20.21875 -1.421875 15.453125 -0.5625 
Q 10.6875 0.296875 5.421875 2 
L 5.421875 11.28125 
Q 10.40625 8.6875 15.234375 7.390625 
Q 20.0625 6.109375 24.8125 6.109375 
Q 31.15625 6.109375 34.5625 8.28125 
Q 37.984375 10.453125 37.984375 14.40625 
Q 37.984375 18.0625 35.515625 20.015625 
Q 33.0625 21.96875 24.703125 23.78125 
L 21.578125 24.515625 
Q 13.234375 26.265625 9.515625 29.90625 
Q 5.8125 33.546875 5.8125 39.890625 
Q 5.8125 47.609375 11.28125 51.796875 
Q 16.75 56 26.8125 56 
Q 31.78125 56 36.171875 55.265625 
Q 40.578125 54.546875 44.28125 53.078125 
z
" id="DejaVuSans-115"/>
       <path d="M 9.421875 54.6875 
L 18.40625 54.6875 
L 18.40625 0 
L 9.421875 0 
z
M 9.421875 75.984375 
L 18.40625 75.984375 
L 18.40625 64.59375 
L 9.421875 64.59375 
z
" id="DejaVuSans-105"/>
       <path d="M 18.3125 70.21875 
L 18.3125 54.6875 
L 36.8125 54.6875 
L 36.8125 47.703125 
L 18.3125 47.703125 
L 18.3125 18.015625 
Q 18.3125 11.328125 20.140625 9.421875 
Q 21.96875 7.515625 27.59375 7.515625 
L 36.8125 7.515625 
L 36.8125 0 
L 27.59375 0 
Q 17.1875 0 13.234375 3.875 
Q 9.28125 7.765625 9.28125 18.015625 
L 9.28125 47.703125 
L 2.6875 47.703125 
L 2.6875 54.6875 
L 9.28125 54.6875 
L 9.28125 70.21875 
z
" id="DejaVuSans-116"/>
       <path d="M 54.890625 33.015625 
L 54.890625 0 
L 45.90625 0 
L 45.90625 32.71875 
Q 45.90625 40.484375 42.875 44.328125 
Q 39.84375 48.1875 33.796875 48.1875 
Q 26.515625 48.1875 22.3125 43.546875 
Q 18.109375 38.921875 18.109375 30.90625 
L 18.109375 0 
L 9.078125 0 
L 9.078125 54.6875 
L 18.109375 54.6875 
L 18.109375 46.1875 
Q 21.34375 51.125 25.703125 53.5625 
Q 30.078125 56 35.796875 56 
Q 45.21875 56 50.046875 50.171875 
Q 54.890625 44.34375 54.890625 33.015625 
z
" id="DejaVuSans-110"/>
       <path id="DejaVuSans-32"/>
       <path d="M 31.78125 66.40625 
Q 24.171875 66.40625 20.328125 58.90625 
Q 16.5 51.421875 16.5 36.375 
Q 16.5 21.390625 20.328125 13.890625 
Q 24.171875 6.390625 31.78125 6.390625 
Q 39.453125 6.390625 43.28125 13.890625 
Q 47.125 21.390625 47.125 36.375 
Q 47.125 51.421875 43.28125 58.90625 
Q 39.453125 66.40625 31.78125 66.40625 
z
M 31.78125 74.21875 
Q 44.046875 74.21875 50.515625 64.515625 
Q 56.984375 54.828125 56.984375 36.375 
Q 56.984375 17.96875 50.515625 8.265625 
Q 44.046875 -1.421875 31.78125 -1.421875 
Q 19.53125 -1.421875 13.0625 8.265625 
Q 6.59375 17.96875 6.59375 36.375 
Q 6.59375 54.828125 13.0625 64.515625 
Q 19.53125 74.21875 31.78125 74.21875 
z
" id="DejaVuSans-48"/>
       <path d="M 19.1875 8.296875 
L 53.609375 8.296875 
L 53.609375 0 
L 7.328125 0 
L 7.328125 8.296875 
Q 12.9375 14.109375 22.625 23.890625 
Q 32.328125 33.6875 34.8125 36.53125 
Q 39.546875 41.84375 41.421875 45.53125 
Q 43.3125 49.21875 43.3125 52.78125 
Q 43.3125 58.59375 39.234375 62.25 
Q 35.15625 65.921875 28.609375 65.921875 
Q 23.96875 65.921875 18.8125 64.3125 
Q 13.671875 62.703125 7.8125 59.421875 
L 7.8125 69.390625 
Q 13.765625 71.78125 18.9375 73 
Q 24.125 74.21875 28.421875 74.21875 
Q 39.75 74.21875 46.484375 68.546875 
Q 53.21875 62.890625 53.21875 53.421875 
Q 53.21875 48.921875 51.53125 44.890625 
Q 49.859375 40.875 45.40625 35.40625 
Q 44.1875 33.984375 37.640625 27.21875 
Q 31.109375 20.453125 19.1875 8.296875 
z
" id="DejaVuSans-50"/>
       <path d="M 12.40625 8.296875 
L 28.515625 8.296875 
L 28.515625 63.921875 
L 10.984375 60.40625 
L 10.984375 69.390625 
L 28.421875 72.90625 
L 38.28125 72.90625 
L 38.28125 8.296875 
L 54.390625 8.296875 
L 54.390625 0 
L 12.40625 0 
z
" id="DejaVuSans-49"/>
      </defs>
      <g transform="translate(1025.674148 709.476562)rotate(-90)scale(0.1 -0.1)">
       <use xlink:href="#DejaVuSans-80"/>
       <use x="56.677734" xlink:href="#DejaVuSans-111"/>
       <use x="117.859375" xlink:href="#DejaVuSans-115"/>
       <use x="169.958984" xlink:href="#DejaVuSans-105"/>
       <use x="197.742188" xlink:href="#DejaVuSans-116"/>
       <use x="236.951172" xlink:href="#DejaVuSans-105"/>
       <use x="264.734375" xlink:href="#DejaVuSans-111"/>
       <use x="325.916016" xlink:href="#DejaVuSans-110"/>
       <use x="389.294922" xlink:href="#DejaVuSans-32"/>
       <use x="421.082031" xlink:href="#DejaVuSans-48"/>
       <use x="484.705078" xlink:href="#DejaVuSans-50"/>
       <use x="548.328125" xlink:href="#DejaVuSans-48"/>
       <use x="611.951172" xlink:href="#DejaVuSans-48"/>
       <use x="675.574219" xlink:href="#DejaVuSans-32"/>
       <use x="707.361328" xlink:href="#DejaVuSans-116"/>
       <use x="746.570312" xlink:href="#DejaVuSans-111"/>
       <use x="807.751953" xlink:href="#DejaVuSans-32"/>
       <use x="839.539062" xlink:href="#DejaVuSans-48"/>
       <use x="903.162109" xlink:href="#DejaVuSans-48"/>
       <use x="966.785156" xlink:href="#DejaVuSans-48"/>
       <use x="1030.408203" xlink:href="#DejaVuSans-49"/>
      </g>
     </g>
    </g>
    <g id="xtick_2">
     <g id="line2d_3">
      <path clip-path="url(#p5e90c1a5e8)" d="M 951.706731 593.075 
L 951.706731 26.8 
" style="fill:none;stroke:#b0b0b0;stroke-dasharray:2.96,1.28;stroke-dashoffset:0;stroke-opacity:0.5;stroke-width:0.8;"/>
     </g>
     <g id="line2d_4">
      <g>
       <use style="stroke:#000000;stroke-width:0.8;" x="951.706731" xlink:href="#m103a211750" y="593.075"/>
      </g>
     </g>
     <g id="text_2">
      <!-- Position 0400 to 0201 -->
      <defs>
       <path d="M 37.796875 64.3125 
L 12.890625 25.390625 
L 37.796875 25.390625 
z
M 35.203125 72.90625 
L 47.609375 72.90625 
L 47.609375 25.390625 
L 58.015625 25.390625 
L 58.015625 17.1875 
L 47.609375 17.1875 
L 47.609375 0 
L 37.796875 0 
L 37.796875 17.1875 
L 4.890625 17.1875 
L 4.890625 26.703125 
z
" id="DejaVuSans-52"/>
      </defs>
      <g transform="translate(954.466106 709.476562)rotate(-90)scale(0.1 -0.1)">
       <use xlink:href="#DejaVuSans-80"/>
       <use x="56.677734" xlink:href="#DejaVuSans-111"/>
       <use x="117.859375" xlink:href="#DejaVuSans-115"/>
       <use x="169.958984" xlink:href="#DejaVuSans-105"/>
       <use x="197.742188" xlink:href="#DejaVuSans-116"/>
       <use x="236.951172" xlink:href="#DejaVuSans-105"/>
       <use x="264.734375" xlink:href="#DejaVuSans-111"/>
       <use x="325.916016" xlink:href="#DejaVuSans-110"/>
       <use x="389.294922" xlink:href="#DejaVuSans-32"/>
       <use x="421.082031" xlink:href="#DejaVuSans-48"/>
       <use x="484.705078" xlink:href="#DejaVuSans-52"/>
       <use x="548.328125" xlink:href="#DejaVuSans-48"/>
       <use x="611.951172" xlink:href="#DejaVuSans-48"/>
       <use x="675.574219" xlink:href="#DejaVuSans-32"/>
       <use x="707.361328" xlink:href="#DejaVuSans-116"/>
       <use x="746.570312" xlink:href="#DejaVuSans-111"/>
       <use x="807.751953" xlink:href="#DejaVuSans-32"/>
       <use x="839.539062" xlink:href="#DejaVuSans-48"/>
       <use x="903.162109" xlink:href="#DejaVuSans-50"/>
       <use x="966.785156" xlink:href="#DejaVuSans-48"/>
       <use x="1030.408203" xlink:href="#DejaVuSans-49"/>
      </g>
     </g>
    </g>
    <g id="xtick_3">
     <g id="line2d_5">
      <path clip-path="url(#p5e90c1a5e8)" d="M 880.498689 593.075 
L 880.498689 26.8 
" style="fill:none;stroke:#b0b0b0;stroke-dasharray:2.96,1.28;stroke-dashoffset:0;stroke-opacity:0.5;stroke-width:0.8;"/>
     </g>
     <g id="line2d_6">
      <g>
       <use style="stroke:#000000;stroke-width:0.8;" x="880.498689" xlink:href="#m103a211750" y="593.075"/>
      </g>
     </g>
     <g id="text_3">
      <!-- Position 0600 to 0401 -->
      <defs>
       <path d="M 33.015625 40.375 
Q 26.375 40.375 22.484375 35.828125 
Q 18.609375 31.296875 18.609375 23.390625 
Q 18.609375 15.53125 22.484375 10.953125 
Q 26.375 6.390625 33.015625 6.390625 
Q 39.65625 6.390625 43.53125 10.953125 
Q 47.40625 15.53125 47.40625 23.390625 
Q 47.40625 31.296875 43.53125 35.828125 
Q 39.65625 40.375 33.015625 40.375 
z
M 52.59375 71.296875 
L 52.59375 62.3125 
Q 48.875 64.0625 45.09375 64.984375 
Q 41.3125 65.921875 37.59375 65.921875 
Q 27.828125 65.921875 22.671875 59.328125 
Q 17.53125 52.734375 16.796875 39.40625 
Q 19.671875 43.65625 24.015625 45.921875 
Q 28.375 48.1875 33.59375 48.1875 
Q 44.578125 48.1875 50.953125 41.515625 
Q 57.328125 34.859375 57.328125 23.390625 
Q 57.328125 12.15625 50.6875 5.359375 
Q 44.046875 -1.421875 33.015625 -1.421875 
Q 20.359375 -1.421875 13.671875 8.265625 
Q 6.984375 17.96875 6.984375 36.375 
Q 6.984375 53.65625 15.1875 63.9375 
Q 23.390625 74.21875 37.203125 74.21875 
Q 40.921875 74.21875 44.703125 73.484375 
Q 48.484375 72.75 52.59375 71.296875 
z
" id="DejaVuSans-54"/>
      </defs>
      <g transform="translate(883.258064 709.476562)rotate(-90)scale(0.1 -0.1)">
       <use xlink:href="#DejaVuSans-80"/>
       <use x="56.677734" xlink:href="#DejaVuSans-111"/>
       <use x="117.859375" xlink:href="#DejaVuSans-115"/>
       <use x="169.958984" xlink:href="#DejaVuSans-105"/>
       <use x="197.742188" xlink:href="#DejaVuSans-116"/>
       <use x="236.951172" xlink:href="#DejaVuSans-105"/>
       <use x="264.734375" xlink:href="#DejaVuSans-111"/>
       <use x="325.916016" xlink:href="#DejaVuSans-110"/>
       <use x="389.294922" xlink:href="#DejaVuSans-32"/>
       <use x="421.082031" xlink:href="#DejaVuSans-48"/>
       <use x="484.705078" xlink:href="#DejaVuSans-54"/>
       <use x="548.328125" xlink:href="#DejaVuSans-48"/>
       <use x="611.951172" xlink:href="#DejaVuSans-48"/>
       <use x="675.574219" xlink:href="#DejaVuSans-32"/>
       <use x="707.361328" xlink:href="#DejaVuSans-116"/>
       <use x="746.570312" xlink:href="#DejaVuSans-111"/>
       <use x="807.751953" xlink:href="#DejaVuSans-32"/>
       <use x="839.539062" xlink:href="#DejaVuSans-48"/>
       <use x="903.162109" xlink:href="#DejaVuSans-52"/>
       <use x="966.785156" xlink:href="#DejaVuSans-48"/>
       <use x="1030.408203" xlink:href="#DejaVuSans-49"/>
      </g>
     </g>
    </g>
    <g id="xtick_4">
     <g id="line2d_7">
      <path clip-path="url(#p5e90c1a5e8)" d="M 809.290647 593.075 
L 809.290647 26.8 
" style="fill:none;stroke:#b0b0b0;stroke-dasharray:2.96,1.28;stroke-dashoffset:0;stroke-opacity:0.5;stroke-width:0.8;"/>
     </g>
     <g id="line2d_8">
      <g>
       <use style="stroke:#000000;stroke-width:0.8;" x="809.290647" xlink:href="#m103a211750" y="593.075"/>
      </g>
     </g>
     <g id="text_4">
      <!-- Position 0800 to 0601 -->
      <defs>
       <path d="M 31.78125 34.625 
Q 24.75 34.625 20.71875 30.859375 
Q 16.703125 27.09375 16.703125 20.515625 
Q 16.703125 13.921875 20.71875 10.15625 
Q 24.75 6.390625 31.78125 6.390625 
Q 38.8125 6.390625 42.859375 10.171875 
Q 46.921875 13.96875 46.921875 20.515625 
Q 46.921875 27.09375 42.890625 30.859375 
Q 38.875 34.625 31.78125 34.625 
z
M 21.921875 38.8125 
Q 15.578125 40.375 12.03125 44.71875 
Q 8.5 49.078125 8.5 55.328125 
Q 8.5 64.0625 14.71875 69.140625 
Q 20.953125 74.21875 31.78125 74.21875 
Q 42.671875 74.21875 48.875 69.140625 
Q 55.078125 64.0625 55.078125 55.328125 
Q 55.078125 49.078125 51.53125 44.71875 
Q 48 40.375 41.703125 38.8125 
Q 48.828125 37.15625 52.796875 32.3125 
Q 56.78125 27.484375 56.78125 20.515625 
Q 56.78125 9.90625 50.3125 4.234375 
Q 43.84375 -1.421875 31.78125 -1.421875 
Q 19.734375 -1.421875 13.25 4.234375 
Q 6.78125 9.90625 6.78125 20.515625 
Q 6.78125 27.484375 10.78125 32.3125 
Q 14.796875 37.15625 21.921875 38.8125 
z
M 18.3125 54.390625 
Q 18.3125 48.734375 21.84375 45.5625 
Q 25.390625 42.390625 31.78125 42.390625 
Q 38.140625 42.390625 41.71875 45.5625 
Q 45.3125 48.734375 45.3125 54.390625 
Q 45.3125 60.0625 41.71875 63.234375 
Q 38.140625 66.40625 31.78125 66.40625 
Q 25.390625 66.40625 21.84375 63.234375 
Q 18.3125 60.0625 18.3125 54.390625 
z
" id="DejaVuSans-56"/>
      </defs>
      <g transform="translate(812.050022 709.476562)rotate(-90)scale(0.1 -0.1)">
       <use xlink:href="#DejaVuSans-80"/>
       <use x="56.677734" xlink:href="#DejaVuSans-111"/>
       <use x="117.859375" xlink:href="#DejaVuSans-115"/>
       <use x="169.958984" xlink:href="#DejaVuSans-105"/>
       <use x="197.742188" xlink:href="#DejaVuSans-116"/>
       <use x="236.951172" xlink:href="#DejaVuSans-105"/>
       <use x="264.734375" xlink:href="#DejaVuSans-111"/>
       <use x="325.916016" xlink:href="#DejaVuSans-110"/>
       <use x="389.294922" xlink:href="#DejaVuSans-32"/>
       <use x="421.082031" xlink:href="#DejaVuSans-48"/>
       <use x="484.705078" xlink:href="#DejaVuSans-56"/>
       <use x="548.328125" xlink:href="#DejaVuSans-48"/>
       <use x="611.951172" xlink:href="#DejaVuSans-48"/>
       <use x="675.574219" xlink:href="#DejaVuSans-32"/>
       <use x="707.361328" xlink:href="#DejaVuSans-116"/>
       <use x="746.570312" xlink:href="#DejaVuSans-111"/>
       <use x="807.751953" xlink:href="#DejaVuSans-32"/>
       <use x="839.539062" xlink:href="#DejaVuSans-48"/>
       <use x="903.162109" xlink:href="#DejaVuSans-54"/>
       <use x="966.785156" xlink:href="#DejaVuSans-48"/>
       <use x="1030.408203" xlink:href="#DejaVuSans-49"/>
      </g>
     </g>
    </g>
    <g id="xtick_5">
     <g id="line2d_9">
      <path clip-path="url(#p5e90c1a5e8)" d="M 738.082605 593.075 
L 738.082605 26.8 
" style="fill:none;stroke:#b0b0b0;stroke-dasharray:2.96,1.28;stroke-dashoffset:0;stroke-opacity:0.5;stroke-width:0.8;"/>
     </g>
     <g id="line2d_10">
      <g>
       <use style="stroke:#000000;stroke-width:0.8;" x="738.082605" xlink:href="#m103a211750" y="593.075"/>
      </g>
     </g>
     <g id="text_5">
      <!-- Position 1000 to 0801 -->
      <g transform="translate(740.84198 709.476562)rotate(-90)scale(0.1 -0.1)">
       <use xlink:href="#DejaVuSans-80"/>
       <use x="56.677734" xlink:href="#DejaVuSans-111"/>
       <use x="117.859375" xlink:href="#DejaVuSans-115"/>
       <use x="169.958984" xlink:href="#DejaVuSans-105"/>
       <use x="197.742188" xlink:href="#DejaVuSans-116"/>
       <use x="236.951172" xlink:href="#DejaVuSans-105"/>
       <use x="264.734375" xlink:href="#DejaVuSans-111"/>
       <use x="325.916016" xlink:href="#DejaVuSans-110"/>
       <use x="389.294922" xlink:href="#DejaVuSans-32"/>
       <use x="421.082031" xlink:href="#DejaVuSans-49"/>
       <use x="484.705078" xlink:href="#DejaVuSans-48"/>
       <use x="548.328125" xlink:href="#DejaVuSans-48"/>
       <use x="611.951172" xlink:href="#DejaVuSans-48"/>
       <use x="675.574219" xlink:href="#DejaVuSans-32"/>
       <use x="707.361328" xlink:href="#DejaVuSans-116"/>
       <use x="746.570312" xlink:href="#DejaVuSans-111"/>
       <use x="807.751953" xlink:href="#DejaVuSans-32"/>
       <use x="839.539062" xlink:href="#DejaVuSans-48"/>
       <use x="903.162109" xlink:href="#DejaVuSans-56"/>
       <use x="966.785156" xlink:href="#DejaVuSans-48"/>
       <use x="1030.408203" xlink:href="#DejaVuSans-49"/>
      </g>
     </g>
    </g>
    <g id="xtick_6">
     <g id="line2d_11">
      <path clip-path="url(#p5e90c1a5e8)" d="M 666.874563 593.075 
L 666.874563 26.8 
" style="fill:none;stroke:#b0b0b0;stroke-dasharray:2.96,1.28;stroke-dashoffset:0;stroke-opacity:0.5;stroke-width:0.8;"/>
     </g>
     <g id="line2d_12">
      <g>
       <use style="stroke:#000000;stroke-width:0.8;" x="666.874563" xlink:href="#m103a211750" y="593.075"/>
      </g>
     </g>
     <g id="text_6">
      <!-- Position 1200 to 1001 -->
      <g transform="translate(669.633938 709.476562)rotate(-90)scale(0.1 -0.1)">
       <use xlink:href="#DejaVuSans-80"/>
       <use x="56.677734" xlink:href="#DejaVuSans-111"/>
       <use x="117.859375" xlink:href="#DejaVuSans-115"/>
       <use x="169.958984" xlink:href="#DejaVuSans-105"/>
       <use x="197.742188" xlink:href="#DejaVuSans-116"/>
       <use x="236.951172" xlink:href="#DejaVuSans-105"/>
       <use x="264.734375" xlink:href="#DejaVuSans-111"/>
       <use x="325.916016" xlink:href="#DejaVuSans-110"/>
       <use x="389.294922" xlink:href="#DejaVuSans-32"/>
       <use x="421.082031" xlink:href="#DejaVuSans-49"/>
       <use x="484.705078" xlink:href="#DejaVuSans-50"/>
       <use x="548.328125" xlink:href="#DejaVuSans-48"/>
       <use x="611.951172" xlink:href="#DejaVuSans-48"/>
       <use x="675.574219" xlink:href="#DejaVuSans-32"/>
       <use x="707.361328" xlink:href="#DejaVuSans-116"/>
       <use x="746.570312" xlink:href="#DejaVuSans-111"/>
       <use x="807.751953" xlink:href="#DejaVuSans-32"/>
       <use x="839.539062" xlink:href="#DejaVuSans-49"/>
       <use x="903.162109" xlink:href="#DejaVuSans-48"/>
       <use x="966.785156" xlink:href="#DejaVuSans-48"/>
       <use x="1030.408203" xlink:href="#DejaVuSans-49"/>
      </g>
     </g>
    </g>
    <g id="xtick_7">
     <g id="line2d_13">
      <path clip-path="url(#p5e90c1a5e8)" d="M 595.666521 593.075 
L 595.666521 26.8 
" style="fill:none;stroke:#b0b0b0;stroke-dasharray:2.96,1.28;stroke-dashoffset:0;stroke-opacity:0.5;stroke-width:0.8;"/>
     </g>
     <g id="line2d_14">
      <g>
       <use style="stroke:#000000;stroke-width:0.8;" x="595.666521" xlink:href="#m103a211750" y="593.075"/>
      </g>
     </g>
     <g id="text_7">
      <!-- Position 1400 to 1201 -->
      <g transform="translate(598.425896 709.476562)rotate(-90)scale(0.1 -0.1)">
       <use xlink:href="#DejaVuSans-80"/>
       <use x="56.677734" xlink:href="#DejaVuSans-111"/>
       <use x="117.859375" xlink:href="#DejaVuSans-115"/>
       <use x="169.958984" xlink:href="#DejaVuSans-105"/>
       <use x="197.742188" xlink:href="#DejaVuSans-116"/>
       <use x="236.951172" xlink:href="#DejaVuSans-105"/>
       <use x="264.734375" xlink:href="#DejaVuSans-111"/>
       <use x="325.916016" xlink:href="#DejaVuSans-110"/>
       <use x="389.294922" xlink:href="#DejaVuSans-32"/>
       <use x="421.082031" xlink:href="#DejaVuSans-49"/>
       <use x="484.705078" xlink:href="#DejaVuSans-52"/>
       <use x="548.328125" xlink:href="#DejaVuSans-48"/>
       <use x="611.951172" xlink:href="#DejaVuSans-48"/>
       <use x="675.574219" xlink:href="#DejaVuSans-32"/>
       <use x="707.361328" xlink:href="#DejaVuSans-116"/>
       <use x="746.570312" xlink:href="#DejaVuSans-111"/>
       <use x="807.751953" xlink:href="#DejaVuSans-32"/>
       <use x="839.539062" xlink:href="#DejaVuSans-49"/>
       <use x="903.162109" xlink:href="#DejaVuSans-50"/>
       <use x="966.785156" xlink:href="#DejaVuSans-48"/>
       <use x="1030.408203" xlink:href="#DejaVuSans-49"/>
      </g>
     </g>
    </g>
    <g id="xtick_8">
     <g id="line2d_15">
      <path clip-path="url(#p5e90c1a5e8)" d="M 524.458479 593.075 
L 524.458479 26.8 
" style="fill:none;stroke:#b0b0b0;stroke-dasharray:2.96,1.28;stroke-dashoffset:0;stroke-opacity:0.5;stroke-width:0.8;"/>
     </g>
     <g id="line2d_16">
      <g>
       <use style="stroke:#000000;stroke-width:0.8;" x="524.458479" xlink:href="#m103a211750" y="593.075"/>
      </g>
     </g>
     <g id="text_8">
      <!-- Position 1600 to 1401 -->
      <g transform="translate(527.217854 709.476562)rotate(-90)scale(0.1 -0.1)">
       <use xlink:href="#DejaVuSans-80"/>
       <use x="56.677734" xlink:href="#DejaVuSans-111"/>
       <use x="117.859375" xlink:href="#DejaVuSans-115"/>
       <use x="169.958984" xlink:href="#DejaVuSans-105"/>
       <use x="197.742188" xlink:href="#DejaVuSans-116"/>
       <use x="236.951172" xlink:href="#DejaVuSans-105"/>
       <use x="264.734375" xlink:href="#DejaVuSans-111"/>
       <use x="325.916016" xlink:href="#DejaVuSans-110"/>
       <use x="389.294922" xlink:href="#DejaVuSans-32"/>
       <use x="421.082031" xlink:href="#DejaVuSans-49"/>
       <use x="484.705078" xlink:href="#DejaVuSans-54"/>
       <use x="548.328125" xlink:href="#DejaVuSans-48"/>
       <use x="611.951172" xlink:href="#DejaVuSans-48"/>
       <use x="675.574219" xlink:href="#DejaVuSans-32"/>
       <use x="707.361328" xlink:href="#DejaVuSans-116"/>
       <use x="746.570312" xlink:href="#DejaVuSans-111"/>
       <use x="807.751953" xlink:href="#DejaVuSans-32"/>
       <use x="839.539062" xlink:href="#DejaVuSans-49"/>
       <use x="903.162109" xlink:href="#DejaVuSans-52"/>
       <use x="966.785156" xlink:href="#DejaVuSans-48"/>
       <use x="1030.408203" xlink:href="#DejaVuSans-49"/>
      </g>
     </g>
    </g>
    <g id="xtick_9">
     <g id="line2d_17">
      <path clip-path="url(#p5e90c1a5e8)" d="M 453.250437 593.075 
L 453.250437 26.8 
" style="fill:none;stroke:#b0b0b0;stroke-dasharray:2.96,1.28;stroke-dashoffset:0;stroke-opacity:0.5;stroke-width:0.8;"/>
     </g>
     <g id="line2d_18">
      <g>
       <use style="stroke:#000000;stroke-width:0.8;" x="453.250437" xlink:href="#m103a211750" y="593.075"/>
      </g>
     </g>
     <g id="text_9">
      <!-- Position 1800 to 1601 -->
      <g transform="translate(456.009812 709.476562)rotate(-90)scale(0.1 -0.1)">
       <use xlink:href="#DejaVuSans-80"/>
       <use x="56.677734" xlink:href="#DejaVuSans-111"/>
       <use x="117.859375" xlink:href="#DejaVuSans-115"/>
       <use x="169.958984" xlink:href="#DejaVuSans-105"/>
       <use x="197.742188" xlink:href="#DejaVuSans-116"/>
       <use x="236.951172" xlink:href="#DejaVuSans-105"/>
       <use x="264.734375" xlink:href="#DejaVuSans-111"/>
       <use x="325.916016" xlink:href="#DejaVuSans-110"/>
       <use x="389.294922" xlink:href="#DejaVuSans-32"/>
       <use x="421.082031" xlink:href="#DejaVuSans-49"/>
       <use x="484.705078" xlink:href="#DejaVuSans-56"/>
       <use x="548.328125" xlink:href="#DejaVuSans-48"/>
       <use x="611.951172" xlink:href="#DejaVuSans-48"/>
       <use x="675.574219" xlink:href="#DejaVuSans-32"/>
       <use x="707.361328" xlink:href="#DejaVuSans-116"/>
       <use x="746.570312" xlink:href="#DejaVuSans-111"/>
       <use x="807.751953" xlink:href="#DejaVuSans-32"/>
       <use x="839.539062" xlink:href="#DejaVuSans-49"/>
       <use x="903.162109" xlink:href="#DejaVuSans-54"/>
       <use x="966.785156" xlink:href="#DejaVuSans-48"/>
       <use x="1030.408203" xlink:href="#DejaVuSans-49"/>
      </g>
     </g>
    </g>
    <g id="xtick_10">
     <g id="line2d_19">
      <path clip-path="url(#p5e90c1a5e8)" d="M 382.042395 593.075 
L 382.042395 26.8 
" style="fill:none;stroke:#b0b0b0;stroke-dasharray:2.96,1.28;stroke-dashoffset:0;stroke-opacity:0.5;stroke-width:0.8;"/>
     </g>
     <g id="line2d_20">
      <g>
       <use style="stroke:#000000;stroke-width:0.8;" x="382.042395" xlink:href="#m103a211750" y="593.075"/>
      </g>
     </g>
     <g id="text_10">
      <!-- Position 2000 to 1801 -->
      <g transform="translate(384.80177 709.476562)rotate(-90)scale(0.1 -0.1)">
       <use xlink:href="#DejaVuSans-80"/>
       <use x="56.677734" xlink:href="#DejaVuSans-111"/>
       <use x="117.859375" xlink:href="#DejaVuSans-115"/>
       <use x="169.958984" xlink:href="#DejaVuSans-105"/>
       <use x="197.742188" xlink:href="#DejaVuSans-116"/>
       <use x="236.951172" xlink:href="#DejaVuSans-105"/>
       <use x="264.734375" xlink:href="#DejaVuSans-111"/>
       <use x="325.916016" xlink:href="#DejaVuSans-110"/>
       <use x="389.294922" xlink:href="#DejaVuSans-32"/>
       <use x="421.082031" xlink:href="#DejaVuSans-50"/>
       <use x="484.705078" xlink:href="#DejaVuSans-48"/>
       <use x="548.328125" xlink:href="#DejaVuSans-48"/>
       <use x="611.951172" xlink:href="#DejaVuSans-48"/>
       <use x="675.574219" xlink:href="#DejaVuSans-32"/>
       <use x="707.361328" xlink:href="#DejaVuSans-116"/>
       <use x="746.570312" xlink:href="#DejaVuSans-111"/>
       <use x="807.751953" xlink:href="#DejaVuSans-32"/>
       <use x="839.539062" xlink:href="#DejaVuSans-49"/>
       <use x="903.162109" xlink:href="#DejaVuSans-56"/>
       <use x="966.785156" xlink:href="#DejaVuSans-48"/>
       <use x="1030.408203" xlink:href="#DejaVuSans-49"/>
      </g>
     </g>
    </g>
    <g id="xtick_11">
     <g id="line2d_21">
      <path clip-path="url(#p5e90c1a5e8)" d="M 310.834353 593.075 
L 310.834353 26.8 
" style="fill:none;stroke:#b0b0b0;stroke-dasharray:2.96,1.28;stroke-dashoffset:0;stroke-opacity:0.5;stroke-width:0.8;"/>
     </g>
     <g id="line2d_22">
      <g>
       <use style="stroke:#000000;stroke-width:0.8;" x="310.834353" xlink:href="#m103a211750" y="593.075"/>
      </g>
     </g>
     <g id="text_11">
      <!-- Position 2200 to 2001 -->
      <g transform="translate(313.593728 709.476562)rotate(-90)scale(0.1 -0.1)">
       <use xlink:href="#DejaVuSans-80"/>
       <use x="56.677734" xlink:href="#DejaVuSans-111"/>
       <use x="117.859375" xlink:href="#DejaVuSans-115"/>
       <use x="169.958984" xlink:href="#DejaVuSans-105"/>
       <use x="197.742188" xlink:href="#DejaVuSans-116"/>
       <use x="236.951172" xlink:href="#DejaVuSans-105"/>
       <use x="264.734375" xlink:href="#DejaVuSans-111"/>
       <use x="325.916016" xlink:href="#DejaVuSans-110"/>
       <use x="389.294922" xlink:href="#DejaVuSans-32"/>
       <use x="421.082031" xlink:href="#DejaVuSans-50"/>
       <use x="484.705078" xlink:href="#DejaVuSans-50"/>
       <use x="548.328125" xlink:href="#DejaVuSans-48"/>
       <use x="611.951172" xlink:href="#DejaVuSans-48"/>
       <use x="675.574219" xlink:href="#DejaVuSans-32"/>
       <use x="707.361328" xlink:href="#DejaVuSans-116"/>
       <use x="746.570312" xlink:href="#DejaVuSans-111"/>
       <use x="807.751953" xlink:href="#DejaVuSans-32"/>
       <use x="839.539062" xlink:href="#DejaVuSans-50"/>
       <use x="903.162109" xlink:href="#DejaVuSans-48"/>
       <use x="966.785156" xlink:href="#DejaVuSans-48"/>
       <use x="1030.408203" xlink:href="#DejaVuSans-49"/>
      </g>
     </g>
    </g>
    <g id="xtick_12">
     <g id="line2d_23">
      <path clip-path="url(#p5e90c1a5e8)" d="M 239.626311 593.075 
L 239.626311 26.8 
" style="fill:none;stroke:#b0b0b0;stroke-dasharray:2.96,1.28;stroke-dashoffset:0;stroke-opacity:0.5;stroke-width:0.8;"/>
     </g>
     <g id="line2d_24">
      <g>
       <use style="stroke:#000000;stroke-width:0.8;" x="239.626311" xlink:href="#m103a211750" y="593.075"/>
      </g>
     </g>
     <g id="text_12">
      <!-- Position 2400 to 2201 -->
      <g transform="translate(242.385686 709.476562)rotate(-90)scale(0.1 -0.1)">
       <use xlink:href="#DejaVuSans-80"/>
       <use x="56.677734" xlink:href="#DejaVuSans-111"/>
       <use x="117.859375" xlink:href="#DejaVuSans-115"/>
       <use x="169.958984" xlink:href="#DejaVuSans-105"/>
       <use x="197.742188" xlink:href="#DejaVuSans-116"/>
       <use x="236.951172" xlink:href="#DejaVuSans-105"/>
       <use x="264.734375" xlink:href="#DejaVuSans-111"/>
       <use x="325.916016" xlink:href="#DejaVuSans-110"/>
       <use x="389.294922" xlink:href="#DejaVuSans-32"/>
       <use x="421.082031" xlink:href="#DejaVuSans-50"/>
       <use x="484.705078" xlink:href="#DejaVuSans-52"/>
       <use x="548.328125" xlink:href="#DejaVuSans-48"/>
       <use x="611.951172" xlink:href="#DejaVuSans-48"/>
       <use x="675.574219" xlink:href="#DejaVuSans-32"/>
       <use x="707.361328" xlink:href="#DejaVuSans-116"/>
       <use x="746.570312" xlink:href="#DejaVuSans-111"/>
       <use x="807.751953" xlink:href="#DejaVuSans-32"/>
       <use x="839.539062" xlink:href="#DejaVuSans-50"/>
       <use x="903.162109" xlink:href="#DejaVuSans-50"/>
       <use x="966.785156" xlink:href="#DejaVuSans-48"/>
       <use x="1030.408203" xlink:href="#DejaVuSans-49"/>
      </g>
     </g>
    </g>
    <g id="xtick_13">
     <g id="line2d_25">
      <path clip-path="url(#p5e90c1a5e8)" d="M 168.418269 593.075 
L 168.418269 26.8 
" style="fill:none;stroke:#b0b0b0;stroke-dasharray:2.96,1.28;stroke-dashoffset:0;stroke-opacity:0.5;stroke-width:0.8;"/>
     </g>
     <g id="line2d_26">
      <g>
       <use style="stroke:#000000;stroke-width:0.8;" x="168.418269" xlink:href="#m103a211750" y="593.075"/>
      </g>
     </g>
     <g id="text_13">
      <!-- Position 2600 to 2401 -->
      <g transform="translate(171.177644 709.476562)rotate(-90)scale(0.1 -0.1)">
       <use xlink:href="#DejaVuSans-80"/>
       <use x="56.677734" xlink:href="#DejaVuSans-111"/>
       <use x="117.859375" xlink:href="#DejaVuSans-115"/>
       <use x="169.958984" xlink:href="#DejaVuSans-105"/>
       <use x="197.742188" xlink:href="#DejaVuSans-116"/>
       <use x="236.951172" xlink:href="#DejaVuSans-105"/>
       <use x="264.734375" xlink:href="#DejaVuSans-111"/>
       <use x="325.916016" xlink:href="#DejaVuSans-110"/>
       <use x="389.294922" xlink:href="#DejaVuSans-32"/>
       <use x="421.082031" xlink:href="#DejaVuSans-50"/>
       <use x="484.705078" xlink:href="#DejaVuSans-54"/>
       <use x="548.328125" xlink:href="#DejaVuSans-48"/>
       <use x="611.951172" xlink:href="#DejaVuSans-48"/>
       <use x="675.574219" xlink:href="#DejaVuSans-32"/>
       <use x="707.361328" xlink:href="#DejaVuSans-116"/>
       <use x="746.570312" xlink:href="#DejaVuSans-111"/>
       <use x="807.751953" xlink:href="#DejaVuSans-32"/>
       <use x="839.539062" xlink:href="#DejaVuSans-50"/>
       <use x="903.162109" xlink:href="#DejaVuSans-52"/>
       <use x="966.785156" xlink:href="#DejaVuSans-48"/>
       <use x="1030.408203" xlink:href="#DejaVuSans-49"/>
      </g>
     </g>
    </g>
    <g id="xtick_14">
     <g id="line2d_27">
      <path clip-path="url(#p5e90c1a5e8)" d="M 97.210227 593.075 
L 97.210227 26.8 
" style="fill:none;stroke:#b0b0b0;stroke-dasharray:2.96,1.28;stroke-dashoffset:0;stroke-opacity:0.5;stroke-width:0.8;"/>
     </g>
     <g id="line2d_28">
      <g>
       <use style="stroke:#000000;stroke-width:0.8;" x="97.210227" xlink:href="#m103a211750" y="593.075"/>
      </g>
     </g>
     <g id="text_14">
      <!-- Position 2800 to 2601 -->
      <g transform="translate(99.969602 709.476562)rotate(-90)scale(0.1 -0.1)">
       <use xlink:href="#DejaVuSans-80"/>
       <use x="56.677734" xlink:href="#DejaVuSans-111"/>
       <use x="117.859375" xlink:href="#DejaVuSans-115"/>
       <use x="169.958984" xlink:href="#DejaVuSans-105"/>
       <use x="197.742188" xlink:href="#DejaVuSans-116"/>
       <use x="236.951172" xlink:href="#DejaVuSans-105"/>
       <use x="264.734375" xlink:href="#DejaVuSans-111"/>
       <use x="325.916016" xlink:href="#DejaVuSans-110"/>
       <use x="389.294922" xlink:href="#DejaVuSans-32"/>
       <use x="421.082031" xlink:href="#DejaVuSans-50"/>
       <use x="484.705078" xlink:href="#DejaVuSans-56"/>
       <use x="548.328125" xlink:href="#DejaVuSans-48"/>
       <use x="611.951172" xlink:href="#DejaVuSans-48"/>
       <use x="675.574219" xlink:href="#DejaVuSans-32"/>
       <use x="707.361328" xlink:href="#DejaVuSans-116"/>
       <use x="746.570312" xlink:href="#DejaVuSans-111"/>
       <use x="807.751953" xlink:href="#DejaVuSans-32"/>
       <use x="839.539062" xlink:href="#DejaVuSans-50"/>
       <use x="903.162109" xlink:href="#DejaVuSans-54"/>
       <use x="966.785156" xlink:href="#DejaVuSans-48"/>
       <use x="1030.408203" xlink:href="#DejaVuSans-49"/>
      </g>
     </g>
    </g>
   </g>
   <g id="matplotlib.axis_2">
    <g id="ytick_1">
     <g id="line2d_29">
      <path clip-path="url(#p5e90c1a5e8)" d="M 50.925 517.420903 
L 1069.2 517.420903 
" style="fill:none;stroke:#b0b0b0;stroke-dasharray:2.96,1.28;stroke-dashoffset:0;stroke-opacity:0.5;stroke-width:0.8;"/>
     </g>
     <g id="line2d_30">
      <defs>
       <path d="M 0 0 
L -3.5 0 
" id="m7c2c0e157c" style="stroke:#000000;stroke-width:0.8;"/>
      </defs>
      <g>
       <use style="stroke:#000000;stroke-width:0.8;" x="50.925" xlink:href="#m7c2c0e157c" y="517.420903"/>
      </g>
     </g>
     <g id="text_15">
      <!-- 200 -->
      <g transform="translate(24.8375 521.220122)scale(0.1 -0.1)">
       <use xlink:href="#DejaVuSans-50"/>
       <use x="63.623047" xlink:href="#DejaVuSans-48"/>
       <use x="127.246094" xlink:href="#DejaVuSans-48"/>
      </g>
     </g>
    </g>
    <g id="ytick_2">
     <g id="line2d_31">
      <path clip-path="url(#p5e90c1a5e8)" d="M 50.925 408.079558 
L 1069.2 408.079558 
" style="fill:none;stroke:#b0b0b0;stroke-dasharray:2.96,1.28;stroke-dashoffset:0;stroke-opacity:0.5;stroke-width:0.8;"/>
     </g>
     <g id="line2d_32">
      <g>
       <use style="stroke:#000000;stroke-width:0.8;" x="50.925" xlink:href="#m7c2c0e157c" y="408.079558"/>
      </g>
     </g>
     <g id="text_16">
      <!-- 300 -->
      <defs>
       <path d="M 40.578125 39.3125 
Q 47.65625 37.796875 51.625 33 
Q 55.609375 28.21875 55.609375 21.1875 
Q 55.609375 10.40625 48.1875 4.484375 
Q 40.765625 -1.421875 27.09375 -1.421875 
Q 22.515625 -1.421875 17.65625 -0.515625 
Q 12.796875 0.390625 7.625 2.203125 
L 7.625 11.71875 
Q 11.71875 9.328125 16.59375 8.109375 
Q 21.484375 6.890625 26.8125 6.890625 
Q 36.078125 6.890625 40.9375 10.546875 
Q 45.796875 14.203125 45.796875 21.1875 
Q 45.796875 27.640625 41.28125 31.265625 
Q 36.765625 34.90625 28.71875 34.90625 
L 20.21875 34.90625 
L 20.21875 43.015625 
L 29.109375 43.015625 
Q 36.375 43.015625 40.234375 45.921875 
Q 44.09375 48.828125 44.09375 54.296875 
Q 44.09375 59.90625 40.109375 62.90625 
Q 36.140625 65.921875 28.71875 65.921875 
Q 24.65625 65.921875 20.015625 65.03125 
Q 15.375 64.15625 9.8125 62.3125 
L 9.8125 71.09375 
Q 15.4375 72.65625 20.34375 73.4375 
Q 25.25 74.21875 29.59375 74.21875 
Q 40.828125 74.21875 47.359375 69.109375 
Q 53.90625 64.015625 53.90625 55.328125 
Q 53.90625 49.265625 50.4375 45.09375 
Q 46.96875 40.921875 40.578125 39.3125 
z
" id="DejaVuSans-51"/>
      </defs>
      <g transform="translate(24.8375 411.878777)scale(0.1 -0.1)">
       <use xlink:href="#DejaVuSans-51"/>
       <use x="63.623047" xlink:href="#DejaVuSans-48"/>
       <use x="127.246094" xlink:href="#DejaVuSans-48"/>
      </g>
     </g>
    </g>
    <g id="ytick_3">
     <g id="line2d_33">
      <path clip-path="url(#p5e90c1a5e8)" d="M 50.925 298.738213 
L 1069.2 298.738213 
" style="fill:none;stroke:#b0b0b0;stroke-dasharray:2.96,1.28;stroke-dashoffset:0;stroke-opacity:0.5;stroke-width:0.8;"/>
     </g>
     <g id="line2d_34">
      <g>
       <use style="stroke:#000000;stroke-width:0.8;" x="50.925" xlink:href="#m7c2c0e157c" y="298.738213"/>
      </g>
     </g>
     <g id="text_17">
      <!-- 400 -->
      <g transform="translate(24.8375 302.537431)scale(0.1 -0.1)">
       <use xlink:href="#DejaVuSans-52"/>
       <use x="63.623047" xlink:href="#DejaVuSans-48"/>
       <use x="127.246094" xlink:href="#DejaVuSans-48"/>
      </g>
     </g>
    </g>
    <g id="ytick_4">
     <g id="line2d_35">
      <path clip-path="url(#p5e90c1a5e8)" d="M 50.925 189.396867 
L 1069.2 189.396867 
" style="fill:none;stroke:#b0b0b0;stroke-dasharray:2.96,1.28;stroke-dashoffset:0;stroke-opacity:0.5;stroke-width:0.8;"/>
     </g>
     <g id="line2d_36">
      <g>
       <use style="stroke:#000000;stroke-width:0.8;" x="50.925" xlink:href="#m7c2c0e157c" y="189.396867"/>
      </g>
     </g>
     <g id="text_18">
      <!-- 500 -->
      <defs>
       <path d="M 10.796875 72.90625 
L 49.515625 72.90625 
L 49.515625 64.59375 
L 19.828125 64.59375 
L 19.828125 46.734375 
Q 21.96875 47.46875 24.109375 47.828125 
Q 26.265625 48.1875 28.421875 48.1875 
Q 40.625 48.1875 47.75 41.5 
Q 54.890625 34.8125 54.890625 23.390625 
Q 54.890625 11.625 47.5625 5.09375 
Q 40.234375 -1.421875 26.90625 -1.421875 
Q 22.3125 -1.421875 17.546875 -0.640625 
Q 12.796875 0.140625 7.71875 1.703125 
L 7.71875 11.625 
Q 12.109375 9.234375 16.796875 8.0625 
Q 21.484375 6.890625 26.703125 6.890625 
Q 35.15625 6.890625 40.078125 11.328125 
Q 45.015625 15.765625 45.015625 23.390625 
Q 45.015625 31 40.078125 35.4375 
Q 35.15625 39.890625 26.703125 39.890625 
Q 22.75 39.890625 18.8125 39.015625 
Q 14.890625 38.140625 10.796875 36.28125 
z
" id="DejaVuSans-53"/>
      </defs>
      <g transform="translate(24.8375 193.196086)scale(0.1 -0.1)">
       <use xlink:href="#DejaVuSans-53"/>
       <use x="63.623047" xlink:href="#DejaVuSans-48"/>
       <use x="127.246094" xlink:href="#DejaVuSans-48"/>
      </g>
     </g>
    </g>
    <g id="ytick_5">
     <g id="line2d_37">
      <path clip-path="url(#p5e90c1a5e8)" d="M 50.925 80.055522 
L 1069.2 80.055522 
" style="fill:none;stroke:#b0b0b0;stroke-dasharray:2.96,1.28;stroke-dashoffset:0;stroke-opacity:0.5;stroke-width:0.8;"/>
     </g>
     <g id="line2d_38">
      <g>
       <use style="stroke:#000000;stroke-width:0.8;" x="50.925" xlink:href="#m7c2c0e157c" y="80.055522"/>
      </g>
     </g>
     <g id="text_19">
      <!-- 600 -->
      <g transform="translate(24.8375 83.854741)scale(0.1 -0.1)">
       <use xlink:href="#DejaVuSans-54"/>
       <use x="63.623047" xlink:href="#DejaVuSans-48"/>
       <use x="127.246094" xlink:href="#DejaVuSans-48"/>
      </g>
     </g>
    </g>
    <g id="ytick_6">
     <g id="line2d_39">
      <path clip-path="url(#p5e90c1a5e8)" d="M 50.925 583.02571 
L 1069.2 583.02571 
" style="fill:none;stroke:#b0b0b0;stroke-dasharray:2.96,1.28;stroke-dashoffset:0;stroke-opacity:0.5;stroke-width:0.8;"/>
     </g>
     <g id="line2d_40">
      <defs>
       <path d="M 0 0 
L -2 0 
" id="m52d9fa4e3a" style="stroke:#000000;stroke-width:0.6;"/>
      </defs>
      <g>
       <use style="stroke:#000000;stroke-width:0.6;" x="50.925" xlink:href="#m52d9fa4e3a" y="583.02571"/>
      </g>
     </g>
    </g>
    <g id="ytick_7">
     <g id="line2d_41">
      <path clip-path="url(#p5e90c1a5e8)" d="M 50.925 561.157441 
L 1069.2 561.157441 
" style="fill:none;stroke:#b0b0b0;stroke-dasharray:2.96,1.28;stroke-dashoffset:0;stroke-opacity:0.5;stroke-width:0.8;"/>
     </g>
     <g id="line2d_42">
      <g>
       <use style="stroke:#000000;stroke-width:0.6;" x="50.925" xlink:href="#m52d9fa4e3a" y="561.157441"/>
      </g>
     </g>
    </g>
    <g id="ytick_8">
     <g id="line2d_43">
      <path clip-path="url(#p5e90c1a5e8)" d="M 50.925 539.289172 
L 1069.2 539.289172 
" style="fill:none;stroke:#b0b0b0;stroke-dasharray:2.96,1.28;stroke-dashoffset:0;stroke-opacity:0.5;stroke-width:0.8;"/>
     </g>
     <g id="line2d_44">
      <g>
       <use style="stroke:#000000;stroke-width:0.6;" x="50.925" xlink:href="#m52d9fa4e3a" y="539.289172"/>
      </g>
     </g>
    </g>
    <g id="ytick_9">
     <g id="line2d_45">
      <path clip-path="url(#p5e90c1a5e8)" d="M 50.925 495.552634 
L 1069.2 495.552634 
" style="fill:none;stroke:#b0b0b0;stroke-dasharray:2.96,1.28;stroke-dashoffset:0;stroke-opacity:0.5;stroke-width:0.8;"/>
     </g>
     <g id="line2d_46">
      <g>
       <use style="stroke:#000000;stroke-width:0.6;" x="50.925" xlink:href="#m52d9fa4e3a" y="495.552634"/>
      </g>
     </g>
    </g>
    <g id="ytick_10">
     <g id="line2d_47">
      <path clip-path="url(#p5e90c1a5e8)" d="M 50.925 473.684365 
L 1069.2 473.684365 
" style="fill:none;stroke:#b0b0b0;stroke-dasharray:2.96,1.28;stroke-dashoffset:0;stroke-opacity:0.5;stroke-width:0.8;"/>
     </g>
     <g id="line2d_48">
      <g>
       <use style="stroke:#000000;stroke-width:0.6;" x="50.925" xlink:href="#m52d9fa4e3a" y="473.684365"/>
      </g>
     </g>
    </g>
    <g id="ytick_11">
     <g id="line2d_49">
      <path clip-path="url(#p5e90c1a5e8)" d="M 50.925 451.816096 
L 1069.2 451.816096 
" style="fill:none;stroke:#b0b0b0;stroke-dasharray:2.96,1.28;stroke-dashoffset:0;stroke-opacity:0.5;stroke-width:0.8;"/>
     </g>
     <g id="line2d_50">
      <g>
       <use style="stroke:#000000;stroke-width:0.6;" x="50.925" xlink:href="#m52d9fa4e3a" y="451.816096"/>
      </g>
     </g>
    </g>
    <g id="ytick_12">
     <g id="line2d_51">
      <path clip-path="url(#p5e90c1a5e8)" d="M 50.925 429.947827 
L 1069.2 429.947827 
" style="fill:none;stroke:#b0b0b0;stroke-dasharray:2.96,1.28;stroke-dashoffset:0;stroke-opacity:0.5;stroke-width:0.8;"/>
     </g>
     <g id="line2d_52">
      <g>
       <use style="stroke:#000000;stroke-width:0.6;" x="50.925" xlink:href="#m52d9fa4e3a" y="429.947827"/>
      </g>
     </g>
    </g>
    <g id="ytick_13">
     <g id="line2d_53">
      <path clip-path="url(#p5e90c1a5e8)" d="M 50.925 386.211289 
L 1069.2 386.211289 
" style="fill:none;stroke:#b0b0b0;stroke-dasharray:2.96,1.28;stroke-dashoffset:0;stroke-opacity:0.5;stroke-width:0.8;"/>
     </g>
     <g id="line2d_54">
      <g>
       <use style="stroke:#000000;stroke-width:0.6;" x="50.925" xlink:href="#m52d9fa4e3a" y="386.211289"/>
      </g>
     </g>
    </g>
    <g id="ytick_14">
     <g id="line2d_55">
      <path clip-path="url(#p5e90c1a5e8)" d="M 50.925 364.34302 
L 1069.2 364.34302 
" style="fill:none;stroke:#b0b0b0;stroke-dasharray:2.96,1.28;stroke-dashoffset:0;stroke-opacity:0.5;stroke-width:0.8;"/>
     </g>
     <g id="line2d_56">
      <g>
       <use style="stroke:#000000;stroke-width:0.6;" x="50.925" xlink:href="#m52d9fa4e3a" y="364.34302"/>
      </g>
     </g>
    </g>
    <g id="ytick_15">
     <g id="line2d_57">
      <path clip-path="url(#p5e90c1a5e8)" d="M 50.925 342.474751 
L 1069.2 342.474751 
" style="fill:none;stroke:#b0b0b0;stroke-dasharray:2.96,1.28;stroke-dashoffset:0;stroke-opacity:0.5;stroke-width:0.8;"/>
     </g>
     <g id="line2d_58">
      <g>
       <use style="stroke:#000000;stroke-width:0.6;" x="50.925" xlink:href="#m52d9fa4e3a" y="342.474751"/>
      </g>
     </g>
    </g>
    <g id="ytick_16">
     <g id="line2d_59">
      <path clip-path="url(#p5e90c1a5e8)" d="M 50.925 320.606482 
L 1069.2 320.606482 
" style="fill:none;stroke:#b0b0b0;stroke-dasharray:2.96,1.28;stroke-dashoffset:0;stroke-opacity:0.5;stroke-width:0.8;"/>
     </g>
     <g id="line2d_60">
      <g>
       <use style="stroke:#000000;stroke-width:0.6;" x="50.925" xlink:href="#m52d9fa4e3a" y="320.606482"/>
      </g>
     </g>
    </g>
    <g id="ytick_17">
     <g id="line2d_61">
      <path clip-path="url(#p5e90c1a5e8)" d="M 50.925 276.869944 
L 1069.2 276.869944 
" style="fill:none;stroke:#b0b0b0;stroke-dasharray:2.96,1.28;stroke-dashoffset:0;stroke-opacity:0.5;stroke-width:0.8;"/>
     </g>
     <g id="line2d_62">
      <g>
       <use style="stroke:#000000;stroke-width:0.6;" x="50.925" xlink:href="#m52d9fa4e3a" y="276.869944"/>
      </g>
     </g>
    </g>
    <g id="ytick_18">
     <g id="line2d_63">
      <path clip-path="url(#p5e90c1a5e8)" d="M 50.925 255.001675 
L 1069.2 255.001675 
" style="fill:none;stroke:#b0b0b0;stroke-dasharray:2.96,1.28;stroke-dashoffset:0;stroke-opacity:0.5;stroke-width:0.8;"/>
     </g>
     <g id="line2d_64">
      <g>
       <use style="stroke:#000000;stroke-width:0.6;" x="50.925" xlink:href="#m52d9fa4e3a" y="255.001675"/>
      </g>
     </g>
    </g>
    <g id="ytick_19">
     <g id="line2d_65">
      <path clip-path="url(#p5e90c1a5e8)" d="M 50.925 233.133406 
L 1069.2 233.133406 
" style="fill:none;stroke:#b0b0b0;stroke-dasharray:2.96,1.28;stroke-dashoffset:0;stroke-opacity:0.5;stroke-width:0.8;"/>
     </g>
     <g id="line2d_66">
      <g>
       <use style="stroke:#000000;stroke-width:0.6;" x="50.925" xlink:href="#m52d9fa4e3a" y="233.133406"/>
      </g>
     </g>
    </g>
    <g id="ytick_20">
     <g id="line2d_67">
      <path clip-path="url(#p5e90c1a5e8)" d="M 50.925 211.265137 
L 1069.2 211.265137 
" style="fill:none;stroke:#b0b0b0;stroke-dasharray:2.96,1.28;stroke-dashoffset:0;stroke-opacity:0.5;stroke-width:0.8;"/>
     </g>
     <g id="line2d_68">
      <g>
       <use style="stroke:#000000;stroke-width:0.6;" x="50.925" xlink:href="#m52d9fa4e3a" y="211.265137"/>
      </g>
     </g>
    </g>
    <g id="ytick_21">
     <g id="line2d_69">
      <path clip-path="url(#p5e90c1a5e8)" d="M 50.925 167.528598 
L 1069.2 167.528598 
" style="fill:none;stroke:#b0b0b0;stroke-dasharray:2.96,1.28;stroke-dashoffset:0;stroke-opacity:0.5;stroke-width:0.8;"/>
     </g>
     <g id="line2d_70">
      <g>
       <use style="stroke:#000000;stroke-width:0.6;" x="50.925" xlink:href="#m52d9fa4e3a" y="167.528598"/>
      </g>
     </g>
    </g>
    <g id="ytick_22">
     <g id="line2d_71">
      <path clip-path="url(#p5e90c1a5e8)" d="M 50.925 145.660329 
L 1069.2 145.660329 
" style="fill:none;stroke:#b0b0b0;stroke-dasharray:2.96,1.28;stroke-dashoffset:0;stroke-opacity:0.5;stroke-width:0.8;"/>
     </g>
     <g id="line2d_72">
      <g>
       <use style="stroke:#000000;stroke-width:0.6;" x="50.925" xlink:href="#m52d9fa4e3a" y="145.660329"/>
      </g>
     </g>
    </g>
    <g id="ytick_23">
     <g id="line2d_73">
      <path clip-path="url(#p5e90c1a5e8)" d="M 50.925 123.79206 
L 1069.2 123.79206 
" style="fill:none;stroke:#b0b0b0;stroke-dasharray:2.96,1.28;stroke-dashoffset:0;stroke-opacity:0.5;stroke-width:0.8;"/>
     </g>
     <g id="line2d_74">
      <g>
       <use style="stroke:#000000;stroke-width:0.6;" x="50.925" xlink:href="#m52d9fa4e3a" y="123.79206"/>
      </g>
     </g>
    </g>
    <g id="ytick_24">
     <g id="line2d_75">
      <path clip-path="url(#p5e90c1a5e8)" d="M 50.925 101.923791 
L 1069.2 101.923791 
" style="fill:none;stroke:#b0b0b0;stroke-dasharray:2.96,1.28;stroke-dashoffset:0;stroke-opacity:0.5;stroke-width:0.8;"/>
     </g>
     <g id="line2d_76">
      <g>
       <use style="stroke:#000000;stroke-width:0.6;" x="50.925" xlink:href="#m52d9fa4e3a" y="101.923791"/>
      </g>
     </g>
    </g>
    <g id="ytick_25">
     <g id="line2d_77">
      <path clip-path="url(#p5e90c1a5e8)" d="M 50.925 58.187253 
L 1069.2 58.187253 
" style="fill:none;stroke:#b0b0b0;stroke-dasharray:2.96,1.28;stroke-dashoffset:0;stroke-opacity:0.5;stroke-width:0.8;"/>
     </g>
     <g id="line2d_78">
      <g>
       <use style="stroke:#000000;stroke-width:0.6;" x="50.925" xlink:href="#m52d9fa4e3a" y="58.187253"/>
      </g>
     </g>
    </g>
    <g id="ytick_26">
     <g id="line2d_79">
      <path clip-path="url(#p5e90c1a5e8)" d="M 50.925 36.318984 
L 1069.2 36.318984 
" style="fill:none;stroke:#b0b0b0;stroke-dasharray:2.96,1.28;stroke-dashoffset:0;stroke-opacity:0.5;stroke-width:0.8;"/>
     </g>
     <g id="line2d_80">
      <g>
       <use style="stroke:#000000;stroke-width:0.6;" x="50.925" xlink:href="#m52d9fa4e3a" y="36.318984"/>
      </g>
     </g>
    </g>
    <g id="text_20">
     <!-- Average number of matches -->
     <defs>
      <path d="M 34.1875 63.1875 
L 20.796875 26.90625 
L 47.609375 26.90625 
z
M 28.609375 72.90625 
L 39.796875 72.90625 
L 67.578125 0 
L 57.328125 0 
L 50.6875 18.703125 
L 17.828125 18.703125 
L 11.1875 0 
L 0.78125 0 
z
" id="DejaVuSans-65"/>
      <path d="M 2.984375 54.6875 
L 12.5 54.6875 
L 29.59375 8.796875 
L 46.6875 54.6875 
L 56.203125 54.6875 
L 35.6875 0 
L 23.484375 0 
z
" id="DejaVuSans-118"/>
      <path d="M 56.203125 29.59375 
L 56.203125 25.203125 
L 14.890625 25.203125 
Q 15.484375 15.921875 20.484375 11.0625 
Q 25.484375 6.203125 34.421875 6.203125 
Q 39.59375 6.203125 44.453125 7.46875 
Q 49.3125 8.734375 54.109375 11.28125 
L 54.109375 2.78125 
Q 49.265625 0.734375 44.1875 -0.34375 
Q 39.109375 -1.421875 33.890625 -1.421875 
Q 20.796875 -1.421875 13.15625 6.1875 
Q 5.515625 13.8125 5.515625 26.8125 
Q 5.515625 40.234375 12.765625 48.109375 
Q 20.015625 56 32.328125 56 
Q 43.359375 56 49.78125 48.890625 
Q 56.203125 41.796875 56.203125 29.59375 
z
M 47.21875 32.234375 
Q 47.125 39.59375 43.09375 43.984375 
Q 39.0625 48.390625 32.421875 48.390625 
Q 24.90625 48.390625 20.390625 44.140625 
Q 15.875 39.890625 15.1875 32.171875 
z
" id="DejaVuSans-101"/>
      <path d="M 41.109375 46.296875 
Q 39.59375 47.171875 37.8125 47.578125 
Q 36.03125 48 33.890625 48 
Q 26.265625 48 22.1875 43.046875 
Q 18.109375 38.09375 18.109375 28.8125 
L 18.109375 0 
L 9.078125 0 
L 9.078125 54.6875 
L 18.109375 54.6875 
L 18.109375 46.1875 
Q 20.953125 51.171875 25.484375 53.578125 
Q 30.03125 56 36.53125 56 
Q 37.453125 56 38.578125 55.875 
Q 39.703125 55.765625 41.0625 55.515625 
z
" id="DejaVuSans-114"/>
      <path d="M 34.28125 27.484375 
Q 23.390625 27.484375 19.1875 25 
Q 14.984375 22.515625 14.984375 16.5 
Q 14.984375 11.71875 18.140625 8.90625 
Q 21.296875 6.109375 26.703125 6.109375 
Q 34.1875 6.109375 38.703125 11.40625 
Q 43.21875 16.703125 43.21875 25.484375 
L 43.21875 27.484375 
z
M 52.203125 31.203125 
L 52.203125 0 
L 43.21875 0 
L 43.21875 8.296875 
Q 40.140625 3.328125 35.546875 0.953125 
Q 30.953125 -1.421875 24.3125 -1.421875 
Q 15.921875 -1.421875 10.953125 3.296875 
Q 6 8.015625 6 15.921875 
Q 6 25.140625 12.171875 29.828125 
Q 18.359375 34.515625 30.609375 34.515625 
L 43.21875 34.515625 
L 43.21875 35.40625 
Q 43.21875 41.609375 39.140625 45 
Q 35.0625 48.390625 27.6875 48.390625 
Q 23 48.390625 18.546875 47.265625 
Q 14.109375 46.140625 10.015625 43.890625 
L 10.015625 52.203125 
Q 14.9375 54.109375 19.578125 55.046875 
Q 24.21875 56 28.609375 56 
Q 40.484375 56 46.34375 49.84375 
Q 52.203125 43.703125 52.203125 31.203125 
z
" id="DejaVuSans-97"/>
      <path d="M 45.40625 27.984375 
Q 45.40625 37.75 41.375 43.109375 
Q 37.359375 48.484375 30.078125 48.484375 
Q 22.859375 48.484375 18.828125 43.109375 
Q 14.796875 37.75 14.796875 27.984375 
Q 14.796875 18.265625 18.828125 12.890625 
Q 22.859375 7.515625 30.078125 7.515625 
Q 37.359375 7.515625 41.375 12.890625 
Q 45.40625 18.265625 45.40625 27.984375 
z
M 54.390625 6.78125 
Q 54.390625 -7.171875 48.1875 -13.984375 
Q 42 -20.796875 29.203125 -20.796875 
Q 24.46875 -20.796875 20.265625 -20.09375 
Q 16.0625 -19.390625 12.109375 -17.921875 
L 12.109375 -9.1875 
Q 16.0625 -11.328125 19.921875 -12.34375 
Q 23.78125 -13.375 27.78125 -13.375 
Q 36.625 -13.375 41.015625 -8.765625 
Q 45.40625 -4.15625 45.40625 5.171875 
L 45.40625 9.625 
Q 42.625 4.78125 38.28125 2.390625 
Q 33.9375 0 27.875 0 
Q 17.828125 0 11.671875 7.65625 
Q 5.515625 15.328125 5.515625 27.984375 
Q 5.515625 40.671875 11.671875 48.328125 
Q 17.828125 56 27.875 56 
Q 33.9375 56 38.28125 53.609375 
Q 42.625 51.21875 45.40625 46.390625 
L 45.40625 54.6875 
L 54.390625 54.6875 
z
" id="DejaVuSans-103"/>
      <path d="M 8.5 21.578125 
L 8.5 54.6875 
L 17.484375 54.6875 
L 17.484375 21.921875 
Q 17.484375 14.15625 20.5 10.265625 
Q 23.53125 6.390625 29.59375 6.390625 
Q 36.859375 6.390625 41.078125 11.03125 
Q 45.3125 15.671875 45.3125 23.6875 
L 45.3125 54.6875 
L 54.296875 54.6875 
L 54.296875 0 
L 45.3125 0 
L 45.3125 8.40625 
Q 42.046875 3.421875 37.71875 1 
Q 33.40625 -1.421875 27.6875 -1.421875 
Q 18.265625 -1.421875 13.375 4.4375 
Q 8.5 10.296875 8.5 21.578125 
z
M 31.109375 56 
z
" id="DejaVuSans-117"/>
      <path d="M 52 44.1875 
Q 55.375 50.25 60.0625 53.125 
Q 64.75 56 71.09375 56 
Q 79.640625 56 84.28125 50.015625 
Q 88.921875 44.046875 88.921875 33.015625 
L 88.921875 0 
L 79.890625 0 
L 79.890625 32.71875 
Q 79.890625 40.578125 77.09375 44.375 
Q 74.3125 48.1875 68.609375 48.1875 
Q 61.625 48.1875 57.5625 43.546875 
Q 53.515625 38.921875 53.515625 30.90625 
L 53.515625 0 
L 44.484375 0 
L 44.484375 32.71875 
Q 44.484375 40.625 41.703125 44.40625 
Q 38.921875 48.1875 33.109375 48.1875 
Q 26.21875 48.1875 22.15625 43.53125 
Q 18.109375 38.875 18.109375 30.90625 
L 18.109375 0 
L 9.078125 0 
L 9.078125 54.6875 
L 18.109375 54.6875 
L 18.109375 46.1875 
Q 21.1875 51.21875 25.484375 53.609375 
Q 29.78125 56 35.6875 56 
Q 41.65625 56 45.828125 52.96875 
Q 50 49.953125 52 44.1875 
z
" id="DejaVuSans-109"/>
      <path d="M 48.6875 27.296875 
Q 48.6875 37.203125 44.609375 42.84375 
Q 40.53125 48.484375 33.40625 48.484375 
Q 26.265625 48.484375 22.1875 42.84375 
Q 18.109375 37.203125 18.109375 27.296875 
Q 18.109375 17.390625 22.1875 11.75 
Q 26.265625 6.109375 33.40625 6.109375 
Q 40.53125 6.109375 44.609375 11.75 
Q 48.6875 17.390625 48.6875 27.296875 
z
M 18.109375 46.390625 
Q 20.953125 51.265625 25.265625 53.625 
Q 29.59375 56 35.59375 56 
Q 45.5625 56 51.78125 48.09375 
Q 58.015625 40.1875 58.015625 27.296875 
Q 58.015625 14.40625 51.78125 6.484375 
Q 45.5625 -1.421875 35.59375 -1.421875 
Q 29.59375 -1.421875 25.265625 0.953125 
Q 20.953125 3.328125 18.109375 8.203125 
L 18.109375 0 
L 9.078125 0 
L 9.078125 75.984375 
L 18.109375 75.984375 
z
" id="DejaVuSans-98"/>
      <path d="M 37.109375 75.984375 
L 37.109375 68.5 
L 28.515625 68.5 
Q 23.6875 68.5 21.796875 66.546875 
Q 19.921875 64.59375 19.921875 59.515625 
L 19.921875 54.6875 
L 34.71875 54.6875 
L 34.71875 47.703125 
L 19.921875 47.703125 
L 19.921875 0 
L 10.890625 0 
L 10.890625 47.703125 
L 2.296875 47.703125 
L 2.296875 54.6875 
L 10.890625 54.6875 
L 10.890625 58.5 
Q 10.890625 67.625 15.140625 71.796875 
Q 19.390625 75.984375 28.609375 75.984375 
z
" id="DejaVuSans-102"/>
      <path d="M 48.78125 52.59375 
L 48.78125 44.1875 
Q 44.96875 46.296875 41.140625 47.34375 
Q 37.3125 48.390625 33.40625 48.390625 
Q 24.65625 48.390625 19.8125 42.84375 
Q 14.984375 37.3125 14.984375 27.296875 
Q 14.984375 17.28125 19.8125 11.734375 
Q 24.65625 6.203125 33.40625 6.203125 
Q 37.3125 6.203125 41.140625 7.25 
Q 44.96875 8.296875 48.78125 10.40625 
L 48.78125 2.09375 
Q 45.015625 0.34375 40.984375 -0.53125 
Q 36.96875 -1.421875 32.421875 -1.421875 
Q 20.0625 -1.421875 12.78125 6.34375 
Q 5.515625 14.109375 5.515625 27.296875 
Q 5.515625 40.671875 12.859375 48.328125 
Q 20.21875 56 33.015625 56 
Q 37.15625 56 41.109375 55.140625 
Q 45.0625 54.296875 48.78125 52.59375 
z
" id="DejaVuSans-99"/>
      <path d="M 54.890625 33.015625 
L 54.890625 0 
L 45.90625 0 
L 45.90625 32.71875 
Q 45.90625 40.484375 42.875 44.328125 
Q 39.84375 48.1875 33.796875 48.1875 
Q 26.515625 48.1875 22.3125 43.546875 
Q 18.109375 38.921875 18.109375 30.90625 
L 18.109375 0 
L 9.078125 0 
L 9.078125 75.984375 
L 18.109375 75.984375 
L 18.109375 46.1875 
Q 21.34375 51.125 25.703125 53.5625 
Q 30.078125 56 35.796875 56 
Q 45.21875 56 50.046875 50.171875 
Q 54.890625 44.34375 54.890625 33.015625 
z
" id="DejaVuSans-104"/>
     </defs>
     <g transform="translate(18.757812 381.064844)rotate(-90)scale(0.1 -0.1)">
      <use xlink:href="#DejaVuSans-65"/>
      <use x="62.533203" xlink:href="#DejaVuSans-118"/>
      <use x="121.712891" xlink:href="#DejaVuSans-101"/>
      <use x="183.236328" xlink:href="#DejaVuSans-114"/>
      <use x="224.349609" xlink:href="#DejaVuSans-97"/>
      <use x="285.628906" xlink:href="#DejaVuSans-103"/>
      <use x="349.105469" xlink:href="#DejaVuSans-101"/>
      <use x="410.628906" xlink:href="#DejaVuSans-32"/>
      <use x="442.416016" xlink:href="#DejaVuSans-110"/>
      <use x="505.794922" xlink:href="#DejaVuSans-117"/>
      <use x="569.173828" xlink:href="#DejaVuSans-109"/>
      <use x="666.585938" xlink:href="#DejaVuSans-98"/>
      <use x="730.0625" xlink:href="#DejaVuSans-101"/>
      <use x="791.585938" xlink:href="#DejaVuSans-114"/>
      <use x="832.699219" xlink:href="#DejaVuSans-32"/>
      <use x="864.486328" xlink:href="#DejaVuSans-111"/>
      <use x="925.667969" xlink:href="#DejaVuSans-102"/>
      <use x="960.873047" xlink:href="#DejaVuSans-32"/>
      <use x="992.660156" xlink:href="#DejaVuSans-109"/>
      <use x="1090.072266" xlink:href="#DejaVuSans-97"/>
      <use x="1151.351562" xlink:href="#DejaVuSans-116"/>
      <use x="1190.560547" xlink:href="#DejaVuSans-99"/>
      <use x="1245.541016" xlink:href="#DejaVuSans-104"/>
      <use x="1308.919922" xlink:href="#DejaVuSans-101"/>
      <use x="1370.443359" xlink:href="#DejaVuSans-115"/>
     </g>
    </g>
   </g>
   <g id="line2d_81">
    <path clip-path="url(#p5e90c1a5e8)" d="M 1022.914773 252.814848 
L 951.706731 391.208188 
L 880.498689 425.945934 
L 809.290647 429.094964 
L 738.082605 425.929533 
L 666.874563 424.655706 
L 595.666521 445.162675 
L 524.458479 525.561366 
L 453.250437 522.089779 
L 382.042395 509.41165 
L 310.834353 532.586548 
L 239.626311 521.24785 
L 168.418269 563.256795 
L 97.210227 567.335227 
" style="fill:none;stroke:#1f77b4;stroke-linecap:square;stroke-width:1.5;"/>
   </g>
   <g id="line2d_82">
    <path clip-path="url(#p5e90c1a5e8)" d="M 1022.914773 233.171675 
L 951.706731 380.055371 
L 880.498689 421.16225 
L 809.290647 435.147008 
L 738.082605 419.636938 
L 666.874563 456.484971 
L 595.666521 447.497113 
L 524.458479 458.398445 
L 453.250437 441.051441 
L 382.042395 429.969695 
L 310.834353 448.929485 
L 239.626311 513.954783 
L 168.418269 534.215734 
L 97.210227 538.868208 
" style="fill:none;stroke:#ff7f0e;stroke-linecap:square;stroke-width:1.5;"/>
   </g>
   <g id="line2d_83">
    <path clip-path="url(#p5e90c1a5e8)" d="M 1022.914773 170.245731 
L 951.706731 345.820596 
L 880.498689 376.550981 
L 809.290647 399.960963 
L 738.082605 396.768196 
L 666.874563 430.335989 
L 595.666521 440.258716 
L 524.458479 459.322379 
L 453.250437 435.649978 
L 382.042395 441.12798 
L 310.834353 444.140334 
L 239.626311 442.472878 
L 168.418269 434.562032 
L 97.210227 446.698921 
" style="fill:none;stroke:#2ca02c;stroke-linecap:square;stroke-width:1.5;"/>
   </g>
   <g id="line2d_84">
    <path clip-path="url(#p5e90c1a5e8)" d="M 1022.914773 64.917213 
L 951.706731 248.11317 
L 880.498689 291.095253 
L 809.290647 325.171483 
L 738.082605 351.074448 
L 666.874563 368.137165 
L 595.666521 393.14353 
L 524.458479 395.237417 
L 453.250437 389.22911 
L 382.042395 412.19626 
L 310.834353 422.57822 
L 239.626311 416.70659 
L 168.418269 409.276846 
L 97.210227 413.737973 
" style="fill:none;stroke:#d62728;stroke-linecap:square;stroke-width:1.5;"/>
   </g>
   <g id="line2d_85">
    <path clip-path="url(#p5e90c1a5e8)" d="M 1022.914773 200.80117 
L 951.706731 323.90859 
L 880.498689 354.207077 
L 809.290647 373.396483 
L 738.082605 423.34361 
L 666.874563 439.099698 
L 595.666521 449.924491 
L 524.458479 434.775247 
L 453.250437 446.185017 
L 382.042395 454.664438 
L 310.834353 441.188117 
L 239.626311 440.799956 
L 168.418269 457.873607 
L 97.210227 448.246101 
" style="fill:none;stroke:#9467bd;stroke-linecap:square;stroke-width:1.5;"/>
   </g>
   <g id="line2d_86">
    <path clip-path="url(#p5e90c1a5e8)" d="M 1022.914773 234.440035 
L 951.706731 382.958384 
L 880.498689 389.36032 
L 809.290647 410.51787 
L 738.082605 438.711536 
L 666.874563 450.236114 
L 595.666521 455.200211 
L 524.458479 465.19401 
L 453.250437 454.691773 
L 382.042395 474.57003 
L 310.834353 483.240799 
L 239.626311 472.968179 
L 168.418269 463.767105 
L 97.210227 475.395557 
" style="fill:none;stroke:#8c564b;stroke-linecap:square;stroke-width:1.5;"/>
   </g>
   <g id="line2d_87">
    <path clip-path="url(#p5e90c1a5e8)" d="M 1022.914773 52.539773 
L 951.706731 242.596899 
L 880.498689 255.739729 
L 809.290647 306.763867 
L 738.082605 353.742376 
L 666.874563 370.761357 
L 595.666521 385.254552 
L 524.458479 409.5666 
L 453.250437 419.910291 
L 382.042395 412.316535 
L 310.834353 418.959022 
L 239.626311 445.829657 
L 168.418269 436.623116 
L 97.210227 432.298666 
" style="fill:none;stroke:#e377c2;stroke-linecap:square;stroke-width:1.5;"/>
   </g>
   <g id="line2d_88">
    <path clip-path="url(#p5e90c1a5e8)" d="M 1022.914773 191.895317 
L 951.706731 317.205966 
L 880.498689 356.875006 
L 809.290647 394.537632 
L 738.082605 405.739653 
L 666.874563 426.995611 
L 595.666521 454.243474 
L 524.458479 444.140334 
L 453.250437 461.831763 
L 382.042395 460.825823 
L 310.834353 461.481871 
L 239.626311 465.401758 
L 168.418269 474.892587 
L 97.210227 481.688152 
" style="fill:none;stroke:#7f7f7f;stroke-linecap:square;stroke-width:1.5;"/>
   </g>
   <g id="line2d_89">
    <path clip-path="url(#p5e90c1a5e8)" d="M 1022.914773 208.897896 
L 951.706731 332.847245 
L 880.498689 358.225372 
L 809.290647 377.912281 
L 738.082605 404.657174 
L 666.874563 412.447745 
L 595.666521 434.17387 
L 524.458479 453.888115 
L 453.250437 446.168616 
L 382.042395 437.065949 
L 310.834353 454.948726 
L 239.626311 457.026211 
L 168.418269 466.839597 
L 97.210227 467.11295 
" style="fill:none;stroke:#bcbd22;stroke-linecap:square;stroke-width:1.5;"/>
   </g>
   <g id="line2d_90">
    <path clip-path="url(#p5e90c1a5e8)" d="M 1022.914773 200.101385 
L 951.706731 308.02676 
L 880.498689 316.752199 
L 809.290647 326.560118 
L 738.082605 368.76041 
L 666.874563 392.968584 
L 595.666521 403.09906 
L 524.458479 427.531383 
L 453.250437 416.20362 
L 382.042395 409.932894 
L 310.834353 439.843219 
L 239.626311 427.602455 
L 168.418269 449.574598 
L 97.210227 425.464832 
" style="fill:none;stroke:#17becf;stroke-linecap:square;stroke-width:1.5;"/>
   </g>
   <g id="line2d_91"/>
   <g id="line2d_92"/>
   <g id="line2d_93"/>
   <g id="line2d_94"/>
   <g id="line2d_95"/>
   <g id="line2d_96"/>
   <g id="line2d_97"/>
   <g id="line2d_98"/>
   <g id="line2d_99"/>
   <g id="line2d_100"/>
   <g id="patch_3">
    <path d="M 50.925 593.075 
L 50.925 26.8 
" style="fill:none;stroke:#000000;stroke-linecap:square;stroke-linejoin:miter;stroke-width:0.8;"/>
   </g>
   <g id="patch_4">
    <path d="M 1069.2 593.075 
L 1069.2 26.8 
" style="fill:none;stroke:#000000;stroke-linecap:square;stroke-linejoin:miter;stroke-width:0.8;"/>
   </g>
   <g id="patch_5">
    <path d="M 50.925 593.075 
L 1069.2 593.075 
" style="fill:none;stroke:#000000;stroke-linecap:square;stroke-linejoin:miter;stroke-width:0.8;"/>
   </g>
   <g id="patch_6">
    <path d="M 50.925 26.8 
L 1069.2 26.8 
" style="fill:none;stroke:#000000;stroke-linecap:square;stroke-linejoin:miter;stroke-width:0.8;"/>
   </g>
   <g id="text_21">
    <!-- Average number of matches played per position -->
    <defs>
     <path d="M 18.109375 8.203125 
L 18.109375 -20.796875 
L 9.078125 -20.796875 
L 9.078125 54.6875 
L 18.109375 54.6875 
L 18.109375 46.390625 
Q 20.953125 51.265625 25.265625 53.625 
Q 29.59375 56 35.59375 56 
Q 45.5625 56 51.78125 48.09375 
Q 58.015625 40.1875 58.015625 27.296875 
Q 58.015625 14.40625 51.78125 6.484375 
Q 45.5625 -1.421875 35.59375 -1.421875 
Q 29.59375 -1.421875 25.265625 0.953125 
Q 20.953125 3.328125 18.109375 8.203125 
z
M 48.6875 27.296875 
Q 48.6875 37.203125 44.609375 42.84375 
Q 40.53125 48.484375 33.40625 48.484375 
Q 26.265625 48.484375 22.1875 42.84375 
Q 18.109375 37.203125 18.109375 27.296875 
Q 18.109375 17.390625 22.1875 11.75 
Q 26.265625 6.109375 33.40625 6.109375 
Q 40.53125 6.109375 44.609375 11.75 
Q 48.6875 17.390625 48.6875 27.296875 
z
" id="DejaVuSans-112"/>
     <path d="M 9.421875 75.984375 
L 18.40625 75.984375 
L 18.40625 0 
L 9.421875 0 
z
" id="DejaVuSans-108"/>
     <path d="M 32.171875 -5.078125 
Q 28.375 -14.84375 24.75 -17.8125 
Q 21.140625 -20.796875 15.09375 -20.796875 
L 7.90625 -20.796875 
L 7.90625 -13.28125 
L 13.1875 -13.28125 
Q 16.890625 -13.28125 18.9375 -11.515625 
Q 21 -9.765625 23.484375 -3.21875 
L 25.09375 0.875 
L 2.984375 54.6875 
L 12.5 54.6875 
L 29.59375 11.921875 
L 46.6875 54.6875 
L 56.203125 54.6875 
z
" id="DejaVuSans-121"/>
     <path d="M 45.40625 46.390625 
L 45.40625 75.984375 
L 54.390625 75.984375 
L 54.390625 0 
L 45.40625 0 
L 45.40625 8.203125 
Q 42.578125 3.328125 38.25 0.953125 
Q 33.9375 -1.421875 27.875 -1.421875 
Q 17.96875 -1.421875 11.734375 6.484375 
Q 5.515625 14.40625 5.515625 27.296875 
Q 5.515625 40.1875 11.734375 48.09375 
Q 17.96875 56 27.875 56 
Q 33.9375 56 38.25 53.625 
Q 42.578125 51.265625 45.40625 46.390625 
z
M 14.796875 27.296875 
Q 14.796875 17.390625 18.875 11.75 
Q 22.953125 6.109375 30.078125 6.109375 
Q 37.203125 6.109375 41.296875 11.75 
Q 45.40625 17.390625 45.40625 27.296875 
Q 45.40625 37.203125 41.296875 42.84375 
Q 37.203125 48.484375 30.078125 48.484375 
Q 22.953125 48.484375 18.875 42.84375 
Q 14.796875 37.203125 14.796875 27.296875 
z
" id="DejaVuSans-100"/>
    </defs>
    <g transform="translate(415.050938 20.8)scale(0.12 -0.12)">
     <use xlink:href="#DejaVuSans-65"/>
     <use x="62.533203" xlink:href="#DejaVuSans-118"/>
     <use x="121.712891" xlink:href="#DejaVuSans-101"/>
     <use x="183.236328" xlink:href="#DejaVuSans-114"/>
     <use x="224.349609" xlink:href="#DejaVuSans-97"/>
     <use x="285.628906" xlink:href="#DejaVuSans-103"/>
     <use x="349.105469" xlink:href="#DejaVuSans-101"/>
     <use x="410.628906" xlink:href="#DejaVuSans-32"/>
     <use x="442.416016" xlink:href="#DejaVuSans-110"/>
     <use x="505.794922" xlink:href="#DejaVuSans-117"/>
     <use x="569.173828" xlink:href="#DejaVuSans-109"/>
     <use x="666.585938" xlink:href="#DejaVuSans-98"/>
     <use x="730.0625" xlink:href="#DejaVuSans-101"/>
     <use x="791.585938" xlink:href="#DejaVuSans-114"/>
     <use x="832.699219" xlink:href="#DejaVuSans-32"/>
     <use x="864.486328" xlink:href="#DejaVuSans-111"/>
     <use x="925.667969" xlink:href="#DejaVuSans-102"/>
     <use x="960.873047" xlink:href="#DejaVuSans-32"/>
     <use x="992.660156" xlink:href="#DejaVuSans-109"/>
     <use x="1090.072266" xlink:href="#DejaVuSans-97"/>
     <use x="1151.351562" xlink:href="#DejaVuSans-116"/>
     <use x="1190.560547" xlink:href="#DejaVuSans-99"/>
     <use x="1245.541016" xlink:href="#DejaVuSans-104"/>
     <use x="1308.919922" xlink:href="#DejaVuSans-101"/>
     <use x="1370.443359" xlink:href="#DejaVuSans-115"/>
     <use x="1422.542969" xlink:href="#DejaVuSans-32"/>
     <use x="1454.330078" xlink:href="#DejaVuSans-112"/>
     <use x="1517.806641" xlink:href="#DejaVuSans-108"/>
     <use x="1545.589844" xlink:href="#DejaVuSans-97"/>
     <use x="1606.869141" xlink:href="#DejaVuSans-121"/>
     <use x="1666.048828" xlink:href="#DejaVuSans-101"/>
     <use x="1727.572266" xlink:href="#DejaVuSans-100"/>
     <use x="1791.048828" xlink:href="#DejaVuSans-32"/>
     <use x="1822.835938" xlink:href="#DejaVuSans-112"/>
     <use x="1886.3125" xlink:href="#DejaVuSans-101"/>
     <use x="1947.835938" xlink:href="#DejaVuSans-114"/>
     <use x="1988.949219" xlink:href="#DejaVuSans-32"/>
     <use x="2020.736328" xlink:href="#DejaVuSans-112"/>
     <use x="2084.212891" xlink:href="#DejaVuSans-111"/>
     <use x="2145.394531" xlink:href="#DejaVuSans-115"/>
     <use x="2197.494141" xlink:href="#DejaVuSans-105"/>
     <use x="2225.277344" xlink:href="#DejaVuSans-116"/>
     <use x="2264.486328" xlink:href="#DejaVuSans-105"/>
     <use x="2292.269531" xlink:href="#DejaVuSans-111"/>
     <use x="2353.451172" xlink:href="#DejaVuSans-110"/>
    </g>
   </g>
   <g id="legend_1">
    <g id="patch_7">
     <path d="M 57.925 199.040625 
L 199.467188 199.040625 
Q 201.467188 199.040625 201.467188 197.040625 
L 201.467188 33.8 
Q 201.467188 31.8 199.467188 31.8 
L 57.925 31.8 
Q 55.925 31.8 55.925 33.8 
L 55.925 197.040625 
Q 55.925 199.040625 57.925 199.040625 
z
" style="fill:#ffffff;opacity:0.8;stroke:#cccccc;stroke-linejoin:miter;"/>
    </g>
    <g id="text_22">
     <!-- season -->
     <g transform="translate(111.117969 43.398438)scale(0.1 -0.1)">
      <use xlink:href="#DejaVuSans-115"/>
      <use x="52.099609" xlink:href="#DejaVuSans-101"/>
      <use x="113.623047" xlink:href="#DejaVuSans-97"/>
      <use x="174.902344" xlink:href="#DejaVuSans-115"/>
      <use x="227.001953" xlink:href="#DejaVuSans-111"/>
      <use x="288.183594" xlink:href="#DejaVuSans-110"/>
     </g>
    </g>
    <g id="line2d_101">
     <path d="M 59.925 54.576563 
L 79.925 54.576563 
" style="fill:none;stroke:#1f77b4;stroke-linecap:square;stroke-width:1.5;"/>
    </g>
    <g id="line2d_102"/>
    <g id="text_23">
     <!-- M2_01 Wolf 2020 -->
     <defs>
      <path d="M 9.8125 72.90625 
L 24.515625 72.90625 
L 43.109375 23.296875 
L 61.8125 72.90625 
L 76.515625 72.90625 
L 76.515625 0 
L 66.890625 0 
L 66.890625 64.015625 
L 48.09375 14.015625 
L 38.1875 14.015625 
L 19.390625 64.015625 
L 19.390625 0 
L 9.8125 0 
z
" id="DejaVuSans-77"/>
      <path d="M 50.984375 -16.609375 
L 50.984375 -23.578125 
L -0.984375 -23.578125 
L -0.984375 -16.609375 
z
" id="DejaVuSans-95"/>
      <path d="M 3.328125 72.90625 
L 13.28125 72.90625 
L 28.609375 11.28125 
L 43.890625 72.90625 
L 54.984375 72.90625 
L 70.3125 11.28125 
L 85.59375 72.90625 
L 95.609375 72.90625 
L 77.296875 0 
L 64.890625 0 
L 49.515625 63.28125 
L 33.984375 0 
L 21.578125 0 
z
" id="DejaVuSans-87"/>
     </defs>
     <g transform="translate(87.925 58.076563)scale(0.1 -0.1)">
      <use xlink:href="#DejaVuSans-77"/>
      <use x="86.279297" xlink:href="#DejaVuSans-50"/>
      <use x="149.902344" xlink:href="#DejaVuSans-95"/>
      <use x="199.902344" xlink:href="#DejaVuSans-48"/>
      <use x="263.525391" xlink:href="#DejaVuSans-49"/>
      <use x="327.148438" xlink:href="#DejaVuSans-32"/>
      <use x="358.935547" xlink:href="#DejaVuSans-87"/>
      <use x="451.9375" xlink:href="#DejaVuSans-111"/>
      <use x="513.119141" xlink:href="#DejaVuSans-108"/>
      <use x="540.902344" xlink:href="#DejaVuSans-102"/>
      <use x="576.107422" xlink:href="#DejaVuSans-32"/>
      <use x="607.894531" xlink:href="#DejaVuSans-50"/>
      <use x="671.517578" xlink:href="#DejaVuSans-48"/>
      <use x="735.140625" xlink:href="#DejaVuSans-50"/>
      <use x="798.763672" xlink:href="#DejaVuSans-48"/>
     </g>
    </g>
    <g id="line2d_103">
     <path d="M 59.925 69.532813 
L 79.925 69.532813 
" style="fill:none;stroke:#ff7f0e;stroke-linecap:square;stroke-width:1.5;"/>
    </g>
    <g id="line2d_104"/>
    <g id="text_24">
     <!-- M2_02 Love 2020 -->
     <defs>
      <path d="M 9.8125 72.90625 
L 19.671875 72.90625 
L 19.671875 8.296875 
L 55.171875 8.296875 
L 55.171875 0 
L 9.8125 0 
z
" id="DejaVuSans-76"/>
     </defs>
     <g transform="translate(87.925 73.032813)scale(0.1 -0.1)">
      <use xlink:href="#DejaVuSans-77"/>
      <use x="86.279297" xlink:href="#DejaVuSans-50"/>
      <use x="149.902344" xlink:href="#DejaVuSans-95"/>
      <use x="199.902344" xlink:href="#DejaVuSans-48"/>
      <use x="263.525391" xlink:href="#DejaVuSans-50"/>
      <use x="327.148438" xlink:href="#DejaVuSans-32"/>
      <use x="358.935547" xlink:href="#DejaVuSans-76"/>
      <use x="412.898438" xlink:href="#DejaVuSans-111"/>
      <use x="474.080078" xlink:href="#DejaVuSans-118"/>
      <use x="533.259766" xlink:href="#DejaVuSans-101"/>
      <use x="594.783203" xlink:href="#DejaVuSans-32"/>
      <use x="626.570312" xlink:href="#DejaVuSans-50"/>
      <use x="690.193359" xlink:href="#DejaVuSans-48"/>
      <use x="753.816406" xlink:href="#DejaVuSans-50"/>
      <use x="817.439453" xlink:href="#DejaVuSans-48"/>
     </g>
    </g>
    <g id="line2d_105">
     <path d="M 59.925 84.489063 
L 79.925 84.489063 
" style="fill:none;stroke:#2ca02c;stroke-linecap:square;stroke-width:1.5;"/>
    </g>
    <g id="line2d_106"/>
    <g id="text_25">
     <!-- M2_03 Bear 2020 -->
     <defs>
      <path d="M 19.671875 34.8125 
L 19.671875 8.109375 
L 35.5 8.109375 
Q 43.453125 8.109375 47.28125 11.40625 
Q 51.125 14.703125 51.125 21.484375 
Q 51.125 28.328125 47.28125 31.5625 
Q 43.453125 34.8125 35.5 34.8125 
z
M 19.671875 64.796875 
L 19.671875 42.828125 
L 34.28125 42.828125 
Q 41.5 42.828125 45.03125 45.53125 
Q 48.578125 48.25 48.578125 53.8125 
Q 48.578125 59.328125 45.03125 62.0625 
Q 41.5 64.796875 34.28125 64.796875 
z
M 9.8125 72.90625 
L 35.015625 72.90625 
Q 46.296875 72.90625 52.390625 68.21875 
Q 58.5 63.53125 58.5 54.890625 
Q 58.5 48.1875 55.375 44.234375 
Q 52.25 40.28125 46.1875 39.3125 
Q 53.46875 37.75 57.5 32.78125 
Q 61.53125 27.828125 61.53125 20.40625 
Q 61.53125 10.640625 54.890625 5.3125 
Q 48.25 0 35.984375 0 
L 9.8125 0 
z
" id="DejaVuSans-66"/>
     </defs>
     <g transform="translate(87.925 87.989063)scale(0.1 -0.1)">
      <use xlink:href="#DejaVuSans-77"/>
      <use x="86.279297" xlink:href="#DejaVuSans-50"/>
      <use x="149.902344" xlink:href="#DejaVuSans-95"/>
      <use x="199.902344" xlink:href="#DejaVuSans-48"/>
      <use x="263.525391" xlink:href="#DejaVuSans-51"/>
      <use x="327.148438" xlink:href="#DejaVuSans-32"/>
      <use x="358.935547" xlink:href="#DejaVuSans-66"/>
      <use x="427.539062" xlink:href="#DejaVuSans-101"/>
      <use x="489.0625" xlink:href="#DejaVuSans-97"/>
      <use x="550.341797" xlink:href="#DejaVuSans-114"/>
      <use x="591.455078" xlink:href="#DejaVuSans-32"/>
      <use x="623.242188" xlink:href="#DejaVuSans-50"/>
      <use x="686.865234" xlink:href="#DejaVuSans-48"/>
      <use x="750.488281" xlink:href="#DejaVuSans-50"/>
      <use x="814.111328" xlink:href="#DejaVuSans-48"/>
     </g>
    </g>
    <g id="line2d_107">
     <path d="M 59.925 99.445313 
L 79.925 99.445313 
" style="fill:none;stroke:#d62728;stroke-linecap:square;stroke-width:1.5;"/>
    </g>
    <g id="line2d_108"/>
    <g id="text_26">
     <!-- M2_04 Elf 2020 -->
     <defs>
      <path d="M 9.8125 72.90625 
L 55.90625 72.90625 
L 55.90625 64.59375 
L 19.671875 64.59375 
L 19.671875 43.015625 
L 54.390625 43.015625 
L 54.390625 34.71875 
L 19.671875 34.71875 
L 19.671875 8.296875 
L 56.78125 8.296875 
L 56.78125 0 
L 9.8125 0 
z
" id="DejaVuSans-69"/>
     </defs>
     <g transform="translate(87.925 102.945313)scale(0.1 -0.1)">
      <use xlink:href="#DejaVuSans-77"/>
      <use x="86.279297" xlink:href="#DejaVuSans-50"/>
      <use x="149.902344" xlink:href="#DejaVuSans-95"/>
      <use x="199.902344" xlink:href="#DejaVuSans-48"/>
      <use x="263.525391" xlink:href="#DejaVuSans-52"/>
      <use x="327.148438" xlink:href="#DejaVuSans-32"/>
      <use x="358.935547" xlink:href="#DejaVuSans-69"/>
      <use x="422.119141" xlink:href="#DejaVuSans-108"/>
      <use x="449.902344" xlink:href="#DejaVuSans-102"/>
      <use x="485.107422" xlink:href="#DejaVuSans-32"/>
      <use x="516.894531" xlink:href="#DejaVuSans-50"/>
      <use x="580.517578" xlink:href="#DejaVuSans-48"/>
      <use x="644.140625" xlink:href="#DejaVuSans-50"/>
      <use x="707.763672" xlink:href="#DejaVuSans-48"/>
     </g>
    </g>
    <g id="line2d_109">
     <path d="M 59.925 114.401563 
L 79.925 114.401563 
" style="fill:none;stroke:#9467bd;stroke-linecap:square;stroke-width:1.5;"/>
    </g>
    <g id="line2d_110"/>
    <g id="text_27">
     <!-- M2_05 Viper 2020 -->
     <defs>
      <path d="M 28.609375 0 
L 0.78125 72.90625 
L 11.078125 72.90625 
L 34.1875 11.53125 
L 57.328125 72.90625 
L 67.578125 72.90625 
L 39.796875 0 
z
" id="DejaVuSans-86"/>
     </defs>
     <g transform="translate(87.925 117.901563)scale(0.1 -0.1)">
      <use xlink:href="#DejaVuSans-77"/>
      <use x="86.279297" xlink:href="#DejaVuSans-50"/>
      <use x="149.902344" xlink:href="#DejaVuSans-95"/>
      <use x="199.902344" xlink:href="#DejaVuSans-48"/>
      <use x="263.525391" xlink:href="#DejaVuSans-53"/>
      <use x="327.148438" xlink:href="#DejaVuSans-32"/>
      <use x="358.935547" xlink:href="#DejaVuSans-86"/>
      <use x="425.09375" xlink:href="#DejaVuSans-105"/>
      <use x="452.876953" xlink:href="#DejaVuSans-112"/>
      <use x="516.353516" xlink:href="#DejaVuSans-101"/>
      <use x="577.876953" xlink:href="#DejaVuSans-114"/>
      <use x="618.990234" xlink:href="#DejaVuSans-32"/>
      <use x="650.777344" xlink:href="#DejaVuSans-50"/>
      <use x="714.400391" xlink:href="#DejaVuSans-48"/>
      <use x="778.023438" xlink:href="#DejaVuSans-50"/>
      <use x="841.646484" xlink:href="#DejaVuSans-48"/>
     </g>
    </g>
    <g id="line2d_111">
     <path d="M 59.925 129.357813 
L 79.925 129.357813 
" style="fill:none;stroke:#8c564b;stroke-linecap:square;stroke-width:1.5;"/>
    </g>
    <g id="line2d_112"/>
    <g id="text_28">
     <!-- M2_06 Magic 2020 -->
     <g transform="translate(87.925 132.857813)scale(0.1 -0.1)">
      <use xlink:href="#DejaVuSans-77"/>
      <use x="86.279297" xlink:href="#DejaVuSans-50"/>
      <use x="149.902344" xlink:href="#DejaVuSans-95"/>
      <use x="199.902344" xlink:href="#DejaVuSans-48"/>
      <use x="263.525391" xlink:href="#DejaVuSans-54"/>
      <use x="327.148438" xlink:href="#DejaVuSans-32"/>
      <use x="358.935547" xlink:href="#DejaVuSans-77"/>
      <use x="445.214844" xlink:href="#DejaVuSans-97"/>
      <use x="506.494141" xlink:href="#DejaVuSans-103"/>
      <use x="569.970703" xlink:href="#DejaVuSans-105"/>
      <use x="597.753906" xlink:href="#DejaVuSans-99"/>
      <use x="652.734375" xlink:href="#DejaVuSans-32"/>
      <use x="684.521484" xlink:href="#DejaVuSans-50"/>
      <use x="748.144531" xlink:href="#DejaVuSans-48"/>
      <use x="811.767578" xlink:href="#DejaVuSans-50"/>
      <use x="875.390625" xlink:href="#DejaVuSans-48"/>
     </g>
    </g>
    <g id="line2d_113">
     <path d="M 59.925 144.314063 
L 79.925 144.314063 
" style="fill:none;stroke:#e377c2;stroke-linecap:square;stroke-width:1.5;"/>
    </g>
    <g id="line2d_114"/>
    <g id="text_29">
     <!-- M2_07 Griffin 2020 -->
     <defs>
      <path d="M 8.203125 72.90625 
L 55.078125 72.90625 
L 55.078125 68.703125 
L 28.609375 0 
L 18.3125 0 
L 43.21875 64.59375 
L 8.203125 64.59375 
z
" id="DejaVuSans-55"/>
      <path d="M 59.515625 10.40625 
L 59.515625 29.984375 
L 43.40625 29.984375 
L 43.40625 38.09375 
L 69.28125 38.09375 
L 69.28125 6.78125 
Q 63.578125 2.734375 56.6875 0.65625 
Q 49.8125 -1.421875 42 -1.421875 
Q 24.90625 -1.421875 15.25 8.5625 
Q 5.609375 18.5625 5.609375 36.375 
Q 5.609375 54.25 15.25 64.234375 
Q 24.90625 74.21875 42 74.21875 
Q 49.125 74.21875 55.546875 72.453125 
Q 61.96875 70.703125 67.390625 67.28125 
L 67.390625 56.78125 
Q 61.921875 61.421875 55.765625 63.765625 
Q 49.609375 66.109375 42.828125 66.109375 
Q 29.4375 66.109375 22.71875 58.640625 
Q 16.015625 51.171875 16.015625 36.375 
Q 16.015625 21.625 22.71875 14.15625 
Q 29.4375 6.6875 42.828125 6.6875 
Q 48.046875 6.6875 52.140625 7.59375 
Q 56.25 8.5 59.515625 10.40625 
z
" id="DejaVuSans-71"/>
     </defs>
     <g transform="translate(87.925 147.814063)scale(0.1 -0.1)">
      <use xlink:href="#DejaVuSans-77"/>
      <use x="86.279297" xlink:href="#DejaVuSans-50"/>
      <use x="149.902344" xlink:href="#DejaVuSans-95"/>
      <use x="199.902344" xlink:href="#DejaVuSans-48"/>
      <use x="263.525391" xlink:href="#DejaVuSans-55"/>
      <use x="327.148438" xlink:href="#DejaVuSans-32"/>
      <use x="358.935547" xlink:href="#DejaVuSans-71"/>
      <use x="436.425781" xlink:href="#DejaVuSans-114"/>
      <use x="477.539062" xlink:href="#DejaVuSans-105"/>
      <use x="505.322266" xlink:href="#DejaVuSans-102"/>
      <use x="540.527344" xlink:href="#DejaVuSans-102"/>
      <use x="575.732422" xlink:href="#DejaVuSans-105"/>
      <use x="603.515625" xlink:href="#DejaVuSans-110"/>
      <use x="666.894531" xlink:href="#DejaVuSans-32"/>
      <use x="698.681641" xlink:href="#DejaVuSans-50"/>
      <use x="762.304688" xlink:href="#DejaVuSans-48"/>
      <use x="825.927734" xlink:href="#DejaVuSans-50"/>
      <use x="889.550781" xlink:href="#DejaVuSans-48"/>
     </g>
    </g>
    <g id="line2d_115">
     <path d="M 59.925 159.270313 
L 79.925 159.270313 
" style="fill:none;stroke:#7f7f7f;stroke-linecap:square;stroke-width:1.5;"/>
    </g>
    <g id="line2d_116"/>
    <g id="text_30">
     <!-- M2_08 Draconid 2020 -->
     <defs>
      <path d="M 19.671875 64.796875 
L 19.671875 8.109375 
L 31.59375 8.109375 
Q 46.6875 8.109375 53.6875 14.9375 
Q 60.6875 21.78125 60.6875 36.53125 
Q 60.6875 51.171875 53.6875 57.984375 
Q 46.6875 64.796875 31.59375 64.796875 
z
M 9.8125 72.90625 
L 30.078125 72.90625 
Q 51.265625 72.90625 61.171875 64.09375 
Q 71.09375 55.28125 71.09375 36.53125 
Q 71.09375 17.671875 61.125 8.828125 
Q 51.171875 0 30.078125 0 
L 9.8125 0 
z
" id="DejaVuSans-68"/>
     </defs>
     <g transform="translate(87.925 162.770313)scale(0.1 -0.1)">
      <use xlink:href="#DejaVuSans-77"/>
      <use x="86.279297" xlink:href="#DejaVuSans-50"/>
      <use x="149.902344" xlink:href="#DejaVuSans-95"/>
      <use x="199.902344" xlink:href="#DejaVuSans-48"/>
      <use x="263.525391" xlink:href="#DejaVuSans-56"/>
      <use x="327.148438" xlink:href="#DejaVuSans-32"/>
      <use x="358.935547" xlink:href="#DejaVuSans-68"/>
      <use x="435.9375" xlink:href="#DejaVuSans-114"/>
      <use x="477.050781" xlink:href="#DejaVuSans-97"/>
      <use x="538.330078" xlink:href="#DejaVuSans-99"/>
      <use x="593.310547" xlink:href="#DejaVuSans-111"/>
      <use x="654.492188" xlink:href="#DejaVuSans-110"/>
      <use x="717.871094" xlink:href="#DejaVuSans-105"/>
      <use x="745.654297" xlink:href="#DejaVuSans-100"/>
      <use x="809.130859" xlink:href="#DejaVuSans-32"/>
      <use x="840.917969" xlink:href="#DejaVuSans-50"/>
      <use x="904.541016" xlink:href="#DejaVuSans-48"/>
      <use x="968.164062" xlink:href="#DejaVuSans-50"/>
      <use x="1031.787109" xlink:href="#DejaVuSans-48"/>
     </g>
    </g>
    <g id="line2d_117">
     <path d="M 59.925 174.226563 
L 79.925 174.226563 
" style="fill:none;stroke:#bcbd22;stroke-linecap:square;stroke-width:1.5;"/>
    </g>
    <g id="line2d_118"/>
    <g id="text_31">
     <!-- M2_09 Dryad 2020 -->
     <defs>
      <path d="M 10.984375 1.515625 
L 10.984375 10.5 
Q 14.703125 8.734375 18.5 7.8125 
Q 22.3125 6.890625 25.984375 6.890625 
Q 35.75 6.890625 40.890625 13.453125 
Q 46.046875 20.015625 46.78125 33.40625 
Q 43.953125 29.203125 39.59375 26.953125 
Q 35.25 24.703125 29.984375 24.703125 
Q 19.046875 24.703125 12.671875 31.3125 
Q 6.296875 37.9375 6.296875 49.421875 
Q 6.296875 60.640625 12.9375 67.421875 
Q 19.578125 74.21875 30.609375 74.21875 
Q 43.265625 74.21875 49.921875 64.515625 
Q 56.59375 54.828125 56.59375 36.375 
Q 56.59375 19.140625 48.40625 8.859375 
Q 40.234375 -1.421875 26.421875 -1.421875 
Q 22.703125 -1.421875 18.890625 -0.6875 
Q 15.09375 0.046875 10.984375 1.515625 
z
M 30.609375 32.421875 
Q 37.25 32.421875 41.125 36.953125 
Q 45.015625 41.5 45.015625 49.421875 
Q 45.015625 57.28125 41.125 61.84375 
Q 37.25 66.40625 30.609375 66.40625 
Q 23.96875 66.40625 20.09375 61.84375 
Q 16.21875 57.28125 16.21875 49.421875 
Q 16.21875 41.5 20.09375 36.953125 
Q 23.96875 32.421875 30.609375 32.421875 
z
" id="DejaVuSans-57"/>
     </defs>
     <g transform="translate(87.925 177.726563)scale(0.1 -0.1)">
      <use xlink:href="#DejaVuSans-77"/>
      <use x="86.279297" xlink:href="#DejaVuSans-50"/>
      <use x="149.902344" xlink:href="#DejaVuSans-95"/>
      <use x="199.902344" xlink:href="#DejaVuSans-48"/>
      <use x="263.525391" xlink:href="#DejaVuSans-57"/>
      <use x="327.148438" xlink:href="#DejaVuSans-32"/>
      <use x="358.935547" xlink:href="#DejaVuSans-68"/>
      <use x="435.9375" xlink:href="#DejaVuSans-114"/>
      <use x="477.050781" xlink:href="#DejaVuSans-121"/>
      <use x="536.230469" xlink:href="#DejaVuSans-97"/>
      <use x="597.509766" xlink:href="#DejaVuSans-100"/>
      <use x="660.986328" xlink:href="#DejaVuSans-32"/>
      <use x="692.773438" xlink:href="#DejaVuSans-50"/>
      <use x="756.396484" xlink:href="#DejaVuSans-48"/>
      <use x="820.019531" xlink:href="#DejaVuSans-50"/>
      <use x="883.642578" xlink:href="#DejaVuSans-48"/>
     </g>
    </g>
    <g id="line2d_119">
     <path d="M 59.925 189.182813 
L 79.925 189.182813 
" style="fill:none;stroke:#17becf;stroke-linecap:square;stroke-width:1.5;"/>
    </g>
    <g id="line2d_120"/>
    <g id="text_32">
     <!-- M2_10 Cat 2020 -->
     <defs>
      <path d="M 64.40625 67.28125 
L 64.40625 56.890625 
Q 59.421875 61.53125 53.78125 63.8125 
Q 48.140625 66.109375 41.796875 66.109375 
Q 29.296875 66.109375 22.65625 58.46875 
Q 16.015625 50.828125 16.015625 36.375 
Q 16.015625 21.96875 22.65625 14.328125 
Q 29.296875 6.6875 41.796875 6.6875 
Q 48.140625 6.6875 53.78125 8.984375 
Q 59.421875 11.28125 64.40625 15.921875 
L 64.40625 5.609375 
Q 59.234375 2.09375 53.4375 0.328125 
Q 47.65625 -1.421875 41.21875 -1.421875 
Q 24.65625 -1.421875 15.125 8.703125 
Q 5.609375 18.84375 5.609375 36.375 
Q 5.609375 53.953125 15.125 64.078125 
Q 24.65625 74.21875 41.21875 74.21875 
Q 47.75 74.21875 53.53125 72.484375 
Q 59.328125 70.75 64.40625 67.28125 
z
" id="DejaVuSans-67"/>
     </defs>
     <g transform="translate(87.925 192.682813)scale(0.1 -0.1)">
      <use xlink:href="#DejaVuSans-77"/>
      <use x="86.279297" xlink:href="#DejaVuSans-50"/>
      <use x="149.902344" xlink:href="#DejaVuSans-95"/>
      <use x="199.902344" xlink:href="#DejaVuSans-49"/>
      <use x="263.525391" xlink:href="#DejaVuSans-48"/>
      <use x="327.148438" xlink:href="#DejaVuSans-32"/>
      <use x="358.935547" xlink:href="#DejaVuSans-67"/>
      <use x="428.759766" xlink:href="#DejaVuSans-97"/>
      <use x="490.039062" xlink:href="#DejaVuSans-116"/>
      <use x="529.248047" xlink:href="#DejaVuSans-32"/>
      <use x="561.035156" xlink:href="#DejaVuSans-50"/>
      <use x="624.658203" xlink:href="#DejaVuSans-48"/>
      <use x="688.28125" xlink:href="#DejaVuSans-50"/>
      <use x="751.904297" xlink:href="#DejaVuSans-48"/>
     </g>
    </g>
   </g>
  </g>
 </g>
 <defs>
  <clipPath id="p5e90c1a5e8">
   <rect height="566.275" width="1018.275" x="50.925" y="26.8"/>
  </clipPath>
 </defs>
</svg>
